<mxfile host="Electron" modified="2024-10-23T15:43:02.810Z" agent="Mozilla/5.0 (Macintosh; Intel Mac OS X 10_15_7) AppleWebKit/537.36 (KHTML, like Gecko) draw.io/21.5.0 Chrome/112.0.5615.204 Electron/24.5.1 Safari/537.36" etag="j-VXQVFROos_5UcxlOer" version="21.5.0" type="device" pages="2">
  <diagram name="Page-1" id="vhmJ3tqNvKDFZ-JiarUf">
    <mxGraphModel dx="1122" dy="793" grid="0" gridSize="10" guides="1" tooltips="1" connect="1" arrows="1" fold="1" page="1" pageScale="1" pageWidth="3300" pageHeight="2339" math="1" shadow="0">
      <root>
        <mxCell id="0" />
        <mxCell id="1" parent="0" />
        <mxCell id="dJhU3snJmLQJ3H2SU6Lc-7" value="" style="shape=image;verticalLabelPosition=bottom;labelBackgroundColor=default;verticalAlign=top;aspect=fixed;imageAspect=0;image=data:image/png,iVBORw0KGgoAAAANSUhEUgAAAuYAAAOoCAYAAACdvDH7AAAMPmlDQ1BJQ0MgUHJvZmlsZQAASImVVwdYU8kWnluSkEBoAQSkhN4EESkBpITQQu9NVEISIJQYA0HFji4quHaxgA1dFVGw0iwoYmdR7H2xoKCsiwW78iYFdN1Xvne+b+797z9n/nPm3LllAFA7wRGJclF1APKEBeKYID96UnIKndQDcIAALUAF7hxuvogZFRUGoA2d/27vbkBfaFftpVr/7P+vpsHj53MBQKIgTuflc/MgPgQAXskViQsAIEp5s6kFIimGDWiJYYIQL5LiTDmulOJ0Od4n84mLYUHcBoCSCocjzgRA9TLk6YXcTKih2g+xo5AnEAKgRofYOy9vMg/iNIitoY8IYqk+I/0Hncy/aaYPa3I4mcNYPheZKfkL8kW5nOn/Zzn+t+XlSoZiWMKmkiUOjpHOGdbtVs7kUClWgbhPmB4RCbEmxB8EPJk/xCglSxIcL/dHDbj5LFgzoAOxI4/jHwqxAcSBwtyIMAWfniEIZEMMVwg6TVDAjoNYF+JF/PyAWIXPFvHkGEUstD5DzGIq+HMcsSyuNNYDSU48U6H/OovPVuhjqkVZcYkQUyA2LxQkRECsCrFDfk5sqMJnXFEWK2LIRyyJkeZvDnEMXxjkJ9fHCjPEgTEK/9K8/KH5YluyBOwIBT5QkBUXLK8P1sblyPKHc8Eu84XM+CEdfn5S2NBceHz/APncsR6+MD5WofNBVOAXIx+LU0S5UQp/3JSfGyTlTSF2zi+MVYzFEwrggpTr4xmigqg4eZ54UTYnJEqeD74chAEW8Ad0IIEtHUwG2UDQ0dfQB6/kPYGAA8QgE/CBvYIZGpEo6xHCYywoAn9CxAf5w+P8ZL18UAj5r8Os/GgPMmS9hbIROeApxHkgFOTCa4lslHA4WgJ4AhnBP6JzYOPCfHNhk/b/e36I/c4wIROmYCRDEelqQ57EAKI/MZgYSLTB9XFv3BMPg0df2JxwBu4+NI/v/oSnhE7CI8J1Qhfh9iRBsfinLMNBF9QPVNQi/cda4JZQ0wX3w72gOlTGdXB9YI87wzhM3AdGdoEsS5G3tCr0n7T/NoMf7obCj+xIRskjyL5k659HqtqqugyrSGv9Y33kuaYP15s13PNzfNYP1efBc+jPntgi7CB2FjuJnceOYg2AjrVgjVg7dkyKh1fXE9nqGooWI8snB+oI/hFv6M5KK5nvWOPY6/hF3lfAnyZ9RwPWZNF0sSAzq4DOhF8EPp0t5DqMojs5OjkDIP2+yF9fb6Jl3w1Ep/07N/8PALxaBgcHj3znQloA2O8GH/+m75w1A346lAE418SViAvlHC49EOBbQg0+aXrACJgBazgfJ+AKPIEvCAAhIBLEgWQwEWafBde5GEwFM8E8UALKwHKwBmwAm8E2sAvsBQdAAzgKToIz4CK4DK6Du3D1dIMXoB+8A58RBCEhVISG6CHGiAVihzghDMQbCUDCkBgkGUlDMhEhIkFmIvORMmQlsgHZilQj+5Em5CRyHulEbiMPkV7kNfIJxVAVVAs1RC3R0SgDZaKhaBw6Ac1Ep6BF6AJ0KboOrUL3oPXoSfQieh3tQl+gAxjAlDEdzASzxxgYC4vEUrAMTIzNxkqxcqwKq8Wa4X2+inVhfdhHnIjTcDpuD1dwMB6Pc/Ep+Gx8Cb4B34XX4234Vfwh3o9/I1AJBgQ7ggeBTUgiZBKmEkoI5YQdhMOE0/BZ6ia8IxKJOkQroht8FpOJ2cQZxCXEjcQ64gliJ/ExcYBEIumR7EhepEgSh1RAKiGtJ+0htZCukLpJH5SUlYyVnJQClVKUhErFSuVKu5WOK11Reqb0maxOtiB7kCPJPPJ08jLydnIz+RK5m/yZokGxonhR4ijZlHmUdZRaymnKPcobZWVlU2V35WhlgfJc5XXK+5TPKT9U/qiiqWKrwlJJVZGoLFXZqXJC5bbKGyqVakn1paZQC6hLqdXUU9QH1A+qNFUHVbYqT3WOaoVqveoV1ZdqZDULNabaRLUitXK1g2qX1PrUyeqW6ix1jvps9Qr1JvWb6gMaNI0xGpEaeRpLNHZrnNfo0SRpWmoGaPI0F2hu0zyl+ZiG0cxoLBqXNp+2nXaa1q1F1LLSYmtla5Vp7dXq0OrX1tR21k7QnqZdoX1Mu0sH07HUYevk6izTOaBzQ+fTCMMRzBH8EYtH1I64MuK97khdX12+bqlune513U96dL0AvRy9FXoNevf1cX1b/Wj9qfqb9E/r943UGuk5kjuydOSBkXcMUANbgxiDGQbbDNoNBgyNDIMMRYbrDU8Z9hnpGPkaZRutNjpu1GtMM/Y2FhivNm4xfk7XpjPpufR19DZ6v4mBSbCJxGSrSYfJZ1Mr03jTYtM60/tmFDOGWYbZarNWs35zY/Nw85nmNeZ3LMgWDIssi7UWZy3eW1pZJloutGyw7LHStWJbFVnVWN2zplr7WE+xrrK+ZkO0Ydjk2Gy0uWyL2rrYZtlW2F6yQ+1c7QR2G+06RxFGuY8SjqoaddNexZ5pX2hfY//QQcchzKHYocHh5Wjz0SmjV4w+O/qbo4tjruN2x7tjNMeEjCke0zzmtZOtE9epwunaWOrYwLFzxjaOfeVs58x33uR8y4XmEu6y0KXV5aurm6vYtda1183cLc2t0u0mQ4sRxVjCOOdOcPdzn+N+1P2jh6tHgccBj7887T1zPHd79oyzGscft33cYy9TL47XVq8ub7p3mvcW7y4fEx+OT5XPI18zX57vDt9nTBtmNnMP86Wfo5/Y77Dfe5YHaxbrhD/mH+Rf6t8RoBkQH7Ah4EGgaWBmYE1gf5BL0IygE8GE4NDgFcE32YZsLrua3R/iFjIrpC1UJTQ2dEPoozDbMHFYczgaHhK+KvxehEWEMKIhEkSyI1dF3o+yipoSdSSaGB0VXRH9NGZMzMyYs7G02Emxu2PfxfnFLYu7G28dL4lvTVBLSE2oTnif6J+4MrEraXTSrKSLyfrJguTGFFJKQsqOlIHxAePXjO9OdUktSb0xwWrCtAnnJ+pPzJ14bJLaJM6kg2mEtMS03WlfOJGcKs5AOju9Mr2fy+Ku5b7g+fJW83r5XvyV/GcZXhkrM3oyvTJXZfZm+WSVZ/UJWIINglfZwdmbs9/nRObszBnMTcyty1PKS8trEmoKc4Rtk40mT5vcKbITlYi6pnhMWTOlXxwq3pGP5E/IbyzQgj/y7RJryS+Sh4XehRWFH6YmTD04TWOacFr7dNvpi6c/Kwos+m0GPoM7o3Wmycx5Mx/OYs7aOhuZnT67dY7ZnAVzuucGzd01jzIvZ97vxY7FK4vfzk+c37zAcMHcBY9/CfqlpkS1RFxyc6Hnws2L8EWCRR2Lxy5ev/hbKa/0QpljWXnZlyXcJRd+HfPrul8Hl2Ys7VjmumzTcuJy4fIbK3xW7FqpsbJo5eNV4avqV9NXl65+u2bSmvPlzuWb11LWStZ2rQtb17jefP3y9V82ZG24XuFXUVdpULm48v1G3sYrm3w31W423Fy2+dMWwZZbW4O21ldZVpVvI24r3PZ0e8L2s78xfqveob+jbMfXncKdXbtidrVVu1VX7zbYvawGrZHU9O5J3XN5r//exlr72q11OnVl+8A+yb7n+9P23zgQeqD1IONg7SGLQ5WHaYdL65H66fX9DVkNXY3JjZ1NIU2tzZ7Nh484HNl51ORoxTHtY8uOU44vOD7YUtQycEJ0ou9k5snHrZNa755KOnWtLbqt43To6XNnAs+cOss823LO69zR8x7nmy4wLjRcdL1Y3+7Sfvh3l98Pd7h21F9yu9R42f1yc+e4zuNXfK6cvOp/9cw19rWL1yOud96Iv3HrZurNrlu8Wz23c2+/ulN45/PdufcI90rvq98vf2DwoOoPmz/quly7jj30f9j+KPbR3cfcxy+e5D/50r3gKfVp+TPjZ9U9Tj1HewN7Lz8f/7z7hejF576SPzX+rHxp/fLQX75/tfcn9Xe/Er8afL3kjd6bnW+d37YORA08eJf37vP70g96H3Z9ZHw8+ynx07PPU7+Qvqz7avO1+Vvot3uDeYODIo6YI/sVwGBDMzIAeL0TAGoyADS4P6OMl+//ZIbI96wyBP4Tlu8RZeYKQC38f4/ug383NwHYtx1uv6C+WioAUVQA4twBOnbscBvaq8n2lVIjwn3AluCv6Xnp4N+YfM/5Q94/n4FU1Rn8fP4XVkl8Y+hXWEwAAACKZVhJZk1NACoAAAAIAAQBGgAFAAAAAQAAAD4BGwAFAAAAAQAAAEYBKAADAAAAAQACAACHaQAEAAAAAQAAAE4AAAAAAAAAkAAAAAEAAACQAAAAAQADkoYABwAAABIAAAB4oAIABAAAAAEAAALmoAMABAAAAAEAAAOoAAAAAEFTQ0lJAAAAU2NyZWVuc2hvdNjSbjwAAAAJcEhZcwAAFiUAABYlAUlSJPAAAAHWaVRYdFhNTDpjb20uYWRvYmUueG1wAAAAAAA8eDp4bXBtZXRhIHhtbG5zOng9ImFkb2JlOm5zOm1ldGEvIiB4OnhtcHRrPSJYTVAgQ29yZSA2LjAuMCI+CiAgIDxyZGY6UkRGIHhtbG5zOnJkZj0iaHR0cDovL3d3dy53My5vcmcvMTk5OS8wMi8yMi1yZGYtc3ludGF4LW5zIyI+CiAgICAgIDxyZGY6RGVzY3JpcHRpb24gcmRmOmFib3V0PSIiCiAgICAgICAgICAgIHhtbG5zOmV4aWY9Imh0dHA6Ly9ucy5hZG9iZS5jb20vZXhpZi8xLjAvIj4KICAgICAgICAgPGV4aWY6UGl4ZWxZRGltZW5zaW9uPjkzNjwvZXhpZjpQaXhlbFlEaW1lbnNpb24+CiAgICAgICAgIDxleGlmOlBpeGVsWERpbWVuc2lvbj43NDI8L2V4aWY6UGl4ZWxYRGltZW5zaW9uPgogICAgICAgICA8ZXhpZjpVc2VyQ29tbWVudD5TY3JlZW5zaG90PC9leGlmOlVzZXJDb21tZW50PgogICAgICA8L3JkZjpEZXNjcmlwdGlvbj4KICAgPC9yZGY6UkRGPgo8L3g6eG1wbWV0YT4KDnIfCgAAABxpRE9UAAAAAgAAAAAAAAHUAAAAKAAAAdQAAAHUAAEa/TQvfiAAAEAASURBVHgB7L0HeFzndeZ/7p0OkARBggQJNhAkSLD3XkSKonq1LFu2N1nHsdPsJJtN1tl1kt04/83us9lsNpvEcboTO26SHHWKkkiREnuvAAmQIED0QjSiTLnt/55vKIkFJFHmDmaAc3dhoszc8rujJ+937nveoznYSDYhIASEgBAQAkJACAgBISAEhpSAJsJ8SPnLwYWAEBACQkAICAEhIASEgCIgwlw+CEJACAgBISAEhIAQEAJCIAUIiDBPgZsgpyAEhIAQEAJCQAgIASEgBESYy2dACAgBISAEhIAQEAJCQAikAAER5ilwE+QUhIAQEAJCQAgIASEgBISACHP5DAgBISAEhIAQEAJCQAgIgRQgIMI8BW6CnIIQEAJCQAgIASEgBISAEBBhLp8BISAEhIAQEAJCQAgIASGQAgREmKfATZBTEAJCQAgIASEgBISAEBACIszlMyAEhIAQEAJCQAgIASEgBFKAgAjzFLgJcgpCQAgIASEgBISAEBACQkCEuXwGhIAQEAJCQAgIASEgBIRAChAQYZ4CN0FOQQgIASEgBISAEBACQkAIiDCXz4AQEAJCQAgIASEgBISAEEgBAiLMU+AmyCkIASEgBISAEBACQkAICAER5vIZEAJCQAgIASEgBISAEBACKUBAhHkK3AQ5BSEgBISAEBACQkAICAEhIMJcPgNCQAgIASEgBISAEBACQiAFCIgwT4GbIKcgBISAEBACQkAICAEhIAREmMtnQAgIASEgBISAEBACQkAIpAABEeYpcBPkFISAEBACQkAICAEhIASEgAhz+QwIASEgBISAEBACQkAICIEUICDCPAVugpyCEBACQkAICAEhIASEgBAQYS6fASEgBISAEBACQkAICAEhkAIERJinwE2QUxACQkAICAEhIASEgBAQAiLM5TMgBISAEBACQkAICAEhIARSgIAI8xS4CXIKQkAICAEhIASEgBAQAkJAhLl8BoSAEBACQkAICAEhIASEQAoQEGGeAjdBTkEICAEhIASEgBAQAkJACIgwl8+AEBACQkAICAEhIASEgBBIAQIizFPgJsgpCAEhMEIJmAY5kS6yO1vIifUQGTFyHIs0j480f4i0zLGkhcaQFswcoYDksoWAEBACI4uACPORdb/laoWAEEgFArZFDovynnayr9WQWVNCdkczfu4gxzJIC2SSPmY8eSbNIs/EmaSPm0Ka10+ke4g0LRWuQM5BCAgBISAEXCAgwtwFqLJLISAEhMBdCUCUW81VZFacIvPqOXx/NS7IjSgRRDlK5kqAsxDnSrk+Lo88kwvJN28jRHq+Eu133bf8QQgIASEgBNKagAjztL59cvJCQAikDQHHhl0lQlZDOZmVp8koO0JWXSnZXa1Efp00n4/I441XxCHeyTDJicYgxEeTJztPCXPv7JXknbH40+p52ly8nKgQEAJCQAj0hYAI875QktcIASEgBAZLwIyRfb2ZInt/QEbpIbKaKiHCsdOgn/TxOaRnTYSnPBvi3Kd8507nNbKbalBNj6CSjpdmjCb/om0Uevhr6nXsQZdNCAgBISAEhhcBEebD637K1QgBIZCKBFAtN6+epdj5D5Uot1shuO0ILCrTSJ8wnbSsSWj2zEAlPAAFriufORlhsrtbyW68QnbDVaKYDQE/g3xz1pB/+ePknVIUr66n4vXKOQkBISAEhMCACIgwHxA2eZMQEAJCoI8E0ORpdzZT7Mwuih59nez2elTFbdLGTSDvzKUQ5gWkh7LuFNnwmjuWicr6JbKqzpJdD3FuekgfnUPBbV8h//xN8Qq7NIP28UbIy4SAEBACqU9AhHnq3yM5QyEgBNKYgNPVRrHiDyl2bjcZFw9ClOP/T5lO3gUPkg7rClfK75q0gj5Qx4zAh95CxpmdqJ43QJwTBdY9R/7FD5GvYLmyvqQxHjl1ISAEhIAQuImACPObYMi3QkAICIFEEnCiPWTBihL56IdIYTkNj3kD6VOmkWfaAvJOQxOnhyMQ9XsfkivnyDg3rxwjqxqxio3NqtLuX/QgBTZ8Dk2jwXu/fxj91Yl2Ey907PZGshEtSbGwsv4Q/Pb6qGzSsyfj33FYrGD1owz8w+ji5VKEgBAYEQREmI+I2ywXKQSEwFAQsK5Vk1l+nCIffI+stloMC/KjUo7Yw8lFcQHZ15OyELHYXktW5QkyL5xV7/XN20yhJ34DVXfYYDjffLhuNtJszCg53ch8b61TUZO82OFGWifcqRY2PITJkz0JXOfEIyWzJqhYSc0Hz75sQkAICIE0IiDCPI1ulpyqEBAC6UXAKN5L0ZM7EY14CALSID13GnnnrCfP2Ck3qrp9vB62tFhRVN2Pk3FiD37QyDdzBYUe/wZ5uHk0A+J8mG781MFuraXY2d2ImTyjnkA4mJBKNjw9HCvJlXE8dVDTUrFI4aFMnF7jnb6Q9Jxpw5SKXJYQEALDlYAI8+F6Z+W6hIAQGDoCEIwObBbRgy9T9MhrquFTmzCevLNXoaI7C5XzMf0/N1hazLoSMs/vxZTQdvKML6Dgus/G95k7s//7S/V3YNiS09NJxtUzeOqAJwWwAlkQ6E64HU2vIQxfQlwk23gcZo3hTD09iJV08Pux5Jk6j/wYyOQtXE36WCTeSOU81e+2nJ8QEAI3CIgwl4+CEBACQiDBBFSVt61OZZZHj72B6rhGnsIF5F+4HWISsYjKA93/g1otVWRdhUCtLkWq4hgVnRhY9RR5Z63s/85S+R1Y2Niwrlj1lyl2/C00z+5VPnvyang6kIEkmynIfc+Np9JwPnx3Gzngbbddg+UFAt20yYfUGv+S7eSbux5JNvCdI4ZSNiEgBIRAqhMQYZ7qd0jOTwgIgbQjYEMkxs7tURGJZvUZNCVmk6dgKflmr4NAhB8c7ouBbDwl1L5WQcaFA6gQ28q2Edzy8xD8Wwayu5R9D/vJzarzFDnwEqajlkF4tyh/vj45H9XwBcq6o/lQNccwJgTCq1hJx0B6TSOiJRsuk11XR3oGmKPJNvTgL5Anbw4q6Zkpe71yYkJACAiBjwmIMP+YhPwrBISAEEgEAVR7zdqLFNn9PYjLc2RHWslbMB8icZGysQzmEJzOwkOHjBNvkXMNlo5R4yn02K9SYMWTEPsDVPuDOaFEvxcim33jRtkRipV8hIjIXWj87CYKBSCuZ5HOzZ05MzGICYK8lwq43dEAYX6JzMsniLrDqKhPoCCSa3xz1ylxnujTlf0JASEgBBJNQIR5oonK/oSAEBjRBNhbbl4+Rt0/+58q1k8bFSTfikfRpFkw+KqtSiiJUPTQT8iurlFpLBnP/A685s/je2/6i3O2pUS6KPLe31Hs9HvKzqKNgXUlr4B8RZuQQDP+vtdodzSScekAquYVRFEH0ZLLsHB5AtNSH8XnchgsXkb0f11y8UJg+BMQYT7877FcoRAQAkkkwFF+xoX9FEZEIpldpI2fQL6lj8ITnTdgb/knp8/pLEgjiR19BdNAy4kMi0IP/zIF1j6HCEWIVg/EeRpvVhNsOmhuZRuQWQ8fvQ/e/Px55JmxDPwmolJ+//hDzjq326rJKD1Idg0sLaPHYyDT88SWH83LufHDOFoyje+9nLoQEAJxAiLM5ZMgBISAEEggAaNkH4TlB6j4vgsLhgdTPmeRdy5Xe9GAmIgN6Syx02+iCfQiOZ09FNz87yiw6mmV303pmj7CQ5TC18nAk4bIRz8iGwLdsbtJn4RhTDOXk3dSUdy60peC941EHKME8YqXzquklsDKpym07SukjUG+uX/kDGRKxMdN9iEEhEByCYgwTy5vOZoQEALDnEBk/08odvIdMmtKkFs+QVkpeKCQFhyVmCtnYX7hAwjzYnJa2iDKn4FN43Hy5mOSKCZgpuXGvvyaC1jQ7EaSzb/isYCJDPJx5FvGTxomq2FB/b0uo3QfhPlxcq53wgazOR4tOR2NozwZVDYhIASEQIoSEGGeojdGTksICIE0I8CVWtOg8M7vUgzNmTZGx3sK52Kg0EbYKXLiNopEXBKEOXuoratoLG1sQiTgI+Rf9gj5CtcM3sOeiPPr7z44VSUG3/yBn8YtLLguLQdZ5FPmIKN9DelBZL4PwH5iViH/vOIU2Q015M1bBE4PYfDQg6SPy+vvGcrrhYAQEAJJIyDCPGmo5UBCQAgMZwLc9Olcv0Y973wHUyrfh5gk8i5YhWrtA3FvdKJSU1iYVxyDxxzCvKYGed0PUIDzuhfgOKHRaYfYQbOn3dZA4Xe/iwXHEXKMHvLMmkfeGUtRNc+HL39gvnmrqZysmvMYTlRMnqxpyHxfS4H1nyVPbkHaMZITFgJCYOQQEGE+cu61XKkQEAIuErA7mshEtZcrv0bFcfiZR5O3aB35ClbfN0mkX6cFYc7Z6NbVsxDnFchGX6NG0HPVXMvI6teuUuHFqlkW8YjRo6+R1XQZVf8AeRdvIe/0pfGc8r74ynu5EBWdiAZSs+QQmkizIfQXwWf+i8hBh19dNiEgBIRAihIQYZ6iN0ZOSwgIgfQiwAIzdna3+rJayskzeTqGCq2AjWJeYi+EhXn9BYhyCPPyMgjYJWrAUGDNM/FJmIk9mot7Q8SMhcxypKdE9v8U1e0L5Ghh0qcWwi+/HHnlMwZ1bKeng6zmcjJO7cJxfBjGNJsynvoPEOiLB7VfebMQEAJCwE0CIszdpCv7FgJCYMQQUJMq9/0IvubT8EzDXz57KXzSGCw0bmpiGbCebb6M4UWompcWQ/gXqfHzgY0vIjIxjRob4cnnSaaxEzsovOsfYGGJwLqCyvbCreQZi2jJELzlg9gcI0p2y1WKHXmDnB6DPOOnUuYLv4dhTysGsVd5qxAQAkLAXQIizN3lK3sXAkJghBDgaZXht/8fWdeqiRC37Vu8VXmk9czsxBJgYQ7BaXFz44XTiEnE8J15G1VON2d2p8vmRHviEz7PvE+xUzthw/GjWj4LTZqPwXqCdBkdJv3BbGgqtdpqKXbgJXI6EL2IHPTML/x/aJJdhb0O0B8zmPOR9woBISAE+kBAhHkfIMlLhIAQEAL3IsDVWaP4Q+p57U/IRh63PnYU+ZCdrWflQmQmODebhXlbTVyYl5xAJXgGGkw3UPDBXyB9TM69TjN1/oYJpnbnNWSW/5CMi0iYabgMUT6VPNMXkS9/5eBF+Y0rtdvr4PmHMG/rUAOYMl/8NppA12AQky91WMiZCAEhIARuIiDC/CYY8q0QEAJCoN8E4Pm2O1vIgL+8+/U/RTHWwmCcyeRf8zzpIVTLE12cZWEOwakq5sXHyJONxJGi9RR86BchzCf0+/SH4g2cYGM3XaWeN/4PGmbPkIPccu+itfDLL0a05MSENctyA2js0MuwtLTBGjOWMj/3B+Sbuy59896H4mbJMYWAEEgqARHmScUtBxMCQmDYEUD116y9qIR5eM+/wJLhJX1KAfkXP4qEERfiCyHM7Y565TE3zx9FdX6KEpuhh38pbYS5hcme5uXjFNn3EywyqtC0mgHrz4NomMUgJq8/YR8Ru6MRHvOfQZi3YEjRGMp8/ltxYZ6GsZIJgyI7EgJCIKUJiDBP6dsjJycEhEDKE7BNMkr2qzSW6Mm3McBmLOnT0JBZuAFiMCPxp8/C/HpjXJifOwwxPhlicy2FHvkV5aNO/AETv0fj4kHV9GmUHYonsUzOxzChdQlvlFXC/Oi/kX3tWlyYP/e76ulCOsZKJv4uyB6FgBBIRQIizFPxrsg5CQEhkD4ELIOiR15TwpwH5LBX2jtjCfKyF8Jfji5QFza7szkuzM8chPUjVw3PCT32a2kgzHlV4VD00CsU3vt9VP6b0CA7lrywl+g5M0lPcA67EubHXo0Lc/9oynz2m3FhnjnWhbsiuxQCQkAIDJ6ACPPBM5Q9CAEhMJIJmDEKf/C9eH55XRl5CueSd+YKlciiudRkaHddiwvz0wfQ1DghLswf/0bKC3MVYYgpn9HDP6PowZcJM0zJM20m+TiJJTAKNpbENmXGhflrEObN8JWPukmYJzgpZyR//uXahYAQSCgBEeYJxSk7EwJCYKQR4Pzt8Jt/roS5fb0ZOdzLyTtrjUoBId3jCg67q+WGMN9/Q5ivoZAS5rmuHC9RO3W628m4dJRiJ3dQrHgvpqOOwhCmReRfsD1hDZ83n+sdVpbP/Oe4xzzBlfmbjynfCwEhIAQGQ0CE+WDoyXuFgBAY2QSQyMIJI90vfZti5z4gQvXcu2Iz+Wavj9tYtERHssRxc9QgDxgyz6BijhQTjgAMPZb6FXO7tZYiHyIisewwstgrEY84E1+LyTvNnWmc8VSWV9D82XojleX3wQqpLG54/0f2fwly9UJACCSIgAjzBIGU3QgBITDyCDixCDmokne/+icQmweQj62Rb/mD5Ju1NmFZ3HdQZZv2xx7zs/CYj7nhMX80tT3mbGOxYPUJ7/hLMmsuICIxQr6F6zEddZ66hjuuMwG/sNvrkWP+U3JaO0gblU2jXvwjZfuhBFtmEnCqsgshIASEgCIgwlw+CEJACAiBARJwutrIarxCPTv/GnncpxCVGIRfeht585cPcI99eNvtqSxZSGWZk/qpLNzoaV45ST07/gpNn3Wkjc7EIuYxTC6dldCIxE8I4mkG573H9kOYt3dC/OfEJ3/ygCFtkFNFPzmIfCMEhIAQSCwBEeaJ5Sl7EwJCYAQRsFtqyKg4TdF9PyazqRRRiTnknbeJvFPmu0eBhTkG5ygry3mkwHycY74dOeZZqTtgyAQno+Qjih59nRy7m/SJeeRdgOxynH/ChzAxfcvChNRqih18hZzOMDhNIjX5c/Yq9+6N7FkICAEhMEgCIswHCVDeLgSEwMglYNVdohjEJjcz2p01pE+egcbP1aoK7BoVCHMLFWc1+fP8MdKzp6KhcT2Ftn8VVeHUFeaxEzsoeuJtYoGujQmQPmMhJn0uIT1znCuoHPj97ZYqih1+jZwepL+My6PMF/4A92eFK8eTnQoBISAEEkFAhHkiKMo+hIAQGJEEzMozSmzywBzHaCNP/gLE/y1K+KCcW+CyMG+vjQvz4uM41nSVzR3c9ovKrnHLa1PhB8fGCZsqtzx6CFM44cnnrHff3A1YVExBjGHIlbPkplzrWiUZx94iijikT5hBmZ/5XURZLnPleLJTISAEhEAiCIgwTwRF2YcQEAIjkgAPFIrCw2xePUeOJ4pBOaiW5xZCIE90jwcLc1g0VMW85CR5xueTb94GCm79ckoKc46TdDpbKLz7nyh67A1wsckzZyH5Fz6M5Jqga02yTqSTrOYKMk7sRFqOF/elgDKe/m34/91JgHHvhsuehYAQGEkERJiPpLst1yoEhEBCCRjFHyrBaTVVEmXo5Fv0IHzmUzHB0sXJkizMETWohPmFMxCcsyDMN1LwgZ9DdOL4hF5fInZmQ5RbWLhEUC03yvarpk9v4UpUzDdj94iTdCdRkuxuNOY2XSbzNGIsKQO+/7mIlPw67DMLE3FZsg8hIASEgCsERJi7glV2KgSEwEggEDv9HvW8/ZeoCF8jLXsUUkaegDie4G5ONgvzZghO5JhbpcXkzSsi3/xNFNz4IiIB3fFrD+Ze8qIldvwtePH3wVpSjnjE6bD8LCXv1EWD2e1938vDhayGMjKLD6AyPxaCfBGFHvoqeaYW3fe98gIhIASEwFAREGE+VOTluEJACKQ3AcTxsTWjBxnmbNfQJ00g/5rPYZDNaNI8XveuDcLcrL+oKuZWeakSnP4FWyiw5jmV1e3egQe2Z7b5hN9BnGRdKVws3eSZB7sPFhOesXkD22Ef32W1wO5TV0JW2Uk0mE4m7+yVFNz0BfJMmt3HPcjLhIAQEALJJyDCPPnM5YhCQAikOwGe+AkxHj3yGvW89r9hx0Bz4dRpFFiHqjX7pl2a+Kmw4dhm7XnYQ86SVXkZzYwryb9oKwVWPEFaposWmgHcMyfSTcaloxR+8/+i6bORKDNAvmUPK1+8FswcwB77/harEU8Vqs+RVXEBDbIF5J+/kfwrn0JiTn7fdyKvFAJCQAgkmYAI8yQDl8MJASEwDAjYFuIRW1Exf53CsLJQAM2F0yD+uGLuZrWc0bEwrzqNijmE+dVKNWLev/gh8i/ZjgFHY1IKrtVcRcaFfRR+92/JMZFdPgFPFVY+iybVXNe85R8DMGuLwQd2n5oK8k6eT4rR4m3oAUBuumxCQAgIgRQlIMI8RW+MnJYQEAIpTMA04Je+StHjb1MEaSPaqBDp0wvJv+zppAhzo+IYhPk5smtq4C9/QIly/4IHlI0mlagZpYcodu4D5TGnkIf0vAI0qm6BtSTb9dPkSaxmxUmyG+rJl78CC4InsYhZgyFMWBTIJgSEgBBIUQIizFP0xshpCQEhkLoEHCNKVnUxRU++Q9GDL5E2Nos809GEyRGAHs/9TxxVb0LV3THCyhLD+yPLwJeJ98Img7+rsBKuvuvYn8eHsfWBuE0G/5pXjqjj2/UN8Urw0keQcrKOtOCo+x87ia+IHnqFuEHWqDiFSZ/jyTNjMZo+F+M83bWx8CUa5YfJunyC7NZWCHKk1qx/HvdoEekp2CCbxFsihxICQiDFCYgwT/EbJKcnBIRA6hHg4TUmvNPR0+9SDNMs9YkTIPoWQBxvigvp+5yywwLcjEA01pDd0QD/9TVMp7xOFIVQh2DH/2APGobvQIwHMogguPUx41HtnaS+jIrjqJaXkt3UjCr94xRY/qiaaKkF3Be897m0W/7c8/ZfqGo5DxXyzJqDBsy1GCqUh0WG/5bXufGDUfoRmWXHkZjTBQ/+dgpu/hKiJWfiqUJq2X3cuHbZpxAQAulLQIR5+t47OXMhIASGiIBqaizeS7Gzu2DV2EP6lDxVjfUVrL77wByukMciajiQ3V5PTkeTEvHKk86VcVTFVXVclcrxP1xVv1FZJxtCHmLeuVFVd7rayOnqxFeYAqufJf+Kx8mLarRbUzT7i1kNFerpUP57ZuTYMfLO5+zyjThHLB50vb+77PfrY8W7yLoIYR6OUmDl0xR86CvKxpIqjPp9QfIGISAERgQBEeYj4jbLRQoBIZBIAk64k2Kn3lGi3Cg7BH95vhLG3mlL7io6WVQ74eto3DxLTmstKuSdpI0Zp7LH2XOtZWShOg7RqsG6wsIVopyFvBPrRiW9Sw3McbpaUQGGKO/uIicC+0vMpMCGFyA8n0Q+eFHc6pLICx3gvrgx1mosV/574/JhVKkD5F24iXyz17mbWPPx+YJd7MwOMi+ewpMJmwLrX6CMR381bvXhBZBsQkAICIEUJSDCPEVvjJyWEBACqUuAbSfRw/9GMVTNzcrTyqbhmQ7/dN48CM/eq8FsX1Fj4mvOqQvTx+croaj5Ajcq5RDkiFnk/xc3mLM256o5bC38xRV3rpjDj26cRzW4rpIobCiLRmDVU6Rj5LzaVwpgsxoryCj5iKKndmIY0iVYfThHfDX85UmYuskLGnCKnX4bFfOzYOlRjDKe+HVwxpMJN6MsU4C9nIIQEALpTUCEeXrfPzl7ISAEhoCA091OkY9+GJ9mWXeRPHMXomK+lDwTCu4u/GwbgjEGP3ncwqKPyoFmZPtK70K+18tSOt2Er/01pLKUQZjHKLj1y8rO4hmPGMAkeLd7Pa/bfmlWngGfH5GJrHXHaCdPwSJM3FyA/PLpt70y8T/Gn0x0kHHufbKulCMBZiwFMBWVp36KKE88b9mjEBACiSUgwjyxPGVvQkAIjAACbCkJ7/pHZHTvV7GJ3oUr4DGHMM+GOHa7IovqefT4qxguhEmakRiFtv+SmvqpZ02ETx0V4aHesABhLj1v/TkaWzFUCDGJvsUPkj5+hhLJbp8eN+ba7XVkXNxHTm09qvUzKLD2eQpCnMsmBISAEEh1AiLMU/0OyfkJASGQcgTszhY0Nv4FcU633dlE3iXrVcWcq+BJEeaHX8LwnMvKYx56/BsUXPe88qir5tGhpMU2kmg3mmJ3U8+r/wtDhaKk54wj/+rn4KXHEwKv+/5u9vFbjZfILEfjZ0snefMXqwxznowqmxAQAkIg1QmIME/1OyTnJwSEQMoR4Pi/nlf/hIyywxCiXeRbuYW805fBMz4awtzl00VFOnroxxDm5aqxMeOp31LNjVoghGP3wxbjxmnCB281X0Xj5ftq2icFPOTJm07+5Ri8pNhw2gwO7CIjG08zzOozZF89jyZZi/zzN5N/6XYMYtrsxhXLPoWAEBACCSUgwjyhOGVnQkAIjAQCdnsjdb/0bTIuH0NTpkm+tQ+jYr48KfncxML8wA8gzCtxbIcynvsmBTd8LjUaG9F0aZQeVjGS0aNvkJY9Gt7yuRDFW+NRjizKYcVRTazcyMq2H15MfPKvjh95ccG/G9gniT385qWDaI4tJ80KoFr+FPFUVG/BsoHtUN4lBISAEEgiARHmSYQthxICQmAYEEBV2G6to66f/iEmcJ6Er1sj/zrkiKNi3q9GzoGgYKuIGYMw/yHZ1dU4nocyn/tdVTF33ULTh/PlCabRI6+ScfYDLFqOkj51KqZ9LiKOkVSJMRbY4QmDhWQaq/aiGp6kIiIxCZQr6io2cvQEFRs50CFEVlsdmcgwt5vqsVAaQ8EHfk5NRfVMnt2HK5CXCAEhIASGloAI86HlL0cXAkIgzQjw8Bwbdo3ul/9YZZJTwEf+tU+qUfMDrfL2FYGaGBrtQVTjS2TXN6gqdMbTv43mxuf6ugsXX8f+8jAsLH+DOMc9sLRUkadoAXlnriB93HQk0KAxlZNp4EE36y/i/JEqg4WFalhFjKHm4e/hQUd8pObP+ES0a8Ex8VhJL2Il+9BYa7VcJQPTWO22NtJHTaQMePC9BTiHsbkuXrvsWggIASGQGAIizBPDUfYiBITACCHgYKKlVX+Jet74MyUwtYwQPOaPkXfKAtcJqImaiGqMHX+dnOY2NFRmK+Hpx4ChId/YooLBS90v/3cyij9CTGKEvMs3kG/Wmk/95TdOUi0weIHT045BSzwwCf92tSDFpZmctpa4jSUYJD17kspn9+TMQHMrhjCxcL+POLeayil26FXsrxvxjDMo47PfwtOMRUroDzkjOQEhIASEwH0IiDC/DyD5sxAQAkLgZgLc+GlVF1PPO99FVOJlTO8cQ76lj5B38tybX+bK904EE0DhoTZO7ySnvQeV6DzEJX4VzY2PuHK8/uxULVhQJQ/v+EsyKk6g8q2Tb9k2pKKsgG8c1fKbPeNsyYEliOAzZ2sO4csxIxiehEmneCLgxPCFf0n9i8mnGM6kBUeRNhZCPXsqKuFIePEFb90nTpb3ZTWUknHkbezDxj0phDD/fSya5qA6nwJRkv0BKq8VAkJgRBIQYT4ib7tctBAQAgMlYLfUQHiepsgH3yOrvQriOId8Cx8kT677HmYb1Xq7tZrM83tRZTbJM2kWBbf8HPkXbh3o5STsffa1anA5RZF9P4KN5TLpY7LIu2jrgJ4kqAUIV9OxCOFMcqezNX6e7EXPzCadfeijxpGeMRY+cgh0tsFg4wq8VXeBjJMfoLqegUr5Qsp45ndwbwri75f/FQJCQAikOAER5il+g+T0hIAQSC0CVsMVMi4dQQPmT8nuxgCbCXnkLdqEqZ8zXT9RG3YPtmqYFw+RFkMUIRorg+tfIF/RBtePfb8DmFfPqZjE2Lk9qHZfI33KTHi7V5EnJ/9+b73z76ioE1fVYY8hVNadWDc847Wohl+Cv78abhakt+RMgfBeggVArqqm804sLFqsmvNkXjgB8T6ZfLNXUWjbV5ClPu3OY8hvhIAQEAIpSECEeQreFDklISAEUpeAWYOKbMk+ih57A4KxlfS8fPLOXkuece6LP56kaaFx0rx8kjQH3vbZqymw+mkcf9WQA2MmkY9+RCbSVigAG8kciPLcQghnTCQd5MaedK6iO93woXdew7+tqomUkAKjZeXiqQXSX3JmqsFCVk0xWRVlsLHMQ0zjpvhUVGn8HOQdkLcLASGQLAIizJNFWo4jBITAsCBgwsYSO/eBqg47Tid5ps2Fj3o5Uj/yXL8+i6vG1YgarCyGhSMrPjxn2aM4/hLXj333A6C6jRjE6MkdFN75XTRdtpI2Pkv57vXRXM3OvPtb+/sXLqQjN57tLfzkwK6Hx9/nJ210DppEZ5HdUk12YyW+6slXuA7e+4cVI7a9yCYEhIAQSAcCIszT4S7JOQoBIZAyBIxLRyl28h0yLu4nxxMjz0zkdE9dlJDK8P0ukqMAzcqTyDCHhzs4QTV9+hZi6ui0+fd7q3t/Z6tJuIuiR1+lnh1/hePYsLFMQ6X6BcQewv/NkYiJ3JQ4x3CiWJjsSKfylDuttaiiX2f3CxpI0Uh6vYv8yx7D04RnwGYBaSFMZJVNCAgBIZAGBESYp8FNklMUAkIgdQh8bGMxy5E8wn2Hs1eQB4ks+qjxrp+k1XwFNpbDqBRXw0M9RQlP39z1OL77jad3uzgeKmQ1XqHYsTfR+PlDNGci5nD6XAjjp+5MY7nbTgby+xvJLuw9t9tqUC3HV2sDGkU7IdpNCm78AgU2fF4l16jhRgM5Rjq9h3kgrtLuRvxkB5pmYf0hTrjh1BvOicciSQuNIj0LyTaw9igmiV40pRMvOVchkKIERJin6I2R0xICQiA1CbCNJXroFQwXgp1ktI+8EMY6Gj85IcTtzWoow8h7VOqbGyE4Z1Jww4vknbUcjacz3D70XffP3m/jwgFYe96DxWc3WIwnD9JQfEWbEWeo3/V9ifyDimpsqUJT7H6yG5rUcTlGkqd+aoGMxFftE3nyg9kXi3EW3hwzGUGDLCbSWs2V6EO4jFjNa3GRDnGuYTgTPzXQsyaQN28ueabOU99rGVmS7z4Y/vJeIeACARHmLkCVXQoBITB8CcROvUuRAz9R4kcbi0i++ZvJg2xtLTTG9Ys260pUVKLd3kbe3CIKbv0ykkkWINt7suvHvtsBHFRoIwdfwVChD8msPk+e/FkQ5othIVkEgXxzePnd9jD433PuOTeFGmffI7sOE1FxL5Qw3/hifHGQpPMY/JX0cw+c244ptGYVkmjwBMfCUwOOlnRg83EsCHY0zfK0VXUfuGru9UGII3Jy9Hg0Dq8kb+FqDIBaceM+Jede9fMK5eVCYMQREGE+4m65XLAQEAKDIRA9/hZFP/qhEkSqyXHRNmUPYMHj9mZWnyXjzG411dI7ZRGFHv1VZWPRIbSGZEPF1oZtIrzzO2SUHYE4biLvgpVoiF2sFiu3DBVy8QQdeM25IdTgfPeWDsQjTke1/EsUWPW0i0cdol3zhFX46Nm6YzUgOhMpOFZdGb6/jCmqHeQQhjGFUCFnfz8aY1XGO4tzE8OcIhDsESTZWDoy8AvIO3MZ+eas+aSCDoU+RBclhxUCQuBjAiLMPyYh/woBISAE+kAgeuQ1iuz5Z/iaUZnNReVx6aOkZ46HEAr14d2De4l59RQZJ95T4oonamY8/VuICZyubAqD2/MA342KrIXBQj0/+2MyKs9A11nkW7UdzbCLk2qRUPnuN2IkKWyTb+ZS+O+fxeCnLQO8sBR9GzfawrbCNhXudWDrkFV/CZ8H+Ml1DZ9BVMRHjUbGe55qRuZhTPy5ZLuLE74OqwuaZK+xJ78N1XQ06SLK0jMFT142f1GJ9BHhxU/RWyunJQQ+JiDC/GMS8q8QEAJCoA8EogdfpvCufyQWg/rkSeRfjiZHWCeSIWqMK8fIOPYuPMUQwIVrMW7+W6jWT4yPp+/DuSf6JXYnBh5Vl1DPO99BfCGiCzMC5FuB+EZkiCc8jeUeJ2+1wVtdcRzDhS7BtZFJ/kUPkn/xQ/Dfw6YxjDa7rZ5Ujj6GOJn1ZRDY9RDq4XjD7YQppI+fhqbgHDQlj1ITUdm6ghGonDEJawtsLQYsP9eb1fRYq6qUKILqemA0PsOPqcx3X8HypN63YXRr5FKEQMIIiDBPGErZkRAQAiOBQGTfjyn83t+qBAx9GmIBVz6HgToZ0D9edy8f4sooP0LGkfcgtDTyzdtImZ//b6jWZw+ZmOImQzUFdT9PQcUThPETUKXelpQpqDfDtporUEGGjeUammIzcynA01DnYOjT5MKbX5a23ztRnnzagKhMWJnKj5OJybNO5DqsKpiAmpUNQT6V9IloQEaWvs7RkPdounXQDGp3NsdjN+srkODShX6AhVjMbEWKzefiT34krSVtPyty4ulPQIR5+t9DuQIhIASSSCCy9/sURoWYfb6emTPJz3ndHnh5dRcTSDi7G818ZvlhCPMPiFAJ9S/YQpkv/uEn4+iTiOCTQ6lM9zPvo/ETolgLw6tcCEvEKgjE5DajmnWYxopseaerG9ae2fDe/0q8KRZTQYfDZl+rotjZ3WqwlXn1LD4M0N6jQ0jAmYIGzjVo/kXzcT+sVFw9t683knnlKFnFsCDx5wlNzBnP/g6sMOOG7AnMcLhXcg1CYLAERJgPlqC8XwgIgRFCAGoITXTsL+/Z8R2II5s8swopsPbj5A8XMXAsXhSxhKiYmyf2wzIyhvzwT2d85j+rlA0Xj3zPXXNCTfTwz5S9QhsdQKb7KjQVFsar+Pd8Z+L+6FgG7DRnkaPOFh8bgnwRZTz3uypCUkUlJu5QSd4Tr8bQyom0FW6sNUoPkdWK1BWjCxXyCZh0OpM8mHaqj4aVqb+RkPx5glfdrD5D5oWDGM4URoziQtUw60XU5VCm/CQZshxOCKQcARHmKXdL5ISEgBBISQLs00UTXWTPv6Bi/teokGsQokUQ5p93/3SxILC7W1WF0zxzVA2I8S/cSqEnfzOpTZafXCiEHUr4iI18mSIf/kA1I+qTc5WNhRsK+1O9/WSfA/mG10rhDrKqTqMp9kMcNwMxgKshzL+pGN3L0jGQwyXvPRDO3bguNGvG+IlE6WGVuqIFYF0Zi5x4ziGfiFhKWFcGE6RiNV6G8EeaTgMGVmVOhi9/m/Lm8/5lEwJCYGgIiDAfGu5yVCEgBNKNACdiIP0isvcHaP78ezz+90CYz0ck3/PuXwmObXXUqwZH8/xp8kzMJx8aHEMP/1LyRPDNV8kskJWtFikf/JN6kuApKCT/qufct/XcfB5YIFgYLGRdPY3K72nV/Ogv2kBBcNFhyUjbDYtAtqxED+FpBHzlXClXT2jyC5ATj4FSaPLU/IjnHKR9yu5oQKpLKTzrJ0izg+SdsYgCGz+PxuI1aYtOTlwIpDsBEebpfgfl/IWAEEgOAVgmOIWEmz/ZzkJBTP0sWED+Fc+6fnzlCW7BIJkKDJEpLUFO+HyVPKImW3JedZI3FuU2YhIjB34KK8u/IZXGD1sPGggXPx5vPExWHDYL2OpzqJhDvFZeIW/+UmXxCaz5jLL7JBlLYg6HpzJGBWIxL2KaKtJXnK5WNHki2nByPppZMbUzJx99BWjwHKQo55O1u9uR0FKl8t+pB9Ys2GNC276ChJbNibkW2YsQEAL9JiDCvN/I5A1CQAiMRAKOEVXxdFGI0cj+H6toQE8BxOjSJ13HoXzUiMezkGNuXSnHgmC5EuaB9Z8dkkY9B4KO00FiGLYUK/kQlepsNMIuJd/cTa6zuOUAsPgYZfsgzIvJbmzCwmA77sd2lViTjIFPt5xLAn7gJzJ2eyNFj76O64KnvA7xj6OCsK1MRZPnWuSO5ya02deJIO0FTaDGKTTOdoSVt5yHVrGlRTYhIASGhoAI86HhLkcVAkIgzQioKjHGn/P4+ejhVyCYMshTsAgi5lHXr4S97dzgyPYGu7paCU8WT4HlqFD7Aq4f//YD2O0NFDuxg2Ln92Ly5HlU8FHNnb4YjZdLbn+puz9bFtJK3oYwLyXnejcFN7yIJxiPq6E5yciVT+jFcaNn1XmVvsLVck5icWwk/xQuUFz17CnxrPx7RCH293zUZxp5/MbxN8hp60TSSw5lPPEbWNw83N9dyeuFgBBIEAER5gkCKbsRAkJgeBPgLGmuYEaPvErRY6+jCW8MqsQQ5gsecv3CuVpvVhyLV4brG5Rw4gE6nMxCXkQ1JnmzeIGy+59U1dzubCTv3KVoSFwIm8WM5J0JJ4uYUYod/RkGC1WqoUuhR38Nnv+nUFnGkB3d5Vz5BF4pJ6RY9eWwr+xXkYh2Sy3uq4XklSlqwePJmRlP39ES6xGKC3NMET3+JoQ50l7GTKDQE79O/iXbE3h1sishIAT6Q0CEeX9oyWuFgBAYsQSccBf8zOdhM3iDYqffIW3cWGR2LyFf0QOuM2HhZpShioopm3ZzKwXWPKvEk69wNZEH0x2TucHXbdWWUvdrf4p/L0IAG+RdthX+5yLSM8Ym7UzY3sPWj9jhl5Eq0ohJlwHKeOa3IcyfAROI8gSLWLcujBcXTnsTRU/tJOPCfjR7nsbAKh/pk6biycimeBwiJnm6sanBRdebYGXZgXNgK8skZMD/mlhZ3IAt+xQCfSQgwryPoORlQkAIjGwCTs91VK1PUZR91ed2YbhLDhIyFmPC5EbXwXBl07jwAewsZcpyENwEy8aSh1WKhhKhrp/BpwdgMWxWnqEeFuZIRNEyA+Rb/RSSYma7P/3009PA5NXrZLXXkXlmF2wskbiofORXICrxBCNNRDlfjlVXhumpR4kz4a2mK8gXx6Cm/Nl4AjEfmfBzsODg4VWem648cd86PYhkbK8lE8OLnC4T2e/TKbT9a+Rb4P5iM3FXIXsSAsOLgAjz4XU/5WqEgBBwiYBqeMQo9BgmTMYuoOExd1JcmM9a69IRP90tj1GPndtJdk05OZ1hCj30FSXMPZNnuybaPj36rd9xGgsLyfD7f0d2Twvp48aTD153z/jpt77Q5Z9ujfoLxKP+NiDqb4779yMhl4a+AburjYySj5BVvgtDmkqwoIiRhuFB3vxlWPgVIFvc3ScQduc1spqvqCFDmuFV+ejBzV9CE++6hFyi7EQICIH+ExBh3n9m8g4hIARGIAEHIirGIur0exCmB0nPQ1LGDDQ8zlzpOg22HMROvEF2XSXsGwZlPPYN+MwfgSjGgJkExOb15wL4qUGs+EOVHEJ6FJaLGcrOo2fl9mc3g36tEpRXjoNJBekhDDda/KCqlnunLRj0vl3fAfvjkWxjVp1Dv8KbaogQD6zS8/JU+govcrTQGNdPw2qrQ8W+hKzyM3jaMUYNZwqseQaf6WWuH1sOIASEQO8ERJj3zkV+KwSEgBC4hQBnmHNl0zi3GznTx5FEMgONeUuSkkTC9pHo0VcgQmuITJsynv0m+ZdBmGdmJ922wZMoY+yHxph4bXSAPDPQ9AkO6lxuIebuD2bNeTIR1Wi3t5N34hwKbPoC+SAo9fFT3T1wAvbONhwTPv0oJqeyOOcGWn3iRGVfUck2mGCqsU/e5Y2tMyY+y2pxk4HJn2j69GOB45lS5PKRZfdCQAjcjYAI87uRkd8LASEgBG4iYF9v/jQisPpM3AfMEYFTXK7QYuy8E+nAFMiX0ORYjx90ynzhD5Qw19RwocQmddx0yb1+ywOWokdfQ254BWmTc8k7Z52ysSQ1NxyTR43K42SewgCemAlBvoJCj/+68khrGVm9nndK/BKVcsK5c+wlRyJyv4ITbiMKYYEzC8k2PEAIsYjJ2szaYthY9mPI0LX44oatQMjI13OmJesU5DhCQAjcRkCE+W1A5EchIASEQG8E7A4MfjmCwS+ws5j1mL5ZMA9V80XkhZhydUMKit3TTrEDPyG76ZpqBsx88Y/iWdPJbnKEsAzv+EsMWPopse/dM2cu+RZux9CbMUmp8CrObANBkolx+SCZxz+ClcerYiMzP/df48N3XGqUTMg9tkwsJMIU2ft9ZWHhxZ42KgA7UL4azqTsQEm8p1wtN06j8TMcjS9uHvs6mnjz0dCLJzGyCQEhMCQERJgPCXY5qBAQAulGgIfqRDFcKIYKo9V0iTyzF5J3GmwcuWjAdHFTE0c7m8k4+iomjyJrGhXhjOe/hcmfW1086p275shG9tmH3/s7VHrfRCQhoraRX66EOUc2JktQYqiQdb0BE1CPwcpyhvSxuWoKagiDcTRfMHnncSeie/8GCwq7pVr589mjb1UXY1Fhkz6tAJ7uFbiOPNL8oXvvI1F/5cVNrAc59EeQanMAe/WQH9GMGc99U4nytBvOlCgush8hkAIERJinwE2QUxACQiD1CdholIt89GMySjEqvaUConQJPMGLYJ/Iv/fJY2w8iyAlbCFu2cpADn+xRwVfLGh5miM3caL6q/FgHETkaR7E5PFUT8Tn2e31Kg2GugwVC5jx1G+p6Z/3PnBi/8rNilb9JTD4EZpg96rJp965q9H4uTmxB7rP3tQU1PqLZCHv26qsVGks7IsObvoSuCU50/0+53rzn+3r18i8cpIiB36KJx8VZMeuw1c+SSWwKF+5hpVOklxJDir3nGpjXjlK1oVzGCyEZJ1F24g/V0Nhj7qZk3wvBEY6ARHmI/0TINcvBIRAnwjwNMbwnn8hE5GJVkcNeeethDBHxXzcvZsN1VTHa5Xw8dZgiEsDLCBhiG0MlUHll2wIc6RxaCwo/QFVMdVCo1G1HKfGo3vGToJtA7F6bbVknN1DFPOgQj+TQg//MmIB1/TpvBP1Iru1DjaefWoQjll7Ni4qC1ZAGCc3wUNlul8+/MmwJTUBdfG2+FCcJDRMDpRn7PweNA7vQewlrCNmRE2O9S1Co2WSElhuPm/+TJrV58iC192urcXiYIlKtAlu/HzyB1bdfGLyvRAQAiTCXD4EQkAICIE+EOD87vCuf4C3GSkWXQ3kXbCWvFMXwIIw+Z7vZhFkt1wl9hNzGoeqjivbx8flUYhzwtfHFXRU2Lmi7qjKOv8JP/M+6qsh3DFtFHGAwS0/R1406SVzU9Xyg0gRQYa53VlH+sx5OBc8MZg4K5mnEZ/2ee5dCEoM4+mOolL+RaSJPIR0nIVY5LgziGcwF+hEusHrGmxQL2FhAxsU7Cx6zjjSpxZhUbMUsYhZyfPn37gQTvlRA6tqLmM4Uw8FVj6phLmvaH1KMhwMf3mvEEg3AiLM0+2OyfkKASEwJASs5ioK7/xrPP4/RXakBY/+NyBWDsJ8zIR7no+qeGPsOcW6ldjW/JlxLzRbVVibswC3YnGrCxoqWTQ53a34aoOnuwO/j+HvEOrdPaRn5SFreiUF1j6vLBz3PHAi/4hFA0/7DL+D62+4hD1HyLsQ1587577Xn8jT4MWLaoQ9Br99IxJqbJ0y4C33o2Ku4+lC0nzufb0o3FsLCzrzygk0Dr+GKvV5PBnxIqscMZvwlWujcpIuygkLPxufr9hJ5OI3NpBme/AE5pfweUb1HpM/1cKxr9cnrxMCQiDhBESYJxyp7FAICIHhSMBqqqTw2/8Puc9nyDauk2/pFgjz+ffP74aYZE+vqnxzZZz95PiCgQX/xgvlUJjxb25Uy4nTO2y8B+kjVmM5GgVLVKSdZ+x05S0PrMCkzWRmTXMKSukR6v63/6kq/9roEPlXP40BR9OwyIAPPkmbaoTFIsc4hrjG1utIYcmkTG6EXbhV+fKTdBp9Owzfd26wvHCAwrv/Eedbh/sdwxAh5N+jUu7JLcTHAP0EvDhL4sbDqrhfInbqHVirbjQTP/ufyLfggfiCMYnnIocSAkLgTgIizO9kIr8RAkJACNxBwEJud8/rf6oGwjhWD/lWwD6RN8/dCY2wsZi1JWSWwz7TVAc/cgFsGw8rIeqZVHDHObr1C7utHgJzH/Xs+Cv4o1G5z8kh/0oI8zG5apHh1nFv3y9Xeu3mCni19xJFNfIgb5vTWHyF8NsnKxXm9pO628/oDTAuHyP2lseOvw2LiE3auHHIfV+rFjTJHsj08Wna7XWI+ywlq/Q41gRB8kwqRMX8a7BGrUg9hh+ftPwrBEYQARHmI+hmy6UKASEwcAJWwxVUjP+Hql47mkH+VY9gIAyEeSBj4DvtwzvNugsYmY70jAY06eUWUWD1M0qIJnMIDNtYWGBGkV9OKJDrk2cgJvHh+z8t6MP19eclFrz6Vk0xohLPwW+PJJGCZRTY+GLcX96fHbn9WtNAH0KryivnQUIWUli0cWORe4/c96KtN2Id3T6JXvaPBzZmHfM7gc9TDXnGziD/gs3kX/4YPsuFvbxBfiUEhECyCYgwTzZxOZ4QEAJpScCqv0zdL/0RKtgXYZtwyL/2SYiZIjXwx80LMqvPkll2CA2kmM44dQkFWYjOWBT3VLt54Jv2HTu1k2Jnd5FR/BEE5hhkb8+DKF4FK8nom17l/rdmzXn4tfH0gBcpE+eo6ae++Q+ooTjuH73vR2Dbk1kOX/mxNxAxWQZbUpS8RcvIMx0WFm4WHoomVe4vhj3KvHQA0z4Pk9ODoUKFaym4+YuwRc3D04+cvl+gvFIICAHXCIgwdw2t7FgICIHhQ8Ahq+4Sdf34vyqhpQW85Fv/DHknzXVdZJmVJ5RP2emAr33mKgpu+wXYD2aTPnp80vBG9vwzPMnvotpaBnE5jTxoXOQ0lqQNxOErhbA0yg9BVB5CU2w3+WatUek0nry5SWVxT+ho9mQPt1F6mKIn3iKr6jz6C7pIy8kl7+w1YAZfOTLqk+0rV/hQxXe6WsgoQwW//ALuXSZsUdsp9NBX40OF/BjOJJsQEAJDTkCE+ZDfAjkBISAEUp6A8nqXUvePfh8WgMukZQTJv+EzKpXEbZGlpjOe36dSWXxzN1Lo0V9DdvoUnMOYJGDjMqtDPa/+CUVPolmwp4M88xYjQ309xNz45CWKqGqvhQXKbjLPHlb57/6lj1LG0/8RHBA3mMQG1HtBV9GYTVdVpTyy/8eKnZ6bQ15U9fXsqWpq673e7+bfOO3HrIWNBbYku7EZn90CCqx4goJb/72bh5V9CwEh0E8CIsz7CUxeLgSEwMgjoKZN1pRQ90++TRaaD7VRSCVZx8J8tuswjLL9GC60D82OMfiBMZ3xaUxnHIUBRC572/nCeJiP091BPW/+mfKYc3qMd/FaCPONqPzCbJ6khkvH4mpvK6q9yAEvK1FiPLDiSQo9/g0sDjCciaemDvXGMYRIjIkefIXYV27WXSQtOwtDqObAMrIBMYmh+LkOxXliYWN3NsOKtBuivArRnbqyAXHMpK8I5yabEBACKUNAhHnK3Ao5ESEgBFKVANsTzKpi6nnljzEgpoq0MbABrHk2KcN1jAt7yTgNYW7ZxFXizOf/C2wIaDhNwvh5u7MF1p3LFEHcnwFvt5YZQn75JvjLOQUleXeLFwhWU3k8nQaTKjlJhCMjedBSqmx2R5NqDA5/+APYnkrh546QpwBDmHg67KQ5Q3qaTiw+5Mo4/R45nbDWZIyj0LavkG/uOtLHTxvSc5ODCwEhcCsBEea38pCfhIAQEAJ3EOCqsVl5GnGJ/4es9hrSssYgleVpDGSZecdrE/oLWGhiJbBvnDyA3WoUWPUUZX7+D/EtZ6G7r4w5ItK4sB9+6R1YkFwmfeIk5ZX2YrBSMje20BiVaPqsukBOB/zl85EkgmmfHB2ZKptReohiZ95XDbJ2pA2Lt1HIun9Y2Z00D/LKh3CzOxqwWLhIZglsQJZH2VgynvltNBEvdr1HYggvWw4tBNKSgAjztLxtctJCQAgkkwBXjnniZ89bfw5LQD0SUbKRY/4EcrTz3TsNHlBjRCCM98BXfUw1WvpXPUmZn/lWUkQ5X5hZeZaih2DNQMKIY7SSJ38BIv8WIU8dEyJv37CIcGDn0JSthBcOt79g4D/zSHvj/PtIY6nGSXmRTPM5NRBHCcuB7zYx78TwJf58RI+/RbFjaPjsaMTnIxOswIknw2K6ZzIWUfe6GPPqadxLTKytx9OGnAJVKQ+sfe5Gmk0Cb9S9TkL+JgSEQJ8IiDDvEyZ5kRAQAiOZgN3eoOLvejCS3u6G8BqXQ75lyH7uTaAmChQSPuzIdTIvfoRK5xmVGe5f+aRqeEyZK0QHAABAAElEQVTUIe65Hwht4+JBCu/8LqrlEMSwlPtgY9Eh7HR43G/f1ETJnjZEp0RV0yOx9xt2G83jjyeRwJOusf2Gq/392SD2LQzFMY6/iYmVraQHsij02NchLtejoXJSf/aU+Ndi8RRftCEaEUOEeAgTIbHHMwO+8qLNsIyMjV974o/ctz2CncNTWy9+qLLfnTD6FIo2qac9vplLVK9C33YkrxICQiBZBESYJ4u0HEcICIG0JWC31JBx6SiF3/97iOUW+HInkg82Cg9G0ru1xRseUSnmeLvSC1gM5ClfNaeyuL+hWxDxerHT71P3z/6HqtzrOWPJt/o5RBPmxBs/bzsJNfyn+hyaC6+iaTQGUZoJTzoSU0ZlIyN7Ar4m4Wc0raq4wL5XafmpgXWtkoyjb6ERNYpq9GTK/Oy3EJe4Mik++9su89YfLeSCw08efu/v4S8/T3YYC4fJU5VFxDt9WXwR0vdLvXXfCfiJvfn29UZETH6E6MararBRYP0LFEISixZCBj0vnmQTAkIgpQiIME+p2yEnIwSEQCoSUF7rssMU2fMvEKltpE/IQxPkNvJkT3HtdDkJxm6rJfPyYVQ7y9FAOIsCmNAYfPAXXDvmJzvman1bA4T5u9Sz46+QKKJjmNJU2HeeIT2EmMZeqt42fODsZXY6m8iJdKNqbse/uGrrWKqKrunwWgdHofqPSjJEuj4KkYvcyHqPgTucdGLVwx99/iAOC4vI1CJERn6dvNPmD7lFxMKwKfaWRw+/ikmfTbg2H3nnIq8czan6mImf4Byqb+zrzbCwYMpnNYZidZtgtgDV8ifV54j4XiShT2Gorl2OKwTSlYAI83S9c3LeQkAIJI0ADxcySg9S5KMfYWDMddJzIVLnb0H1Ns+1c1CV4qYrEOXHIaxqMHYeogqpLMFNL7p2zE92jHhCs+I0RdHMGD3wEppdWRAXwsrysPK6f/K6Xr5xUEWmWDfZPe2ocLfD+tMKsd6CuEPYXKIRWD2C8Uo6Ku8sXlUOOYbd8LAiVU2/TaRbDWVkohJvVVzEQmgGohrXUmD9Z+GPntnL0ZP0Kx4khIVTDNnuMSSdmMgGZ6uPPpE/F1tJz4LF5nbRi4cQaktSBZ3vg918BVGbu7Bg6sCCajwFVj9Dvnkb8VlamCRQchghIAT6S0CEeX+JyeuFgBAYcQTM6pJ4OsnBlzGAsht2hXx4nOG3ZgHm0uZEe+KVYqTB2PWN5Ju9UqWQBBDT6PbGi4LYCYjOc7vJKNlHet4kTPxcSN6C1ff3TMN3zdVyB+KVMAKeIBCVWIfX2Yn1QKy3qUxt5/o1DCy6DjuKHwuciVjsYJopnkDoobEQtZ9eoVFxDIuTk2Q3NZEvfwXytx9V4lIfm/vpi5L8HQ/rsVtqKbLvRxQ7u1tdl2f6dPLMXqvsTb1lzDsWeODTk6yEFn7SYNaWkFV8CPdAwxOPOSr33Tt1ftzGkmRmcjghIAT6RkCEed84yauEgBAYwQQ4ncQo+YiiR18jR0c+dV4BYgPRfJjlnjhkO4hZfZasq2fJudYGMYqmPY4IhDB1e+Njh3f9A5JQ9pLVeIU8hUVIGVmmctsHLCw5ZYYHBYWvQ5BDnGM8PIt0XgSQSnPxoOqcCQ/7eHDNQ1U9Ww3kiSGVxrqEVJjuCPkXP4wnBl9Qth7lkXYbRG/7x6LDaqxENOJ7iEb8kMyGUkQjjkZm+RLyzVx5pzWHrTy4brbjONEuPCXIJW00PPfKEnTTCqS3Yw30d9wicPUksvfPkl1ThSZlLCTnrKHA5i+qqbH3sg4N9JDyPiEgBBJDQIR5YjjKXoSAEBjGBMzykxQr3oMq8tvkeE1l6/BiyA43Nbq1OeFOZHefQHZ3MTltXbCxPAxhikmNCx5w65Dx/bK/HLaTnlf/l5pgyZV779J15IXoZG94b/7yAZ2QKqwbypdus2Wn4TJRJEwUgm0mbw4abGeQFhyNxcEusi6XoNisUXDD5yi4/WsQtUPXuMiLFtUIvBMJPW11aKC0sGjBwmUq4hEnFtyBIm7tCePpw05y2pvRnzANlpcC2HKmwrufEa+g3257uWMv/fgFP63AUwrj7E6yKpH7zkksC7fGnzQU4olHRlY/diYvFQJCINkERJgnm7gcTwgIgbQjYFw6oiwLPECGAg5sHZjoOGO5Sihx62LUUJ3Lh8iqKSXqjMIf/DT5Fj2I8e6Yuunixr5wbnbteec7qLqeRkaiRr7lD+F6l0GTc9xhAg/OVfSPLS5YiDgYG88Nr7wwQMcoKucTkV1eQXYrPNKIaAxs+DwSRX4eZu4halzEORmXj6lKefTYmzjHCGnZyLRHI7CejSo/Kv53bHyNqJrbLZVqaqzTWht/QpAxRmXCqwo6GmITtSmbDZJYjJK9YNcI61GQgpu/RGyB4qcRksSSKNKyHyHgDgER5u5wlb0KASEwjAgYFw+oqY4xWDu0DJ30GfBbT1vSa553oi7bhkA2L8JKUldOFHYosPHzqHxuiU9rTNRBetmP1VRB5qVjFIGf3mqtgP87Gwk0W8mbN6+XVyfwVxCwdhjJLm01ZF+rJgeJIk40jEmfEOkmUmGQxhJY/axqYEzgUfu+K7bhoFoe4YFL5zH0qeYCaeOycF5zEd24Lu7bvkflW0UXwr5jN2OhgQUIxSDqUflXvvpxU/G5gnWHc94Hs+EpBE+mtTBMyKouQ6a8jvs2F82yL5AfizplYbnHOQ7m0PJeISAEEkNAhHliOMpehIAQGMYEYsV7KXYKnuKL++EP9sO6sCQ+1RE+aLc2u6v1xrTLqxBYHsQkfpn8sLF4Jhe6dUi1XxNTPqOw7HAMoGN1KNuOB02XnvHTXD3uzTvnYUVW42XYMT5AFb0LlegsCMstsPJsx+Ce9Te/NGnf8xMMC3n2PHCJE3rYF++Zt4i8s9bG02U8qOL3cbNaIZ7rS9HUehafJ4j7KbDCYOGjs82klyjKPu4WqtxCw+d5Mk69Dx8/eiGyp8WftBRtwDHm9nk38kIhIASGjoAI86FjL0cWAkIgTQjEEDnH0XjsLdayQmj0W07eyUWu+nXVGPozOzCwB9YHJ0ChR36V/PN58qa7Apnj/yIf/DOG+lQRjfKj6XQDjpnv6tOBOz4GEJhWczkWQ/BldyCeMjMHTZ9fVKPk2X+e/M2Brec8RY+9QWbZEbI66/EkYSyaYleRd8pCNbjnjnjEe5wkV88dxEnamGhqQ6TbXe1qiil71D0TZ+Od8Av11zKEhYLVWo1K+VkyS0/jnDLxdGUphbZ/VUVLarDOyCYEhEDqExBhnvr3SM5QCAiBISbAApGryOaVU7AvjEIiyyoloDRO1nBp4+EwseOvwfrAPuFMynjqP8ZjAsfkuHNETg9Bakj06BuYcPp3SEsJI8Iwl/zLn8ACBAOBfEF3jtvLXjla0GpCxZybbbvCKoIw9PhvkDd/cdwn3ct7XPsVN8Mih51TeSJ7vq/SZCgIa03BYlXlHvCQKeZtYqopUl2s+kuw62BaKpqJPRwbyVNS2a/eV3HOPna837yCRQOahdlb7pkyD09YNqsFjWr4FAuLax8R2bEQSCQBEeaJpCn7EgJCYFgSiB5/k2Jo9jOrzpOG0fReDLnx5MxEakjimvZuB2d3NFLs8CtoGmzBccZQ5vO/p2wcbh3TMaLICq9EVfh1NUiJAl7yzCgk/8rn4a5AlGFfReLtFzKAn1VUZP0FMo69C3uGhqr0PMp84fcQk4hq8m0DiAaw+369hbmY3Px7ZpeqmJPPgxz7KeRf8TQ84lmDyyXnZBorhsXHNTLKDsaHMCHX3TdvMz5f+WDeR+hYyPCiKnbiNbJqq+FfN9Eo+wIFEK3pmb4IiypMP5JNCAiBtCAgwjwtbpOcpBAQAkNJIHrkVYoegeipKyMtNwdj19ffGCTTSwpHIk4UFVCrvZ5ihzDQ6EYiSebn/5uycriVqsHDfpSXHskzxgUMFcoZp5pc/UVb+i4QE3Ht2IfyYNecI7PkBGwsE+DjXkEZj/zyDRtPH8VqIs4FVWi2FPHEV+PCAZXprudNhthdoOIjNS8Eb1/F893OR1W7Iyp60WoqV42v+rg8xCoiK38SbDt92D8PE2JPPjftUjcq76PGU2jLz6sUHxVxmeTFzN0uVX4vBITA/QmIML8/I3mFEBACI5wAj6WPHH4VFeUrpGEKpq9oMzzGk+87nn7A2GCfsJBOEjv4M6STYNIoRtdnvvhtDIlZjV26IEw5EaWjiSJ7v6+aPi0kh3hmzYEAXeJ+GksvkMyqM7BkYLhSVYXycPsWbFKJLByfmMyNmVg1JRSG596sKUa13iFvERphp8PGArsJ6XriTocXY83Ic68+h+zxTjSFYgE4c5VKbrlrxRsVd8JnxcTTBfPyUYj6RtKDOUiJWUGBtc9hUuvyxJ2f7EkICIGkEBBhnhTMchAhIATSmQBXTKOIyeNUDs/UKeRdsBVe5wmu+a7ZL2y3VFEMVXqn21DTGtnK4Z210h2MPJmyuYp6XvsTMivPIHc7Rr5lm5CzjUhIF5Nn7nYxsRJM+8S0VaetHRGR2+Bzf4x88PUneziOgUbP6HE0fKIS7cTaSePoyPmwmeTOhYUF9p4EbyrTHU2hxsUPEc3YgyFLU7EwWaAWgb0eiocJIcHGKD9C5vnD8KnbEPPLKbTtK0jvwZCmLPcGYPV6PvJLISAEBk1AhPmgEcoOhIAQGO4EuJIcOfBTpGg0wXc9Qw2U0TLHoSnT78ql87RNCwNpjGNvE0UxE2ZiPmU8859QAV3myvHstgYlyMO7/gHHrYAADpJv6XaIOyTPuHSNvV4I2zpQAY6dehPC/CImgRqY9vkicrifVyI1aQ2oWKhww6dKqEGeO2eqa2MyyDMb1XLYS3RUs13Z+Pp5kVR/EU2/lUhsqY83Gk/CQiCQcYetxTHQPFqHavnVM5gQW0VsgfFj4RDc+mXSMuF/T2LDris8ZKdCYAQSEGE+Am+6XLIQ6BMBiASoJKQ9GNyhhi+8C15VVSn0DHIQSp9OIHVeFN71jxTd/2M1kdJTMAve3UfiFgOXODjh68rWYJx8H4ZrH8TgLMp48jeRSrLEFSicNhPD0JzYqXdxvxHdN2EyeedtQQPiDFeOd7ed8mfNiaECfOJ12FiqsChATOT2r2G40ouwDSEVZjAZ33c7aC+/ZyuJWXEKSTzvgMkOTHvFPZg2i/xLHsP3GfhvwMXPP/9nx2kttcVknPsQthnOOC+C6J5+a6MpGj7tnjakxXxAdv1VxC8a5J+3kXyLt1EATxiS3STbC0b5lRAQAgMgIMJ8ANDkLUJgRBCAnYLTMdhny4/LOcJORxayNiobnmeuGMLr3IfGtOHAKrzzryny4b9CNCK6rxAxdEsRIcjVyER6jG8CZXe3xpv5zuwFYuSmYwBN6NFfI+/0hTe9KkHfYgHG+dzRgy/hmKiWjwmSZ+ZSHHM+sssxwj2Jm4PJn5zFbZbsg42lS1XJgw/8OwqseNI11ndcHhajdksdhfd8T+XWc864npcHgbyQfPB8q8WB25973BMLGecWfO0Omk85g9w370EsTrhqHj9ju7sNnvKrZBTD9tKBIUz4W2j7L6khVGyBGSn/bd5x/+QXQiDNCYgwT/MbKKcvBBJDgMt08S8W4zxcxm6+qjzVDiZQOhgfzpMOuVqo4xG5Pno8KnhTlHDy4F/iqYdui5XEXGj/9sJMYK3o2fGXSpjzkwPPvMUQ5k/diBB0oRETZ8gZ5lZjGXzDmDTqycKgmIUUeugX4W+f37/zv9+r2cuO+xuFXYNHzTuxHghy+JrZQz8qx73m1rucl90OS03VaVTLS0gz/crGEVj1FJptN9zlHYn/td1WD1vPWXW/OSWFdNzzuSvVQsWTnZf4A95lj7wYtrta0NTJ3vEYkoA24r+7iXFLCz6XJuwuViVY1VaQHshWi7fg5i/iqcrS+NOFu+xXfi0EhEBqExBhntr3R85OCCSHgGWqajA3n9kttYiG249cZTSU1V6ASjTjop3PBDqV4DnmLG3f7JX4Wo0Iv7Xws2IAjT80/B6fQ5TzoiTMwhxWFvLoaP5bDmGOCq6Lm42oRJNHtl84DCGGlI2CpRR84OchvhI7Vp3HzKuJlkdfo9jZ93Ff/fBRY+GxGFYIto24s+64KzkWwjzIx2lpwNOZSRRY86wS5Ym+7t5PIL4wNcoOI7N8Nxmw9tgGpo5mj4M9BH57xBe69YSk9/OJ/zZ2DvaidqSt8FTQ3Fl4WpULq0sU/33uI+viCXw+LSXGAyseR2rPWrVgvtf+5G9CQAikNgER5ql9f+TshEBSCKhKJdI4zFpU4RouIxYQFXM0vzlGD7zUyGr2wVPLWchRjBLH8BKC5VzPQOUc8XX6hBnkX7RVRbPpsLmQjur5MNl4uIwDy0D4vb9Djvm/Ka8xx+X54TF3c1M53rUlZJWdxBOKSagcr6QgfNaeyYUJPayNlJnIoZ8hBQQZ3Zi0yYNz2MfunbEi6aKcn9iYNefhL98Jv3REpYpkPPp1PCWYd8M6ldBLv3NnvDiNdCEW82cU5WhMDHjSx2Vhwucy1QSro9k32QsVPkmz9rxqBHW62siTj3OZMBNPUy4pD7xdV0c6hhz5l2yn4Jafg80MDcm8QJZNCAiBtCUgwjxtb52cuBBIEAE8JueJlixIrGtXIEga4Gu9Dl9rgLQsWFbYT64SISDM0ZjHg2ic7g71GjJRZfRlkK9wDap1ayDOV6jXqwSJBJ3eUO6G01Hs1jqMYv9nip58W6WVsK3BP/9BV0/LgnfYgki1Lp8Fz2nqqURg7fNoAkXVNkGbSn7hjO73/x7irxRPRmBjKYJlI2++imdM0GH6thsuVmNyJdtYjBN7UKyHjQWxfxnP/DbsUlOSki7idLfj+OcoevQNDFrCOfh00qcXgv2m+BMhHiY0BJvdCVtTA4T45eNggvhKCHO2t9iNVURhxCNi0eZf+ggaPh/HwmHk9H0Mwa2QQwqBpBAQYZ4UzHIQIZCiBFClZEHCEx+73/6/RH4NokjHaPAuVOfmIDd7NYThpFsi81RiCDemXTkOcVCL98N/Do+5F9VcbtTjiiv7z4eD51xda0M5Jj/+GKklsHqMGU3eQlh4INbc3CwMMuJBM2ZFMXmyC1Tahh9ea45NTNTG1XK2bYTf+1vladfGwJ606kll2dC8LqaO9HYB+BzyQCXr6mkyi/GUAAOVfEXrKeOJ31TNxr29JaG/4+M3VShfuVl+XJ2LPmECmmCXYVjPmoQeqt874ycJ8JMbR95UCwU9axKZ59Aci//uOLYx9NBX4T9fh/s2vd+7ljcIASGQegREmKfePZEzEgLJI8CZ0ec/oFjFUTJRLdencuoHhMCJtxCVlwdLw1J4bG+tWHLOMsF3bXdiKuK1SrJrLiLnuRNCHGkeiPULLH2YfAu2QDTg0X8yM7BdoMb2AfU0AY2RRinG1I8bh4mYK+CtX+vC0T7dJXut48K8BNVrxPTN30T+FU8kVJjHzu1GTvf7qp+A/Dbpk5DPjgWHnpWLe6l/ejLJ+A6fQ572aWLap321Eou7ZRgs9AAF1n1WxVK6fQp2RzOZV05iwuf3kHSCSrTXxtMDPAHKm3v34T5un9TH+8fTBOtaBRln34s3WeNnu7EeFidMBp22gIKbv6TsPsPlKdXHly3/CoGRSkCE+Ui983LdQoATOWBLiez/VzJbMWp+GsaMs7cYwjt28PukGWEkc2DS4ZSFEEdZEGu3IeNYOaSHmHUlZNeVwfLRCkOsQ/6ijcrzyo/YOb0lnfOU1fXBQsBxgsaVo2jAy1Veem8+OLm4WY2XyUTF3Kq4QN6c2eTD0Bg/mvs88PMPervR6BvZ9yOKnXgb1WGIvNyJ6ro8kwqxvho96EP0dwcOzonzuK3qC2j8bMOkz8fVZ8iHSrD7nmkHsYjHETu4B/f5TUT3oxI9fgKy6h9ST36SOmDpLuCstloysTC025qJemAni5poCMYCEZnlfl4Ej8ViSjYhIASGBQER5sPiNspFCIH+E+DmTs6tjuz/Adkek/yPfhMNnePQ8Im4xLpiMk9DpNRfwmj2x8iTNRkCu5cqKg8gQr65eeUIbAjn0KSGzOUA7B6cu/3Ir6CSh8mRadyMxhMxjQsfURSDd8zqM/BfT1MNeN5pi/oPvB/vUM198Dvz9EtvDnzOCx6AWH00IcKch+ewjSX8wT8jfQRVWNxWb9ESiP9tQ5Osw/5yLBJjx9DjUHNFTfvkaEj1hIDtGW4O8+GYIdtRmeUxiHILXPTxY2EZWRB/WpQxth93zb2XciOqWQGLTU0ZElo64X8PYBrq55R1TEciUro/mXKPnOxZCKQfARHm6XfP5IyFwOAJQFDHJxtCjGgx0jDy27/0GdVkx9VLJ9xGseMvkX3pICL65pFn/AzlZ+31wKxtrjegQQ252+UnUdGLouqarRrS/As2q0psr+9Lg1+ygOWx7LFzH5DZeBFPFAoxaGYx/PRFrp69avarPgthXkreCSzMt5B/GQvzwfuI2UsdO7kTfQUfwlddpuIAedS8Lx/Dczh55/YnI65eKUQ5J9/0oM/hxBtIA2pGbrufMh7/DSxEHsOTmlGu2mq4v0ItTg/8FMk08G1bMfjK0VsBqxL73FOhWs7Td7kZ2IDlzGlpwt0IoAl0mZru6VuEoUPcD5Bs65HLnwnZvRAYyQREmI/kuy/XPjIJwM/LUwP5/9CHD/6QPMseQUPjJoi+2XFhdoNK7CxE+4UPSMPrdYxm92Is+F03NKjZ15uQFnEI1XZUPbshcHLRtAhxFVjzXLwSy0OI0myzmiqR0vF6PE6wrQKLjAV4CrAQXu9Zrl6JWuTAb21dLYMwn0O+hVsogPuk5wxOmHMSi/JS7/pH1exIGmIJZ+J6puK6cvJdvaa77dyGKLdbqzB+fi9RZxS2jEkUeuzryFLfdre3JOb3LHgbrqinBmqRgghCLWsMeecgm78ADZ9DkOPe24VxAzI3f5pnMeETFhYPej7Ye89JSJ7J+G9WNiEgBIYVARHmw+p2ysUIgfsT4LHyRulBeKaPkAHLim/zL6AChyFBKonj03KpBe+4WQGLysU9aECcijjEe09fjGd+t0DEfoTElksQNl7kfT9IwQ2fU02hGnLP022zOJFl/0+w4DiGKYx15JmzPD4Bctw0Vy/lDmGOnHg/mmo9gxTmFnoBYsUfIX3kB8qypI/FqHdYlVSD7xBZjqzWatXoalUWQwtDGCM3PAjh6UWTrZubY0TIxBCtnh1/pSIxyYsJn4VLYVfiJ0SDWwAl8rw5250bga3Ky3iCMBZPNpZQ6OFfRr/DTGVpSeSxZF9CQAgMPQER5kN/D+QMhEDSCLAoZ9909PDLZEWuEUGEeGdvVFaV20/C7m7FuO9zZOz5GzzWx/TJeVuUzaBXrzm/mf3mpoFx5ifQtHgaPuYWVJZnx6P+ViKGD0Ii3SIUrbpS5cU2MXzJibZg6ufa+LAZRNa5ucWF+RlUzC/dqJhvRcX84YFXzPFEg++Pyug+uwvNjkdIGx3CImMWKsRIYmGf8hDZIcy6C2hsPIg0lEZUg/MpgM+Kbx4+k0j4cW0DC7OqGA2feyly4CWwgZ1rXDYsQ1tRsUcKUTDTtUP3dcfcu0FYPBhYGFtVpUg+6kKVfK1a7HLTp0o9SrbvqK8nL68TAkJgwAREmA8YnbxRCKQfAfZM8xCVyAlMsRw3ifwP/ApEyJjeK28QczwNMvrGt9HQiSFCqJhrIbz2PhGIVksVBP0FsspPI+HFp6q8bE3wzlquPOzpRM2sxgCend9B0x0iIZ1u8i7eAotOIdJqEAXp4naLx5xTWWBliXvMZwzoqHEf93UKv/tdxGPugae7A375mSqnm205mi84oP0O+k0QyEbFCdg0cE7hmGq4DD30NWXRUIOtBn2AXnbAC0gjpia5xs6id6DiJCwso2DngZe/CIvPIHztKbDxFFJu+jTO70Y8YpO6R8ENnyf/qqeRFpN33/8OU+AS5BSEgBAYAAER5gOAJm8RAulHgDs0bYiy3UgYeYucscjjRjSidy6ax1TDXy+JK0isYJtBdPdfIDoRXuSJ+ahoTruvcHE44xzxbsbpnWS3d5DuH03BrV++UQUtSCt0XCnvee1/qwZB8jvkW8ENmLAQuCzerGYMGGILQ3kxKrjIF0cFOQBB5snFU4cBbFZzFew4R1UcoFlbApGnk2c+prUWrIL/P2NoquVY+DmxHjIwxdI8cwDnAOvT/Aco47lv3pi06R/Ald7/LWqaK2I+w+/+LRJ30PCJlBpPYREsNIj3HDcdp5Hk4Up3OWWeEWBeOkR2QzUq+mj4nDafAqufRVV/M84RU0h5yqdsQkAIDDsCIsyH3S2VCxICdxJgC4vViEY3PBY3Ko6RZykysaevgHf83l5au6MelcUfEnU0QGAH4zaOzOw7D3Dzb7gRlJtLL36IfHM0gvYYyIR+UDXz+Rc/dPMrU/t7NL0a5Seo5+X/rrK+tVEB8q95FnF67ou3+FOHYrIunYZlYQqeVqxVDX/9tnco8RuGKD9OkUOwL3Hl38RiafJ0JUQ9uXOGTOBx+o+NCbLmlWPoYzivmj654TP0+K9j4eCe8ORUGp54Gjv6BpJ20PCZAdFbtJa805eqJ0NDZen55D8G/u8HDZ9W7XkySw4SoeFTHz8TovwZfA7Q8OmmxeeTk5BvhIAQGCoCIsyHirwcVwgkiwCnsOCReOzUO2Q0IwdZQ+V33c+j+gpRdp/N7rqGtIwd5DSWQiB0wWqwDEJxwn3exZZdLAQaSlUko11Tq2L+2IoR2v41vBeVvjSo9n3cHNj90rfR+NkKD/JY8q97gTxj89Ql3BfCIF5gtdUh3QZ2oIvHkC2P4T+zVlJw0xfQmHj/e3bLYXHvrZZaFfkYfu9v8CdM+ISX2rsIlhx++jGEDbmKLzc1XsW0z9o6NCAvxeLtIdUsTG4l+PAgo4sHKbz3X9RCFeVy0qcU4Nho6nU5aeeW+3KPH3jBwhYyq/I0FmYXcY/QoIuFWejxb6jFi1q03OP98ichIATSm4AI8/S+f3L2QuC+BGxMdlRj5Y+/Cl/5BPIuRLrHxDnxaZ73eTc3gJoX4XFF9Y46m1FlXaXyne/zNnjLsRgId+BR/AEyL5zGo/egEl2hJ39TZVOrR/H33cnQvsC+jkUJmhJ73vgzeJI70Xg5gfwrUTHnkfUub7yQUgub4kOwmkBIcxIH7EA8sKnPG1fLEY8YPYa4R0QRGrCyKC81N3wWPQA7zmg08w5dhCV7qI2Le1HFv0RORzesOk+hsXEbfN7rb4nt7PP13u+FLHivVVEMza+RD/8V9xQTPsdlYZGyTS22tFDyJ57eccqwmyl7T/EucLkMLmj4nLeB/As5lecR9d/OkFf07zhp+YUQEAKJJCDCPJE0ZV9CIJUIoFrK4sNAJJxRfojMLthRkM/sX/Q4rAKhPokfu6cNkXKwpNScIYLtwIv390mYqhAQTAQth3+4+AAKk1HyzV5DoYe+ivHvM11vnkzEbVCWh5L9FH7/71EhR752LiwlSxAtODonEbu/5z64Qq+mfyK7WtMykJ6CSaqP/irsFgvv+b6b/+h0tSlvfGT/j+NPLrqQkpM/CxamRai8zx9SUc4JMWx3ip18C42NtaRZOgXxNIXjNbmXIeHiUy1SuiHKd6thUcb5vaSNySR9KlKDFj4U99lzr8UQb9yUa7VVw8IC73tbByZ6BvEEAQ2fzIUtLK5OQR3ii5fDCwEhoAiIMJcPghAYpgRUEyaG/kT3/ZCiVw4gr/zfw4qCBjfEwfV14+Ev5qV9yFFGckVbDSwVmIjYj6hAzmA2Ec1nNzcgnWV2fFrh/M0DbmLs63kn4nXmVURFYjom55hTwIEveybG1iNOL9PdRBY+dyfSSVYzvNAn3iWKaUqsZjz7O2riY1+vzYRFRAlRiFFuxiW/l3zLH4S4X3ajebCve0r86xzLwEAq2KsO/f/svQeQJOeZnvmXbTPee+8txmHgvSEMDcTdJXdXu1LIS6fVneJOUtzpdNLpIk4XupN0q7hVaINrpJW04koiuSRAEIQnBn4MxnvX472fdlWZWfe8X/ZgMTPtu0x2z59BEJjuqjRfZk293/e/5keudPkq0/thbtgv/yNLOE2hZSj7JjoXKyAtP/3XNKqfuhKNT2bOfATQpLhOW9arJrXs59TJDq0ZO7IZbcYxfoumg6TXhuf+uol/BwP9q5NL8j/yFfAV6GMFPDDvY8H8y30FBkUFtGyP2LNt809c2HrBOaa8uRUKkoFXLBeOXm5RM4FBe952pTN7nAPMZOes7R2VpWP/JmKUu8iRXUbJyM1d4+oe/g7UjJW9PIPavUw0lsLO94mKf5361UEjWeRyNCbV4GUbcMURp/DZj13pBjzoURPdsF/6hyb+63FqKtB77byB8vbPfwwoP+NcQwYQutRlZpDyqcYs3ZkLT/VqHd24CI/6MKspH+LVnQWAziLt879jVeX+ioDk6OIJRM/bXPvH/8VWIhzD8ezyh7mnK+Dwy8O9xg4nUFgimjHLANi/mcYM60gyBpSam52/zupTvbvjj+Qr4CtQywp4YF7L6vtj+wpUqALhhWPQF7a4ti9+7FIAyszCJ112yhJcJ/rm0RzdAOB9wVTzUpNLM3XMzADIDB/X67MWXSHC9s3i1ttZiR87zURsuUXwiGsNhnq4isK2t4hrJ4xnzwaXGj8KCshyps33GTe7h7d2+utSUHBO/+A4kkrD7e7u+uXMoYnyZz8kqAnhKV7zw175B8Y37rYxECingSoe3OiKom0w8Xd1eMlPxYVlyRM27Zcnfa238PwRdA+IPo/tAxhPMvBZ/zDC2ulLyntq1NHx3MqFpX3Lz8wyshTc4H5Ogsv+WCz47O4+lPdsutybKGfyrg+btiKG5bPGZ0y2iA1P/yWCoMbFbjFdvtv/wlfAV2AoVcAD86F0N/21+AqoAoCR9s9/6AqHPnZ4cpjYM7foqZ7BYCfVi66eggoDxxpKSwaAoCRPhQz1dhMY1XS0uPFHAHQoC4DSYd/5xy5/33MVmYz29rx687r2T6nhtjdt0pqeAnhk2p+ZjGi2DysOXz2O6iCXG3H0U3U9Cy/1+sK213HEOc1u6szRJicakDjYXWylZqhHpw+4tnf+wAUndiMkbHbpqdOMV56bs45mgEl5jYfDOvXg2FYoThtpOhAUT13u6taS9rn4IWwBp3dxZf38sXQW7c2uHcpM63v/jkn0TUS8iGnxhU+PmxUnnvZz12V7m3oHtBzFHfj+nz2OHiNwalxlHVm39uX4c5KA5qFs1+t35CvgK9BtBTww77Y8/pe+AoOrAkYRAJgV9rzrwuYLLr0E0dg0xH5jZ/T5Qsxn+gLJn2/+C4SCOegnWCUyyetTSqQt0V93hc9/AOg4K7c+N+zb/wspls/Hk+cEA4629//ItX/xMyaZh6GBzGaqC79+7PTYY7uv1aRZMgs8wn1U11S+waWoZXrkxHiKrWbnjloYv3/fBvysD9EYBS6/5kUTASps6K4tCsyBxYS+CBuLhzbxZ8SDwxvRBeBXT0ORHtmzzeVd+y33DwChmmAXDqBb2POZUTYUKlT/zF82uka3qwH9OBeFBxUPb8Yq9E1zY0nVZxF8zkMr8Izx2ntKse3HIfv8FvvMEigV7P8MulgrTdtIV//4nzdeeWayArkS0En1+ar8G3wFfAX6WwEPzPtbOf8+X4FEVUApiiyHn9oHAHnLBS3nnMNvO//Ar0MVQKzYD05xdPOCC3BjCd7/noE6CR/N5rCP+5JlXwGrxvD0Mefaiq4Ry0RZv6VHT+7XeVWr7K1v/I5r34xryNXzUIGWMMV8DDA91pqUPp+DgDlhNgG+3aUblw2Ey59aNAWJSVONY2KwnkP4KNCOjaG84IOT+Hw3Qfk4dxEazTJWGp6Pfb4trbUDsGlVAspQeO4oAPTnpLv+wiblqVHDCITCGpFJeXoktU4CvrMJNmmfe9+PbTQzhDate9k1vvzfx3SNcrqOSGdxmRUfeOVqWJSmmp48xQSfuXkP9PkWlv0NalJKOBfJr/4YnuWnjxPiNTp24HkaoTYWmT3qCcp+Un6HvgK+ArWugAfmtb4D/vi+AuWoAJNps/fb/zE0lh+49OpnXXbpc0x4EXsa2Ok7Kise+girxA3OnT3A8j+x8HiY3znV7c2pC2AWtEwvX+YbLa7hmb8CMMdLHdDoxLVO4gaQbvnTf44H+Ks2ic4uX8OU9ekOm8n+CSdLQbuBbUc9xAOPSFMt4ZZSar6Be2CIMHcS9IoZUFXmAtQRJAK+S6IBHfzEhft3QyEaYcC8kaAZ44ln81a56OpZRIM7uO80P2cOQYuAk96AWHUWMfMLH7GVifgZqH2hxaWOELUGBz9z4fFjhBxNc/n7v27PREyz6ftz2tVVGa3nxB7X+vN/4wLq4tKidT3kstOX20pFV++r2s/VpPAsFFk9CPZvJcCLhNz560n4fMVoU+nR+OXfsYpStXPzB/IV8BWoWQU8MK9Z6f2BfQXKVAFNTFmyt2TPs7tdpGTP5V9DqLkmpp308ctdAScCjcVdP3NR0xYm20wZAeYZaBz92cxLfa+CZPa70sUrru5RfJnhmOdIekzkRJBJa6nYHgPzL3BkgX+TXfkg1AKAuYk2+1OFjvcwJRUIV4qqqColOOeadpdab+oXvKjEMQD+Cv9pGGVgPDJRIBSYdoDllEVWuwxe8ALnUTO+12eYxJ/cC297B8FOrTiwAMqnYQXIa+M0S/ZXPrw7gIvn6oiaD44zHT62C5vEGyb6zK/+mqtb940B7bezNwdHtiJ+/QXiZZ7j9qs0PmNddtmTPMvUDq1Dbzadr+6P6FupumH8g3i6TLU0S8wz+xBpb2NF5Lw1C5Z8igg2NXK8raD05hxr+hoaWDUXJYm8eRZVL62QSeeiVR+r2agJsa5CjWQfV9tqem3+4L4CNaqAB+Y1Krw/rK9AuSpgoSTYwbW++z0CN6+73KPwdRFppof3PQjHbPqukRR65FMXkdpZunom9u4GnPeXjyuQGxzRhHSPi86cM+qCAIi40v3dZ7lq19l+DGgw0W559f/FLvEddJf4f698DCrL4529fMA/U+Oi6W546RhiyBMAVuwNmZZrQp4aOzUGOxdP0ixdA7TXG60oi/92qmE40+fTJvaMriAQzaZJ9sQ9ZuIseOUEQY2AU57BFzBBm/jUxT3vozdowiYxw3T4WwT84Bg0D2FquTYaHImOZRXZvvEnLjp/FLvLBgSwS/DxRyfRh4Co8DJ1x9bREcgl/rveaxqLLM46A0hNLSkZ9xr3TrW4wP0OeMYWrDeKlxqVRG8C49TX6bkFhEfXL0ETarJnUYm1RtWiwXTUKD1iLA0iTeJ0rDpZAVDarMvmEn15/uR8BWpdAQ/Ma30H/PF9BQZYAbNGPPKFa9/6movqc67umd9iQjU1/hLs474jpQ42bXLBph8CREYA8ua4zLjZNvnq77K6vsRtSnp8p4uOn2Ca/6Q5TljEeC8nl328jAG9PE7MPEKj84eIKD+FVz4MWtAjeJhXiJcsIMmU3oAOOoFSsYVJ+iVzsyldvwDQYaLe3AwY4jVRitsAaCeQx6guRQEkpuRyX5wwGVvEhYQ3LTAqTCrDhLJM090BFfTWmwF0IdSd4uZXAXGXeKZGu0Z5ly/CjQUbzXJtpbZmHICOu7ZP/putIpXCArSeudzDJ+HzS7zcu2m5zkfAPDzDSg+NT6nQzntz8NQXQO2a7TIK2urnBDi6cQFR8X6AOWFHrUWarUlG5xE4T48rXy3KVdMv99MByiPZsbJCE0AVCi/gJHPjkqUMu6DIs1yMX44DkE3N64cbTSu/5mX0DqtYsei7EP3L4/v/8BW4Byrggfk9cJP9JQ7tCohXXNwHt3zHmxheXHeZRY8AHha79ATi1xUoJEFhD3Hjoq+UmvG/PvQh4Hmbc4TSpKFLZKcsjkF5D+/vrsIlvqzDUySA8kUeNR01L25FjOfXfT0+t+7eXIPfaQpdPLLFLPaCUzsBYRNcdsED5mFe8dMxQSBhM63QAgTO8TIXTaDUAkVAVIGb8NGbAeKiJ2UB6HiUp0aMhm6Euwv8dGkKbFLeR/pSxa+LA2i6Gl4kzXTzG85hCSgw3vjN/9H41GXzVgc46v4Vtr/Nasd7Jp5NjR7JMVZBm3k41lv0oTaiG5kWQJPgFurP50T0K01+RfGSgNmSYGmWetUEddzf4MQ2Pg/bSfg8yf2aAq1rtat77NdsutyXxqEa982OobpKF8HfCxIZh2cPIVY9EINy/t4oRQV7Fl2elYScGkKeT1YFSu3QXODOp1zeVgRyy54wKpZd4wBWHKp23f5AvgI1qIAH5jUouj+kr0B5KsC3PF9+wan9uFx8CBh5iy/KowbY0nOWuDRAJLsAv2YoLea9DT86JR/rr4JsTcAsKZIvXEBosO1V566eQzQoa8CZgA5EiAPctP8Qm8AQIBIePWITUnk05+//RiKBuewRFSxU2EmU/dUml57GtBWrSFkO1mIzzj+gKESEG51vgqeP447x0AFBgPLM1MVYDc6D2oLLi4S+CfEqv7NWojmE4lTv+gRwyyoEYUINL/0d+/edr+33n3nWgmM7XcvPfsfAYylqBZR3JJ5C7+r3xkdNzZJ8/cOmbbaK4RpwvZmxjBUKvO3FP++N/kBglRWOwi4+q4f3QmGJ8G9/1PzKs6SeivqRqE26h45zDk5y7w5thLe/wVYk5ALl0gDwPH+vNECxGjMRbjz/IFxO8XdMKZDQ9xSvZbXhCtadNC/55U9xz/+28elt1SdRF+tPxlcgGRXwwDwZ98Gfha9Anysgl4/wzGFLppRNnmLYXS5i0s1SsabkstwDeKc0RZ0Ez3MiS/BM0G2iauO9mCsaHP8CsLHJRSSFitcsLmh6As4gLEGXw83jLmC+mPAUTcwTCsyD47tiiz3oQaXCZZeZx/L7NMBdP8Wvfb6xd75B7h3QgUoIRhWQI9GgqBCl6xeZoGO9qIYL68U0sfbpMdNj0GMAPUk8FvAdlBDZRYZN+6nlbGvQ6h765bLGzUsIW9z/iWv78PtMuKkNPu65lXj5Qz0xfvOdte3Dn2O60Z856kgP4AROoRVl56y1z5X86bvbNHVWcxIi+Cxdue5SWGWKZ1/3wCuxFWeH0053+6jm70z7AFWluA+HJgTG0Xl0ENBW4E8hMs7zzPG8jYE2h55Bqx62Onfr2cMpSk1IeJrrPU7Y1XXEvjQx+dUvoFvpPiirmtfoj+UrkLQKeGCetDviz8dXoBcVMB4tNnnyrBaNJQBEpoYztZqAgwqx8WbNJ/oDAM5pmof/ttOXJ57mcvsw4C5usygsiNtKV087B2UiM3UR+5jj0kTA95c/e+fpdw7MNTFPJpVFcfatb/6uLdm7HBZ2y4myV00IBKr5RqMl95bo+nn+OWvUAgF1TTVtAqlmyhxdAOqaXOofcc37yYUu5/UWj2x0Ic9pdOEC1I37CUwCoC2GdjVq4sAPo7rQwLTToBZ3vIMF4WcA5oxLT8HmczH3T0LYPlBYuj0h1R+xbgQtR/oOR7OUopnNTJhtq0xdef2rudKKVoClaenSeabKAHpWpuoMqD5WvvPr9uR78UutoknUifA7PH2IZmo3lp2ktPJ3hPQPqWEA8FFjYxoPbk3pUVB6EMZ2VV9dc3hiBw3ZPoD7KJdllaH+yd+kmVndi5PxL/EVuPcq4IH5vXfP/RUPgQqY4PPwFte24T+zZI9rBBaJmTlwygHl2WnLDIgJEMuGL7rMlOsi/8C9Ld2Ao1xAMNjYaJZmrr2dCStuEyQMZvEpNzpEmad2MTDf3UFlST7HvLj7A9f8g38W2+SNaoQL/w3jE/c0Da3VY2XcX1EssFWMLpykwWp2qTEEF+GGkWXSb+FFfRA8Vuo6CrveduFBViGa25iavujqH/1VaCCszLBKM+BNyae4/7S+/v9ZKJQa1/Qs3Gmgh5g9Yg+T7P4eP7x0PJ6AH97h0lPRZCgdVg1wJ5+hCM2AVgyC7R8xcI6MT96A+DU7U77qNA5J2WhwQlyeROcq7tmAcHuXNT0uj6YBIXRmzkpoXVhxomnozWa2kBL9fvFz524WuNbxrvGVv29T896837/GV+Beq4AH5vfaHffXO6grIPBRgrJS4AtTAjcD5WnEVeMmYgV3H5PduTYpjZkqMX+81I6jh2gQ/NtpQo7NGUg+Bub6L3GTh42Juehahi7zdDUWfwJITPzZxBfyo1BZmJivfSlZHHNNCi0M6V3X8qP/y1Yd0hPGkZ76S9QHN4+EWQ/eepCN5qL7KsGohKJMc81PWkJFhLey+UuNgp4EFSdtCaM0ZdVkuYjSAO2qsOMNFx7aw3OXdvUPf8fVP/2X4klrGezzLGQJeogsEotHWT3Kp11mwSqcdB40StZtuopbhSvDv2O7wJg7L3GurAANnOOycpudIgP94uFPaU5xJjp71qg1uYWECT3yXRPBJkHwaats5CEEpKQWafpDqCshYs9S+w1WBESVmg4djkYKHnm6gZUYqCu92WxAAIWn8NkPGBDgCU+TNOw7/xhnpmfL/ndNb87Hv8ZXIOkV8MA86XfIn5+vQEcFDJRjn1c8uMkcJ4oHENHl0nxhsoyOr7V5lwOwu90EkiL4oQB82wDiXS29d7ufPvzS7BKPbYVnCig5cdL45TmJPwkZSgIg+fJSRFFA+KqGp+Wnvw3ISjF1nu7q7v+2NS9fvi7B/2EgCGqF0jUjeXBfFWUCwa/oTAgL5SCiJszoLuIE4zVd6c2e25YrrriTRpK0zzTHr3/s1139U3+RBkHhRwPsEmg+ghPoAj79IaB8K+4h59BUTDNvdKV8VnqzNFMJW4/jsoIHfUaWgKI+AWC1WePEPSnufAsXliaavwgRJBoLhWwtfKA8KwYDuUg1pAQDhayomcMToUzWRNPkpfDwT43E9Wci9pCTyUYYN8uEnX29Z9p/+8f/maYE4bJLu2G/9n+4ulX4tZehKRvIpfv3+goksQIemCfxrvhz8hXopAISdwZN213b+3/EpPwIbiptABCB8uW4hkBD0URXQKenjekdcKHjVYCiAeKiHg+ngCH8wEM8j6Oz5wG6X7dpmfjFrpMl/572V7Hfs4QvgZuW8Nt+8R8AsnD2cWTJr3jBXDcqdtxy7rjj3pagdjglmLICYCBdPN9zx3g88EHHaSeNlkCCSAOPAwXGPZy/URnErYb3Xbp0DQrHAlf34LdN9NjDW3v+tUAlKwSFPR8YjSXC0lD3LbfiSWwuAcfSVlR6U81LckeCroXQ0cElTwNiNa3XplCl8BzprDTUpas3mTaPtNWCuvu/GesCvuqSZO+o8v/puefvlcLej0hJfSNeccH7PQV1JT1zgdmEpuXZnqeR6+eqkZ6B9k/+hICxM/ZXz7Dv/u+EKT3PMRCpV/ovoCqX0x/OV2CgFfDAfKAV9O/3Fah0BToAluLFizvfx2P7C3m3MckayXTuvnhSDlUhqZsmisU97wHMFdRy3bjFmhZmZ680T+jEnDecfAlpCzveNZ5yejz0Hiz9cgsfseX3xJxnb08EwFgCdBnFBYcSuWnI1cXoTFyrWWdCK0iL5gLwSslWUyCxzEBd3OrwpNxYdgL6QuqJ4HHNixY01dtL6fJ1XJ9ZheJZ3g6HOVXHCtJEpuXLnobrzfVUsfFTfSPSWwPsFCVozc5nGg6YDS82uYDnKrp8EVH1OMSoDxnHPjdvbQeVo8KdcVfFY/UsxFkmhENePLTZRJ7huSM0C0zJR/HsT47DxeTXHtut9qLp7+JY8cT8+0bj0fBg2Hf/KaJXTcwRJvvNV8BX4LYKeGB+Wzn8H3wFElYBTQSZAopL3v75j3BheZ/hHBO5sXxxTlvINGt17BZSo+/23lTLeNvbXnfRKdxfbra5huf+mk3LJPyrFPe3N+d152tEOShses38y4v7PgWUT2M1YgUuEvcli3Jz54n34c+3hKLRucOx7R1pokZxGTsVgSu2d3J0Ee1FdptlAugK6AkOfcY0+bBLRfW4sbwEleNJxMZr+nDmnbzUxM03XOsv/qMr0rSGeLynJ7OChOuH7AurLtbls6r6irIinUZ60jzTe5gTy87PwKM5zm25q3/iN8y7XeFENdk6OP/RtQu4OW0xWpytZtG8perycYIs6abZGSv48/CO5mEAZ8rxFNRU0MT8/EWm7nmoLP/UqDxJ+vwP4Ar9W30FyloBD8zLWk6/M1+BMlcA8KFgj7YNf4w7AhxtLPLMGWH2cpbK17O8DIhKeIKeRKeFjT8EmB1nWhuS9vg/MTH8mrkzaHqWlE1caNGElBgZntrnMvMXmaWbebpLFDsUNoXFCNAixizdvGiploqvN+EiACo9CS6xACU0EHuuynB/NJUt7n7XlS7w7NaNNWAqbrU4ywPZInzc5UTT9t4fuQDBp+g72WXrzF1IPPZagD6JQUVpiXAhkRBXWQClm1grnjpFTWe6/JJHY9HrcM6vRs+U0ZuunHXtm16lYdoMzYaGWdSV4Q00oku4/3DJR9GkyclG93+ATb8+V/LdL3z+p6yYISTFhWfYr/wj05oM5P779/oKDNUKeGA+VO+sv64hUQGlGIpe0b7ldb7oCfbIp/jyJG1QaY9whMs11axYsaAa2LTs8x+66JyEXxk37Jf/1w5+qb74B/itX8YTl6d762v/mlWJ90w0mV2xFpC33igRtQB5Zby0TnclgCaaixI5I0C6w5HDAqnEI0YUarZ/cuAwh5Fe6hc6OVJ44YgrbvkZx7nqMqOmu4YXf4uGBwehgfiXI9QNmnZAX/kZn49POP+zrCKNN19whUFpOj1QQNnJpfT4I4UQqeEJLOV2R9wcFGmEWtotWEdOJDnAeU1EzzRk8l/XdLx4GOqKQDnJnKUAa8nx3OdJUFemLIzdmVg1KddmK36IkYvb3sbzvcR9muoaX/4foPQ8XK5D+P34CgypCnhgPqRup7+YIVMBTTXbW3Ga+IFxnoPTB5i+IcaS28RS+LOKvk74pFz3wqZz18+54ubX4NgyLWOCOOxXAObYJSYJlCucpgQwbf7B/2lCQlcsuOzax1wOX+pULlkNRCWecSU0Rs2kUp7ej6UdE/Rrl6C2TLAprygZojRoghpztvs2RQ3PHsAq7yc0lq1mt6fGLDNtMfvsnd3eXdcLKBdXXu45rW/9HqD3KgmfeTjda5nCAywlVKzVZkLQiICjD11x6wYEuETa0yQo/Knxhb9FCukzsSC1DCsRfbpEVkgiJvfhqf38ffJOTInjnqdwdUqNQKuyAL/3SSQDY6dZ7obGgop4BoL9m/jID4d+t5RVk79A07u6T5fgX+wrcK9UwAPze+VO++scVBVQGJBEngUmgnJMKAWAmlnz+DJbx8RpRlk5wJUsTIS9Y3ie9MC9WDsGcGwnznENz/8NBIAPVPKwfd53HMR00rW89ttMEzeaDWVuDdNNEirL7eve55OrxhvEO8ZGU1QMAd0Sgs3oymnjTLu2FgA6Huis0JiPtRqV3rpzwLsOTu91xU8B5m1FS5Yd/qv/1MJ1+rsKUSq0xdxo3HPat/yUZkG2ltMAvS/Enu1VsIDs9pZwzcX9AuYfGDBXZH0OPn1+/Ss8T/fVhMKihkve5MVdcPEReGoVK9XIqsjkmeQfrAKcE4okfUEFmv3wHJ9/7FKjE4dZheE+LX0M8e9LNGeLui2j/6WvwL1aAQ/M79U77687mRWQ2BNOdmBhKX9qqXtRK9PLcRPMH1mpnjbBLXMIUKWKEZ4/TGPBl/LJQ0zjJrvcogdd/v5vISxbWqlD9mu/EUEqSjgUxzw4vQdLwUaXW/UM071V/drfYH6TOOgOgB5ekQ86ATNwuQWijX4BeFNyo9FcjMVx6gAAQABJREFU5IkunnQ3dCQLlzq9m4n564DUlMWxD/vOP2E6O6dfJbrl5d/22Y+MwhKe2hsLPmci+Jz/UHw+/dpzed5UEocfEaXErsHebVBqsrgPrXZ1D/8yzxIJn2OmlOdAvdmLVhZMOA6VCFAe6J8Tu3lnO0Cc+zhxJrVbYK5O5dITdHZaAuXB/k9p9C677NTlru6hX0Ifs5YBw7TOXu5/5itwz1fAA/N7/hHwBUhUBaBUhBeOmZd26zu/B5jBNWPMSJdb9hgTyyr5MperICzrB8e+wCoODvDVq3wpL3V1D3zb5RYw9e9lnHe5TqWn/dgS/+4PXGEr6ZRXTkCHGOWySx5hwksDQROUSnXYCHYDQns6xmD8/a1wHLM7ZNJaunLBpcbifDJ5LuB6YZwai8uGrSp0UhtrMhFDFje9BUitZzq70jV++38mgGdW38sh1xN5giPMFYUlOEmKaCpC8Hm/TX3Fhe+uSej7Afv+DhN/0oiErHJFJ0/TxJAce9/zruHlvxPTgKrlWa4GH81ECAWufeNPAOVfYNt4zO6T0mzT0xeb21B6+LjK1exLWs8GV9zxMaFmWGUuedwoPeKZK3HYb74CvgJ3V8AD87tr4n/iK1CzCsjzu/0TeOUIEIMjW/ETHg44hMKygGlgIzHYg8X3V8BA/uUHP3HB7s9A6CUcKR5D+Pe34S7jmY0zQ5K24NAmpymsporR9fNQWeDzjyYhc8xkO1/REWxKjC/1PUFtuXVzNHXVFBiRqCguEU4jornoz67A5BXgqTTIzLiZRoW4ExgrWEYuJcXN7zDNHmaiz8ZX/j7C5Zm3jtC7f+s8oLAULQQHetexHSZaTHGPsgRVyUnELB57t7fKvIomOrpJMu+ud/HrPsn58swj9syvJOVz+VMAYHHzU5U59lf3KgEqnz1Zq0oYKwF5CRtHlw4IlprNlHyeCccr/fdJLIS9ZH8HhAd2mRd6nrTPxq//Xf4bO84audJ8tVT+v30FklgBD8yTeFf8Od2TFSi1NbPce8a1vvP7fJl9DvjBxWI2S81MGW06OYjiqzVpja6eZkn/cxce2m+CNyX9NbzE5DCnCWs2OfeYJqKw813X9s4fMFU8AahpBmTWGSBN5XOsVDDdI0FSiZma8hkX1/y+EUQalSM5l1LRMxFAB/BpRSHCArF09aw1KVYPHFascWECaz7oHaBLIs0YmL9NrRqhddznGl/5B0zM+wDMJcxtuR6nsppw8T2mrwgXRyNaJPU2M3WJHbui196LncvZxqhbu5kOtxLgRGBTw5O/CX3rYZ6hGb3Yw0BfomYYkSd/h8Qiz3dNnyJRr6wQ0+OnuMx06DRj0QvITrLCm1YPwjN7jZYXnT7DKss8C5aqf/ovVfjIfve+AoO7Ah6YD+77589+CFVAASk2uWViHp7DhYWwj+zqp1imJyxFQLYKw7ZylVOT0uLhTQi+9uDGcs0oDHUA87pHf7VchyjffpjGtn/+Y9fy439hwDPVmEdMOJMwFKzk2tttci6HHFeAe93YyIR4Ko3SPCd/c8WrV2UKWr6rHfieoCjIBz1qFq2E+3vqoDkIpcdMBCiTRMsEPdU4yo4jV56QiXlh45uUieeZwKbGX/qHfaKy2D7OHsGv/A/NIlGe2Oa5PXsp6aHEukuwWG2Xk06qGJzYYX7q0Vk8y+vHGp++/pm/zDUv59VV+PDyHCs0SKsKbR/8R/77PM8zDUwdouv5K1mtuJ+6sQpUpUm1VlfkXx+daaJRCbFIfc7lcGNSuJTffAV8BbqugAfmXdfG/8ZXoKoV0LJz28f/xSKySw4njKlz+TLFAg43jMEE/mxaTtpjcec7LlKoTCnn6h75jssvI+1xTsLElKIf4ByjsJXWt76HfzcOHxMRqS59Aq4/7hUXoSTcIChm5FgTPUoEqamk0z8SRAJ0NIHMjJoS03MSABCr8tCKWkINSi1XLEFUYNlsC3FwcQ3D4ejDQ6dxiSPpjyL+/Ck1K7nstCUWLqPpqevJAUS+2y1QYVg9kpd/EWqXhJUOvWlmjibl8vKfw+UCequAe7uqq1E2RNk5+KkLj0AbwX0mN3+9q1uPyBk3lgH5tXd10Dt+rhUFOTkVdkNfkT/5yb08nxHPLfdi+lJzQ0rrGRUVrgp0GrNJRTws7/LoKp+f3AhL/M1Jt9EffcEd1+v/6CswlCvggflQvrv+2gZHBQRyWPYtEMLS+vb3+GLH7xvBZ3bZEy4zZvqX08fBcTHOJnWa+Ad7PsUAgjRJOOUNX/ubiD7XA2THJuoyxFsOcapQUI0841MjhjH1XYxg72UXXjvD1PyIiQ1Tw0bFAAuOuegZ4uzK91xAJzUCnjVOJSk8oFP1orpAccnVAYDgFN8Dm3HQReO42ESI1GED7Kk6qBOjAYL47SsBM9j1EfVqtyaz8Vt/D4cS3IU6pup3lwhKBoBcwUfh2cMxV/rgRjjbN3lPPSsVePnPf4D9QzFKgOZCn1ejsACIozMEHfE85Ne86Oof//PQn0ZxjjwLldrMf/86lJHDrnh0q1GywvNHefZCGkbcc6agT5nNiluFrBC7uiy5+QRn9rlw7+cI2LMGxkVjk3d5zbUAXZ20/7mvQEIq4IF5Qm6EP417uALQAsJzR1375tdd24b/RLpnxmVmzHX5ta/EX+qDxBrR7iA0h+LRTUwOEVFevAiYxcN5zhpX/9ivMuHEtzhh1yJwbYErO95lKvsRwrjJxlvOYb1HDKaLAOHR1VMuJMmxdI3rmUFk+QTccUZMhMqB1zeJhhEUpEhTdbjzlp6okJvR07h33VsJDqknXj7oCsWCgx6x0iDv6uhsE00LzQp1iG7IG/0mlpkTDLDmFj4Ye5nfVQQeoAjv86ZteIF/xr1h4mqUjDZAed6apuw8Qp8A9amMmp+7dlDdH3C6IVqK4q63Xen8Gc49Z5xy0TbyK57ueN4rd5KaTMtatbDzPVfY9pY1+KlcCuccqDTz1lHjRTyXCJZNeFq90gRHSRYlXTS6eAFq01xq8hCOTK9AAZvLuVSuHtW7Qn8kX4HKVcAD88rV1u/ZV6BXFdAEVkv1BZZ9BRJT48e4DBPF/JKnEgdku7ugePn6FEABUH6SqV0I62DhQ/iWf5Op3UrA7Pju3l6T32ny3fqL/2i83PDcQZeZBz0CnnR2Mk0EAEI0BYevfHjxKCDjWDwl5zoUtmNWc4TyRDcA6FA5LNKeJssoLkSap0dPojFhaowIMCWbvHsBkKiZQWyoemhq6lqhWNxgdQGbRU3MU1kEoITsiNakoJm0VlBUZzj8AuAREfFqUsMzB13AtFxNj8uVmLyzYjFlvgUcpcfiAGO88toDPLNvPMu5KkCrDdcT7nf947/ORH895zqrgs90CarVcVZ79sTOK3jwhxeaqBPP3QQ0EBLEYkmaxmu+ms+dfOtFaQoOfoxl5D4atYi/xx437/Ls9CWsIFRedFrBovtd+wpUpQIemFelzP4gvgJdV0BL/W2f/hCh1AeE3OyEP4ud2UzEWtNXVPVLtesz7Pk35gZxHerB8e1QPw4RSkNS6bhpTP1fdvXwy+XU0SOnuOfDlPcVEsvhYGFpn9glltoQqa58KPZ3hoLx1Wms/LhvucyIupGGW56ZthQghvUj12Z0BiankSbFV89hD4krh6wECVExykUDE15oMEZrqD2eLG8dO9ub6FnUKTy3n8n5Iagex21i7gohtIphNGwETQHOLXCHVRRRVyR+lkd5sQkrRFYjNH1P5bMuNQ7HF3zTszPuY+I+OjnNKk1IcApAjB1heOIIQmCm1LjO1D/7V12WJqJiz7scj24irBT3nr8zlBAsByc5CaWn4S8Pj1+ZAV2uTjHlZzmo467xMJbreWSXETaa4dn9rJh9wWeBFSYoXnUkntY/8Rvcy4bK1aSzZ9D/zFdgkFbAA/NBeuP8aQ+dCkh82Prm77J0TzoeU8bsMgSfcrcYPb18X5oVLld46RhhJnBKjwhUtQGgxri6BwkTQuyVnakGo0oezn24TrNzYzrb8uP/m0TEXSb8zN3/NRqilUZLuW1XHWLHCA/vkIj5CJcQ0TQyJCdaOqgBUVE5EEQCkkrcUwW6lJgWk3Ufe0dPpOHCsaTatILbrqOafwC4ClxrRcgcXA5tRJR4HPRGCWhmjPfcYQFaggrjWG2w1zM9T2G04obD95++iAnwHLQWU5mc09jYykM1L6KLY+naWE0p7nqLZ34XjUUbdI1HjFuupkM884pMqqlThE1lYdubrniAdFH0EVqpSo0m70A0K6grClqydOAuALetAkWsBNlnEgFzhtWcMmxqxKLLx2PR9yWcc9IN1nzlVz7D3wOPdhyvi5Mqw/H9LnwFhkoFPDAfKnfSX8egrYC+aFv+9J+bm4IEbrm1uJfMvA+Xj9hyLrEXJnCC8E3NRHiGyej5Y3wxX2EKOt3lmBzm132DJfUFMV0hgRcRXTplgrm2d//QhZePMeEe4XKrAeYdNJa7TrkDjIlXLrFfiSAiAcz0hNkWsqNmRNNHS8sUhQNnmohVhFLzVduVRG8CoyaKFB2m4/V3HWeo/UACRfmfs5oQQvuILuB009wM9QP7SW3CatIe1DEdr6dGjYhnJajF2SVNcJHoGBLUJmmzZkPccnQJ0dlz2CMOh7L1LXNiSRNKVXaBI8+eA0wHp/ZbCFZhz4d83qBXtfF5GxeLPDNTFtMQTIgn090UK2ohLIpnV77reh7N9UnPZk8uOd3sU78KL0GtwT4zPLSdc0UnQxNa99ivuRyCz/Q4hgx+8xXwFehVBTww71WZ/It8BSpXAfFqb37/n5D0+QVLvWg/H3qR6deqAX9RVuqMNRlzoaabeFlLGMnULjorqgLUA9w4ZDWYvw/PYqzi5EqR1O020Vxwjan2DJddiJ0bYLDbTVPLNgJvDnxsVospONKZuQjtsO6z5fqvcMmNAgMICk9SI2gz4lJnJgPkAfOZsUzPcW9J3Yq07/agQ+CXgMsITn9w+DPAOasJ1wCIAZNbMKfLpGlYsJ4cNyVudMZ08KMTJha2u8B1hGpGETiGeLi7Nk5/2iJX/+Av2cS87JNyNYRMxUV5k0BcOpSQ+rHEQAMznGcWPvskGuCRE3r1kFgjLbchVriUwJthCCBKVhqQ3iX9pbs983mQ8Ld46BMXHdtFc04wGs15dv46V//UX+RzwefpK5+J7nblf+cr4CvAx6XE5gvhK+ArUKMKQHMI8cpu/v7/Zil9ioLPP/wN+LQrk/llJnDFJFg80ujSSf77knMtLYB08a4nGHUlt/hRnFg08R8JYhEnIZmbXCxkkRjI83lYFheLNVABNHXsQaTK35glppcSjobnD5pndEre3QCQ7Ox1AO2vuLEItIii0Q6dQ1H2WACqEdNUXVPVzBQcXJgs3hJBJrNS5Tsrc25BHGiWkwBNW2lBGOraaFhmI1iEGpQZM42GpaGjjuU7drn2pPup8y5uezd2msF5SDoKCZ21QlTuTaA8PH0QO9XXXXBsh4HyUlRADDvVgru0qpBqIJW2l8nA8YqOuOCsXijBFb56hiY6M2k+qzgSi/btCjSBj7DKNBeW88otSBMm9AIrZl+HFobgE/DvN18BX4HeV8AD897Xyr/SV6D8FWCZXzHwzd//x3zpsgSM2C3/MC4mAubl2tR765/+WKbxPgNTiB9L0DPkuBBdQeRoE88r/KzAsnWJL/U5JnyTRZymh/IuT+zWwRdvR3CrhERNIlOTJ5Ii+QygfCJTf+zlerNRG1nlhWcOEE+PAwmAPDMZcDOWaS/R9HdOCc21hmMJxIiDLhqQE9d62GjjBacRnKYQNw62lNfelOqu16hhIZXSvM8vQ225ep5gImhB0FYkCE3Bk06LypW0SSsfoxAedXhipwv2baW5GmYaioZn/4rd+1QjzWi5NjjsWpUSGDeh585f0NzRxKSYlE/A1nPaYkSmS+JnqI8NsFa9SjdYyYGSFSLOFXiWUDk7jZTSPtBa1GDpHoZNW6HWnObvghz7IAdg7UskfD4VU5D6eG7lKp/fj6/AYK2AB+aD9c758x4aFagCMC8VAc8sNdv0WuI5NtEv+H/779v/TyBe/+P/9I/AgcR7CtuBQxpd0IQNgF6EgsCU3IWI9nhdfu3XXZ342fMUZjKMn3W279uPVLM/ydUCUWbbhj82YO4yUFGwScyv/XMxfagvYLCjcSnuh/MregH7zi54gMnpUiaYXaQsUlbZCYYXAEXY3JVaCM4ZPsoAnqaWrg6O9b1ir8hDoOh28fYDOeO0NtPUjUP8vCpODlU4T38ayko9XDR1RShMoSgb589znxdhB/iYcalN8Fmu4+q5ss/deXtGi3s2AMqvGA8/PZ4mErpYmpUFOf0MZIvUaKv2CEll85mTU84IxKP2Ge5mz/bXg1b7juIkxRR//07760I+5fWP/qrRWDIT53SzA/8rXwFfga4q4IF5V5XxP/cVqEYF+AI2jvmfwDEnuc+hgcs/9BIcc6gg5Zg08QUaNG0xPqn5a9fjbCGKiSa1Ao5pBHcch9OIwXtYsCldqUC0OuE7pTYm5aJd6LVMkvWFbY4aTNVk7Vi6cNYcKfQlnCXZs/7h70DNEGDAGi2hW4mld/HL2zf/lGCWd5jO4mgxZwUOEs9yxjQUfe0pAGty1rHJ4am9du2a+mZnknJInTvj7Zp7i1YhFFIkIR4CYAdlQZzzzKR5HVN3OMN9PZeE1ry705L3teN5M7GsBLNw8YXytJKQmb7cVh8GCkC7O35vf2cUEO5ZcfsbcMub8LcPzAqwjulwZuby8j3zep5oHIOm7a6w9eccC9rYjXPmGpSejh3i9GXoE2bEoLyj0e7tNdz5ulurYeGJHTyDHEON5bz7jbPe3WpFvPrDOR7ESerMUVaAmqGtLHXZRQ+6ujUv8/yy6qFn32++Ar4Cfa6AB+Z9Lpl/g69AeSsQXTnrmn/0z5gYbgYEt7rcuqdjVxaJsQa6CZgf3xoDc4XlCOxLcGigXKE3dAL6RxvTe1n72ZRcE/Zbk3YEeALzKcRlZsVGKIy+dINj21wEEA3PngQ/5uBY48Kw5iWbmsc+zl/hWsdHSMT/CwS3f/4TpylkcGYv3s+IPhUqNGt1/8+POkeiBshK0YAlpb5Fa8Epo8upr0CY0VsI1YHv61qZnkMr+LLW8N1TeTVR1HKIb7LxK2klAXqFhRNB40iNwsN8NIJQWQASTmP8/RrVIb5PTYQJfQT1phnh5Xjz565b/QIUJJrdAYJkXZY1bLj4CJRb6NjOd3mw+Cw28PmaMJ2GfTnBRfPjz29fVna6qxlduVGyzh4w8WYGfUhm6jJoRbgM3Sm+5Tkv0bxHVxB9w7MPj+1BY4JnP681W8Slj/M5WlG+JqW78/a/8xUYohXwwHyI3lh/WYOnAtE1fMzf+DcskTN9YnqaXc7ECqeEzGi8m8sxMb0lQNSyNRZpSqp0LJMLBBjFRSBcG5HyFoDDtFv2dCnxfeFKGyhPd4DsWxQYzksUGYkfgz0fAKSwBAxSACjAykO/4vLrv4mQDI5wOab+8dmV7f/Dc0csVCggGKZUvOGyS/CNZzKbGTtASzfRD6h10EQU+Wl4583XENUB+Ofc3wGkOhqgO69EqxUC6LJYxA9eyakOSofD4UbTSxOHMj2+JzYt3Qgoird8Bl/8pj00KfjFE9gjv3hb7SkXIO1jQdUwmBMPXOpUdpTLLbjfLBJz8+/nc1qODyoYnPRThSy1bfjPBs7ltZ8ahbB46hyXW/wEDcCoyjQnqjnXV9zzC1upUJMtnUuKJv62jec7arnCuX3B534jzTtppyMnu9y8dfaZz0FlK0eDctsx/R98Be6xCnhgfo/dcH+5yauAJX9+QvInANeSP2fNjpM/ASLl+sJ3AudGU8HbTdZrAuOakN+akqssmvjZP6K35GIvZgnBuuRKQ8MR2BeYZMJXugAFIUzbUnt+8cM4Mzwfi0ATBM7lKS4xXcvPfgcR5jHn6uHVrn6WpfuF5Vl6t8k5cfTydMaOzjHplqjTLOnUqNxanejkMTRagXjFeJ9rYly6fhHgw9SYlFE5vmQURS+Hi2720cluB+WPjF8tmg9C4xJgVbaTAqVmM2kTYzWKXTQ65b5iNVz4sAek2gY7P+BcioguFzMt/02bDks0OeANOk/ISktACFNh5/s8O/uxSLzuXGMDU/LFrL7g3kPjeJvjz4APevsObEXAxKAH7e+BHNSuryatGpVHoJzGMTrNqoYyC1jNkC2qHFhshYjG3G++Ar4CA6uAB+YDq59/t6/AgCsgHrdS/GTfV9j+Jil+IxG/LUHg9SzYA+pJeYZxAz7PTncg0KLgE3k6H8er++I5wEMjy+1zXP1jv25OLQpcScoWMskWRUATyag9DmfJYe0m0Fu2JkjgHABjtJaL+LsDrrOzV8W8cVYheryfer8sKS81wd8FJFFjUSXS4+AVy29agTu3qEhJKWwlzqNjpccoE4QTldA8pEdBpyJBVeFDlhwqa8pKbxJoy33nqKbEOLHQIOQWPewaX/zb3A8CfWheB7KZRzlNWPHwZlfcvcEV9m6I+eQjaUSmiFO+IraQvJNWMpCDdvJea9aZ0Bd2vc1qz1X+/nmSOosr3shnnFRPNYxaNTj0hXM30UNkySwg5TS/9DGXI7cgxYpbzw93Jwf2P/IV8BW4rQIemN9WDv8HX4EaVIDptYRX7Rt/4lrf/h5feKTmzZjNFOrb8Zd+mSKzK3ZlYh9g/RdeOOICgEV0/QbAkS/tuWtdHv5tHreWpGyFHe+aoK64HxeKRtxYpi902bkP9Oxd3tcL6ACVmrJGslMEXMveLgetxSa9PTVbACHzPweMhudJzKShcG3QGsZM5Hyhtyjh8V4Q16nxQ5BYskZnn61yyMUmA40kI4AuW8oKb2qsgiOfx40nKZ/SI+RXPOXq8C43UeoAaSzhBXjrR7a69s/+1KwLBdTTE0k+xQM8N3d9n+wLB1QKPse0hM4chvDaT2F5mpGvPD7tUfuNuPk+tNXE3ml80yVSrnuUZM/5ODFJUD7AOgzo3P2bfQWGUAU8MB9CN9NfyiCtAPziUqGNifmbrvWdP8CO8BK82kaXXfpoB78YEVbSN3FPmwncOU0ktybnl5hGA5rka163/hWmxTi19GTBVslr7KDytH/4fRN+hojX0lMm4STzIEmfsytzbpp8X2fyDWXGJt9cfwburgClpq49bh2rESU0ARET24hwIgUViZYk1xdRG+SZHq+q9IT0ezxaol8gcC6LSdGP5GIkClZqBLaKE+fGwlA0EZXYTJDaes0Vd7zJPWT1A9/+uofRUKxUsi1UswFM7M3ZhJAuNYnFfR/FQVcl0nNHAXpnLHVprDMzo6HJVPnWBhIwXzhqU3PZQcqWUZaI0ZlDMX2lcUzcnKx8hpWglUZnuUskWomb4ffpK3CPVMAD83vkRvvLTH4FFCKi0BvZJpZClu2JbjfrsglzBsU0ykAMXODgID7Ph3cAYqBw4Ectrnketwbj4tZoqnaLLtD67h+69i0/5WGImLouZbn+GZs8l8WasrNHTOC8FV77ETy6EfmytoAgdF1sd9fbICPtV3QKgLklrh5HENmIOBdwnpkCcAIoOfysE0976qw+ffyZ8aCvnIRWos8IwsPRk2L+NVxnW0Eo8/NlK0E0cUVoZqWrOOawStH40m9Zwyknkv5OiQ2UXz5tFLbirl8YjcXl0jTi41nFWcLqCq4oPSXQ9rF2vX25eexDHQoPb4HTT+PHeQT7NwLUaRpYCZPrijXc616Giw6VqMIUm96et3+dr8BQqYAH5kPlTvrrGPQVUMR9EcDRLkcGHClS9XUuu+opvgjXDA7QpaVwAGRgMfW7cdTYH/PNWfJueOFvuRw8a4kha7HJIlGTScWaF3GUkHd5dv4aluEfMaFbJaeS8dQVSsrJnea4kRoF+GIa2qd0V2obe07jpoO9ohxL5ODhEA1qupqZDEA3e7s4QKoWNa7KMZVYiRBTfOfwHJHypw5yL6F9KHkWu8tUpotQp36eXMjkOISOFB7XszzC6Ej1j/8GLiS4jwxA1Byc2GOhPu2skkUXST4Noa9MmQooxwscUG6N1gD238/LtbfpOQsB5sUtb/DQYZ8K8C7dQHwLfSXLc1v3yK/E2hHsU/vbmAzk/Px7fQWGegU8MB/qd9hf36CpgESgcuNofev3iOD+jInzdaz8SECcswae55QYQA6Cq1GAj+zuAnzCS9c1ZRzp6p/6i9i9PQogZfpf7Q1wERDS0v7BHwPKiQ5vPo9Liuz3sKRk4lyVDVpKSMJiePYgk9czJua0qaj8uftCwxDtiUmxnHBE6ZBI1EKi8LzXioTEeml85oc0YBLFR+BcgkyJQmlUVAOJjNPjEUtSU3MXGggFRE1mKXTFYwg+933Kagefxcmkw+I+ksNxKDNhVr8eGwlYQxJiJUBWoxiSA+ByiHvHTqDBIjho/BwTtvZr52V6k2ob4mle3PxztCNYquLUlOYznJ2zyuWWPIpNJJoMViqsxmU6pt+Nr4CvwJ9VwAPzP6uF/y9fgZpXQF+Kbe//ByzT3rPpanoadIWZK+Kp+Z2ewjU/265PQJSDIu4O0ZkmPLkjl1vxJLzcZ10e94Zqb/KCVtx7y0/+JXSQs0z+si638kkEdvPjKXO1TojVhEh85b3vI6C7bgDabBTHyAYP950+bmrcDOwr6OnaJcAStoxwghVA4+RFL+vLMlM7+niKlX25dANwz4MjG+FEN5lrSxyOs5Rmh0CsgTgame6j1YSQwa5NXEeaZNgnXAM0Ftlf9kcvYc3EuaO4nvzCFWhaw5OE8yD0Tk+dxuebJhFLRDnN1Gyj4TE/fYKyAhqGYDcC6QJcfs4pi3A5vwYh95oXO+xTq2RVWbNi+AP7CtSuAh6Y1672/si+AndXgGXk4sFNrrDjHXNpSA3Lk0w5F0DLF2Itv7TvPtNufyIOrWzuAizmopOnmARON4eWhuf/BmCRL/UqAkbRBpTy2YbwsxRBGRg3zuVWvchkcjKAuIrUGqOjIGJkYm5c8ZMHuLcLY+eLcUxg+8jV1eTcaXIsUSQ86Oj8UYBVR5Q9qwEGIAHoQ3ajngYk5aUvcaym5wrkwes9O+8BViVICu0ndcqmxhehsRzBBrTpmIlt1VQ2PP/XY2CqpqePmz7Xxf1MyncRyCVv9lQBagyZBVPxKYci4pTwWkMHJksdpdkzB5qTrOxcQ+eCgFtuQnXrvwX1Ct67rE/tszuQ5Yg+Fs6/3FfgHquAB+b32A33l5vwCjCpk3WiJuatb32PiSBAcuxogOQLtsRt9mwJvwSdnvGqAUzBoc8Qjm0Di+ddbtmTsfczVAt5I1d865gAtm98lUbnbVdkai63G1kk5hY80jtnlHKf5C1wDuhT0JHDA17iOtFqUg2kOvZjVaQEz7wkRxxxrkmOde2thBKR2jpmKs8O03gaOvM9L/e1JGh/tnqAKDQSVQi6iAljRQvBUaTLgKxuzl90rOKhT1m1wuryajO+5fh148RSd/83unlX578q3eTe4Gev4KDg4EYXYH2ZaqThHs9q2CxcTXDWMfpR52+v/E/1TBZbjRZlnvEnCTe6wd87rDpk567m2h+CvvMIYlSsKfvRkFT+AvwRfAWGVgU8MB9a99NfzVCoAICyuO8T1/L6v4ZHfJpJWsllF+HbLIEf3sKDZuMLv3gYYL77Q4Bjq4nzLHRo1vLqXAcTZU0+W177bbOiVJpkZs48pqnrmZqTotkPEFyu2sfTydiGrwSQzsxZDW8ZIDmc5MT+DiOpt7j94Zm9LjyBWHH4KGq+AmcNLAUbR8crFeW6gITuJ2CVJsLuLzx9BM72IoDlekDw6L5Nzvn8qcEpbHktDsxK1ZHy+RtQWZ40x5Q+XTrPoNJ82zf/lJUwKDcAdK2MZOZghSjtCM1Dl8+hNZbcVE2oK7nCBCVIFK/wxA4X7N2MoDiKhZ6IiuseeMXllz/JOSvorL8PZp8q5l/sK3DPV8AD83v+EfAFSGIFQokVv/gZFIwPSR08AR96Mi4i6112+vIknm6X5yR3mfAIEd54QKdHTMOe8DFXt/YlWx7v8k1l+oWcWIJjgKJP/hsiPqb22NFlFq2z0Baz1usjdaRMpxXvRvzosGB0H3lGR1fOAdRWweWFH63goH7GzSu63iwFoXaUiHiPmNamR01kOot/OjHyQ513rmm5eceTmFqCzy+f8ezsNTFtqZerNDZ9554Ud7znXHM7KxoTXePLv2Upl73yn7c7jEC10B7bIdJkS+ypVQ0nd8Hp87gXUJjGzY7vdWfPIc9HBNdb4labqIvXroTRMoPjUqGFZ+SS2XlKD2L0FVZZ1NDVEQ6WmbowbqLLfNyyfpb8znwFhlgFPDAfYjfUX87QqEB0/QLL6PstOr6IuC1VB8BYDDCf/yDTv7qyf0FXqmoWLY/Dg3yQXZiHSzvXNTz7VwE5D/QbfPbqXOHqGygnTbWIH3PUfI7mZir1u99lpy7j2L3aS2VfxDBUYtAICorEqemxOKoQmCO+cSoHN7y/YEignyCikPj0kNRRC+NpHBmHVSnKXhNksxWs7OXVau/mES7HFgXlXD1PXXGrmQCXm+bErrszIPyVkw1xvAlPYvd5aDuftVE2JW947q9BN6Ip7s090cT9xkVA9RFSZt8C9H7BvTgCjWoY93cG7iZr40YBLnxXmznvXD7uAlyE1AzI0zwtr3ajOwHQB7pxjlYntAnhuQMuPLYPkTa0KhI85boi5xk5sJhjUG+ueaDn49/vK+Ar8GUFPDD/shT+P3wFElQBo2G0u5ZX/6UrfPGGfYlmFi0D0PJlCdezqqLFAZTFvvwJximKFnDpGhHmDW7YL/9D4+tWzNNcoIPJqXj6ogOVWrFsHFHvsssegy4CrUNc2aRsAuc3BeIAR3CP1THk7/saNJTx3OO+O7V8eVnstxTBPQegC9xFWPSVrl9x2YVQoqaSKjmULRW5dqrqwkuypxTo3AMwZ7VmIbqCYegbeqAwBfjcB1rlOX/OZacs5Vl9xv5Jj5/xZXm7/g8Ojtd6cf+nrn3jj605jK5f5LZCR1uM8wruK8Z7VzBPd82hAqUEmqGXROeOcTiCqWgM0pq0j57a9eF7+RsD/uw/OLbVhQd3Gn1FYuEsWQOir2Tnr4v/jvGgvJcV9S/zFShfBTwwL18t/Z58BcpXAeOXRuYkUiCEJDi5lxAVvI6JwM5OW8EkC7rDYNhkESgh3dbXAEmnsF+LXMPX/qbZJmYEdCohJsNCr7D3I1cEmLdvfZPVBizpJjEtX/4M9og0NT0As2qX9RbfXCCphPA3BfVE/uriH3cL3no6UQPneJ5DiYguI4wUvxn6jMSgintPA/DSTGOH6ma0HhxrNDmXPaWeNZtWc92dPgNq6FhtKO5734X7t9DQtcMrf9rVP/7r6DtYxRjWQ61kschxigc+B5hDX+HfJQTQrjEHdYt6655KjEtKa4+Td52L0ZIumYtPiRU0iUj1bBgtSdz0fjruKM1UK1lBEzab547TsDVjsUnK8Nw1JHo+w7PHuY4iPGhAD99Qfar8dfkKVL4CHphXvsb+CL4C/a6AvuALcF0LW37mHCvY6cmz4Gk/bTZmPX659/uo5X2jpubF3e9AD8Dh4soNc7bIAQBEZ0nlxZstnyeygVwATJvChPZ9BIWgCUBEbDtCtuxcjpcwUP7VSgenSfOUswrgPDNlAee8EhCNH3cZLPQs9OkKE+RTewCLN7FShBoBvcOmt6JHDMTz+6sXkbD/ls95dA17Sqgp0TmehRnE3U+E441biz13X5kIm5MQoLW4+12myHvtWalb/+dc/XN/FYcSaCfdWS8CpI2+cvqga9/0KpNoJt0KkhrRyPM31yhoSmbtD5gWQDe/elY+HCtpoptkZjA972s4lShOCg9SOBUiWaWZugJlgNok2kpe4UH8M5BE04Tdfn86vgKDsgIemA/K2+ZP+l6pgEXJM/1tef13mKARSiPrxHXfjAHVQKgOVSyghcAc3wYQ2Omi4ycAFUsMBNQ9+G0oG+WdYEcIHuVb3vbBf+Lfu2AABC674gGW6OH1QmPoq1d4FcsEaGqH7nOchuJDA3DpCTMR+7I6AhAb8CZQhjWjaDMRfOewCavGekDjOIR+c9a5tI5RxgZpwOdbrh3cWjUQbxwhcnTpNJ+dyQDQpxBi1t9GF5JrTygby0O4p5whHXbcDKN1aGJ+J4i/7fQA5eLxF3a9b7QzaRuilisAe4mN1zItX8IEmim9uO1faQRu20d3f9D0PGgnhRNa0tFN3L/j8NXlL06zCS2pt4NtCzji+RK1KTx+CFAeGO9euos6goMy05ewuiTf++44Nt2dqP+dr4CvQDkq4IF5Oaro9+ErUKEKlAptFtLT+sa/Jcq7iakdQHOZou0XMDHTcnPytxJCTNEJwmPbcWg5DBgfbaDHIsgBhulx0wAIeDlzPalh2Pr1Z+tIagwIcWlndSE4Cq+6eI19w5tlMp+ZRKpi0gWPwneIQS18CH60495n4PxmlAxaJsqJrSg0X7JnqYQloMBaikmu0SMIOTJhcQ/iyP7cnlq/55ZbS3B8Ox6eRSgh0MIAtRlCpm41a7E7CYFCJxFCtoTm351f9TXjl3d5/soduCFXk60kun5o4WAGykc0sOrBZH46fP5RiDb7STv58rgC/xzL7DBprGSjKrqJ/T2AuLWnfINIIUzirB9nkn/hFA4xhBtBX8nh9JQj0dToK9Id+M1XwFeg5hXwwLzmt8CfgK9A9xUIsX5r++hPmOQBGq6TojmDL3xEZNmpS7p/Y0J+qwCc8ORO/tkDlQIhG9NbtGz2TwY/8czU+dizrYzpGwB1488DZHpvD8dEUdPm88fglL/h2j/+r2CYApNRGgBEbKIuyNViUGxqMBQzj/+7wm2saYEPbsmQ5UpM7QB5wcldJo4sXb8UH4fnKT2CZg+7xgEJTxNaaNU11DXjVlO6DF1owXqeOewAofJokh1eOY0u4W1XugAFJTvC1T3yXQvWyUKD6nSjjtHNK/Zct3/2I1upiW6gERgGKJeHuhyUzEM93+nb+/VDaTZoqIoHPrbUVzVsmVmrY1pLZ1QbrZQwbTeHnlM0x8cPulSYZuI+3nzZc0sfjx2S+nUy/k2+Ar4ClaiAB+aVqKrfp69AGSug+G6bBG9+Deu/z/lSHe6yC/DjXvh48ledNejDK7m46y0AxUXzbdaSfKn5uonO5DMta0AlgWpinh4/3eUE0nGgyOKhbHzXnigWBlYuuraP/ws0kE/MIlDcXgnujLLAvgcV0ATwhYqYvwDl5DiOItQkq6TS+uHluw67L3ieyxFGaZlMYNXcZGbjHGLONYOkkenL54y6Gl9b9pSsqNgzx0qNaQ8QhorGUvj8VZ5LKGNMuRu//ncJo4IC1ZmLjxoo+N7F7e9AYXmP/SGkbLvOPjMAfoKDJsv/m0l5uYN5dN8A2pFErebYIt48k381bwhL79yMniMaD9cbkiXg2os0I4viJNMVT/O+uVClurZtvHN//s++Ar4Cla+AB+aVr7E/gq/AgCpQaicEBO5024Y/hsP6M1dKhQAG+KVLngQIlBGsDegsO3+z2SXiChLs3UATAed21ioAYIvZGZYINindvGZOFqXmFoaWeRM7ZiYShgNgyEzG2lC+3lBd0qMn2fvvOoqW9/GLDg5/YRSWEDBbClo4DrZy05fFqwr94fXedaDq/sD4wNfPsUryOUisxPR/qnGK5SpTTgqwrTRcP0sT0GTPmBoh88yGX52G5mFhR9W99MoeDWBroPb8IVZYjpqgUxx7XWdEM1Tc/HMm0fSDAN3GV/6eUVHuEgyzAhS7mux0hT0bYncTnuXUqOE8s3NoKrFEvBUIVImrUYNBU2AWm4g4HUFGphXgs+XU5HZoTyxoCk55iNZC9BXXxnMk+sqih0zjIYFxCn97v/kK+AokqwIemCfrfviz8RXopAJCE5Frfe/fk2L5X23ynJ4+lS/YhwFsMxINnuRMEQKCBJ7ThNvkV7wQA0u8nmOHCAChki9xzCg1M0lnoudCIsFxTxH3WUmhufmIN+eusutMZaEF3LJYlNc70/fC9rct8jw8ewgMC0gZRRT98qcAVwAPvX6QbmpqzIcbL+7StQtcExNOptmVuCZLu7xy0gUHPjPnDzVCmZkrzVIxDrQapEXs7LQN2BZZxXnbaCGabKsZiXBkCXZ+4tJ5nh9sSRte+jvWIH65C94nkWfMKf/CVmjk+lNqw5+/vs5l5rLKMw/nH+gl1cgZsNROPl9FJvaa/mfn3R9P6fPDTOhrug4FJR07THPHJH/MFJdf/TVzXsmyMuI3XwFfgWRWwAPzZN4Xf1a+AndUoOQK294mSfANE5i5Rr5opy8EsK43UHHHi2v/RzCMQExwYpslH6bHTsU7G9u4KR28eIEc0QEAn6IXKAhH3NkInm904SRR6EzVAzA4gjS5aGRwKMkte9LSF2O+OPzeq2fNSlJhLgGOL6WgjYngeGoC/QCfZ9nT9csFo/bVi89A/GA5cZxENHtiN/aGTGONbz6v7GeoCaxTPDv+1lp1iC6cMCGuLBWzTIBtCtsTpajsZ1XBHVJbS/iUPeXJ/S41Risy8MyP7IcSgiXpwgfNv1yT6FubVq5KcMrbt/7cGpjgNNPqsN05ccrnQr9idceEntCzqvLc2fNBMwFvXsJOnV9uEZSnhtH8+WQs9DwPRam1YBqO3MKH+Aw9bkLrsjj93CqM/7evgK9AWSvggXlZy+l35itQuQqEhAwV9n1s4saocBXrxPEut+JZqB4z/2yKXLnD92nPEnxGUCRi/+ijCOGY5kmEKbDc2aZhZOtV+L1wZy+fIGgHesU1qC5M0VMRYrU8vHrcVXJzcCnB1s24s0zhizsJg5FLBe9Njx/P7xYDJFcPHQEjdRFQDk/voRZMZmX1hx/7nVZ/nZW0zz+zSTK+36I/aErP8Rw+82m4y3rGUgpnMtDZ5z0n8g22IkFtgwOf0CRiEWh2lZfMojKPU0l+3ddjCpVpGHguz2GliBVnEfvSEEBvjeBYGkc1nKwu9CZVtNyFMO91+OYBrkcRbjJpnGC0ohRdAqhfPMvDQwM/nqZWIs/FD5vAWtN1v/kK+AoktwIemCf33vgz8xW4rQI2PcUjueXH/w9g7SiTsTye5i/Aa100cDu224408D+IGlE8vNGVbhBHjv1ediEWj/Cke7UJpEvchhgvbNoOyLgAP1ZJKAIZM2zqF1084YIz8IQB8KAPglyGu9zyxwFJ2EiWyVqwV+dahReVioBlRJrFrYRMZbNQEbjOERNNDFqRwwugIzAMjmwEoEMPunaZOHksJ6cRaiMHkyFkpygettGF9JydP0c0PTaJCx4kmfZZnqcnLchLAL54kDRPmkBNyx1+8C5LszicZnHRekA5NCvZIdZQyxCeO8T92kxje5Gp/g2aKib50nRMmuPq1n/TaG8Zian95ivgK5D4Cnhgnvhb5E/QV6CjAib4OuJa3/n92AWiFcC0EBcNUgAz42cnpkwWJS4hHcmbWjLPzlwBHQWvZQR2vd3Mbxt6i4B9yAQ3AoSXrhFvHiJOxL/ZaAWFZsAHSYgToLpMWwyVQLHpo6vC7+3tdZTldaIsQDORB7cEiq69FZeWh4w68SXfviwH+spOOKaFEcn7miZQx5R7R2YG9xJLRTnEDIVNFoqKqC/uYeXl2AFrALNz1tD8PAz94z6EydeYksPTPkVSJnacluY5chirM3rmsJfEY94EudI91DCXR6tGQdMXLjp7DGDewuckgnOOc5OEnug00vDLvfvKUHhi/TXcCxXwwPxeuMv+GodMBWSdWNjyUyzaPgAw7GBCDEBAyJVDdFbzjUm3haBcamKpn2n2xZOxC4Ss/kSB6M+kVQARVxebah4nVv3yJUsstOlkhqllfd6lpy9ArNfh5VzjyWXF7oHqAAc/gNISHt0B6FoNLWGxuX9UclIrYBoKnEOVcPDdUwh403JsGY1mQGmht4S4Fbvw6uy4uP9D6qrVmctG29F0WbqI6Oo5+P17bAWnhF1LqhFbz0l474vrj+1gLIytISIXzUb36NwBOOVwzVldSrk6zn0aU//nDJhncV9xnXmcV6e0/ii+Ar4CfayAB+Z9LJh/ua9ALStg3OpT+1z75z/GieQ1o7Nk5i13+VXfqOlSutVEk10oEAZyENRlZjDFxs85Q6LkgKaJEomy7+L+D1yEr7fAk8tkcG7JAgxTLjUOBxHAh46VahxDE8DPh+JGHQI8x4ODn5lrjVnkyQVETU+ltg6Rbih3nbNMjQ9tA/RNdOmpBOhAbRkqfGUTgiKiDPZthWtOAJZNwNPWaErELOqKaRjm0BCxOpUejs97jafkuuWi2QTH8Chnqh+dZjWFD1qWtNG6B16heVuLaJrP3hBpnir1iPv9+gokrQIemCftjvjz8RXorgLE20fNV7FN/AFpoN/HcrCVJfVpWOk9y5L62NpxzZmWK4o8PMXUTrxvaDfyh9Zk1ZI8u7umHn5nfswXmcLj2Vxqa4bKAr9aoSjpnLm5OGLlRUkQKBGVRZ7fNtGt12ugGAyhzWqBOFaiWl1bdv5DUEsQZeYrK+gTAIz9v0nNZNVG9zeNqDA9EaeY0dNq3xQO8B7LFUiUnWA3zR8BQ+KaW+PXgC/48FE8T5Pj50qULJ6ru7zNB3j8/rxdKyg651CORJfhlrdHWIvG9JXcEugrUL6GCuWoP/Xx7/EVGKwV8MB8sN45f973bgWYYmpa3v7h9/liPkYSaL3LaDrG0np6OAE0NdjMB/sybh4I0BTpLtCWnbrUQEy/Twewr8YjFoFuA/lL5DnOAH/KYtTTiNwumzVcdOkELi6IRFmyt4AcwHlKSaJEon81dKXf55KUN2r1gCakuPsd+PeXsFCc5dJalRiFsLbCjAqzVMTaMji+Db414mMaAx3/y5UKecbXUAA50FsUoWcISNaNzh7lubrhUqPHAcYB5LjSpMdTZz1zSViN4XMgHUdwZl8cHnTuLPdC7jlTXd39CD2xelRA12C+FwO9l/79vgKDuQIemA/mu+fP/Z6tQHB4Cx7exIHvfA/wilXghKkkgcqjeHb1awKADo5/AdUBC7mWG2ZnmCWFMJXFqaI/vPJbV0AIkYFyJuXhyQMIXde7zNQlTMtHGigUEi2JZhAVLayo1HIVmgsAnRTLUjPx6I0SK+IkIlBV5sTMW6dYk38DzsXhV70VzJRd9CBCxTWVB2LcZ/Oe13T5KrzzI19Q93ZWKRD4zn8QvjtJoUkArv28KWY9iJtQsH8DqzNHqOsD5h1vK1FmE1lbgeety5JYVfaIxik/c4rVixLN6mpXt/ZlPPzXQB1jBWMQB2vduk7/b1+Be7UCHpjfq3feX/egrkB0+TTc0h2WBhpeOGxc89yKJ6G1LKsuncW8rwNcYjZaOJAt+SsIZ4D0hhKUHQMghz4zZwyBcXOfGU3gC/zyu7YOi7/o5mWoFuegI5wzr3NRLlIKKYL+kobrLmeYSiRn3nU+Ff6BiTLx0g6w8UuLXz9tKddYJWCsqT1CUNEoInnOYzloNaa+EkWmMkzOB9KQVbh2Xe7eGo/QFY9ugq+t0KGpXM88S1vt8j1V/kV08xKi6iYcWLZDX2GFCAZXdtZyPMofje0dRV/pg/tRlU/fH85XwFegFxXwwLwXRfIv8RVIXAWgM4SA85bX/hXL71vMTi+7/H5i1LFPJGK8asvYEnyGBUsfFFjLzVod01cGCMxuuYEEBz81gWFu2dM0H0Sd5+p7vhWAdPOnxkIuPL4jpsDI6g/BooFXQo5q7qbR81X0+IqQ1YHgwMfWqKRxS9HU3EBZtegk1FlBO+EpBLm4l6QAhVopSQ/vAIcDfAZ6LECFXmCBTqxIyBM8TZqnOR5Vq6ZdXVOHsDoUfQV9QXiyifUiHIlEX1n/CvQVfOa9T3lX1fM/9xUYVBXwwHxQ3S5/sr4CHRUQ+GQ63P7xf8WDeYMLTu116WkkNOIZnkN0WbWJpaaMDnCuuHJoJek6/K0luBwg3zkQfaUJhwxxxuH4GujUpLyXsfDGh4afHtEsKMkyunzSla6cZWoOX1gT5glzewfyE/zAqRGSr3ZwVI1Zq8utfC4OHqoijcFEoQrpkTCXcym13rSUV6vvIA160kqNvPODPR9AgyLQavnzsfNNDRsN03BI6HkMfv9Z6CvtElevdnlCkHKLHua5RpQqq1C/+Qr4Cgz6CnhgPuhvob+Ae7UCFjpzaDNphG/ibf46wshG6B4LXG7F1+KJcA2BRL/viWgSsoCTwPDIVpeZtRLfaDyje5saeueBaRzkgx5ZUE4TfFy8qHN1RlNIQ7dJj5wE1scWr9YT0TvPuxd/LsHBlyNN8cCHXN8Zm5gKEKe1YlLFTU2QGoSIePsIMbJrGG6uOJkp2FfSqA026pDqKipUccfP0SmMgrd9fxyqVCPga6tHl47FKbgXz3DPUwhu57scwUH5paTA0jwMFdvKKj62/lC+AomtgAfmib01/sR8BXqoABNqTc0Lm15zLT//twjzmFhPmeTya78FoCABEwA62LZSgB3kNTyzCU8KTx9yudUvuOykhQNeAbjlKGL8YVJENdXX0n9m+kqoN/DOTdw3wDF/jYodnNwJpeSwcwgXM9OXW0S8rSxU+XK+5D8jCjUrR4SIcTLmmHgVpUb16c9hFdojEai0DmreLOUTO9KqbqyKSWwbiC50gnt8aB+HTyPunAF9BfcVUj2VeOs3XwFfgaFVAQ/Mh9b99FdzL1VAX9wAh8KuX7i2X/wHHEyOY1UI+2MB1omTxaeeNOiqYfHohz6FEoGrChPK7Oy15vYxUGqMo1ai2pSaEc8pLOfcEegAzeZekYEXnTF/6sEZMy9fe02rgwOfsbow22qWkqd9ldMe1VTJD1znomfRqEPTFvEsQh2SnWNnot2EPqFmR3hqN0Lis2ZPmVsAXQRP/mpuooep2ZHOIjotC8c2mi6EnlBX8iufNlqW9ymv5h3xx/IVqE4FPDCvTp39UXwFKlaBgCjuwra3XBGAHjXjaTwBIeDCh1x2MtO0QUTRMLu6Gxe4jrdpMBoBIfcZGCqry4QAujmKQLu4eAzgcwXgj1/12Bnwzuc4R1DPoLP8QxgYXsWlZ98GwK84+QROMTmXk03VN+obybZSfOgTu/CQhzaE93xm0gJLyxxo2FS1rkde8dbAAc6jC8dd7r6vxc9HNU5Ag/KgLaZfIawNTxxgNYTVMJyFciuedvll2KIiZPb0lWrcDH8MX4HqV8AD8+rX3B/RV6CsFYhwjwjPHHStb30PGzUEk7mMy619GhHoeoDa4ImnN8CM/V6w6z14s9NdftU3YrFnhSgZBrwUcQ+XXemO2QVQAxRMpMTQQbZZ7c4fhv6zzwSYuVUv4s7DhLdCteupPNIJlEiCLe5+H772JcKv5hrNpiY++z2dbGe/VwNn/P2PXHjwC5d78JvVa3Shr0TXL2CHupXPwiZWxSJLHc0vf8Ll73sezvvqzs7Y/8xXwFdgiFTAA/MhciP9Zdy7FVDISwmueeubv+uKez9ian7ZZRbBNRYNRBSNQQLOQybY4Xls6q7insL0Ojf/4YoCyxg8XuWYh5mOQlloVTjSMpuMpkdMqOixy/202moDKwHBEZIrFTo0H8Hi+DlMqeF312ITbUiWnogWzRXn0ik7l/S4mZZQW9ZVkEpcH1NraTaKBz+Ga77J5VY9bfSwFCsqldxUM9G4gsOf0WQddqVLV3keSdGdu5ZUz2+4zMTZ5hlfyXPw+/YV8BWobQU8MK9t/f3RfQXKUwG+0Ns++hPSQN9lar4DEehErBNjcD5YbNTMiQXbxxQ+46KVZKYsKk9tutuLBLSy+zuLPeOJPR1BOdhOEuZI0u0AAEAASURBVHMv8DjYHEWCpi14XHMd1DCNc0d2Sm3FgTElBJqNVnLa4PTn602wKL52upGmIeFUq+Lhz5mYb3SZBWQEGB1nXHdPU/9/19EIyA1GjWJwiHrdaGH1qxHnFcKDcGDJLXnMWyL2v8L+nb4Cg6YCHpgPmlvlT9RXoJsKADCLBA0Vdrzj2j/9AaAy69JTZ7r86m9AzYBrXCNKQzdnfNevivs+IBBot8vMXwcwx/ZvxPi7XlORH4g6wJRS1JZg/yfmhCG6QDxxrhAQq8iFwHq4cpqJ+SFCf/YhBJ0LH/nZ2t578aWjgITKFhI1N7tIjjiIUjPTl7KiQyBSGqpVgsG5msXgyBaaRDjyPJMZPPUrshl1BptQPOmDvRI/t7t0w1hzDqp/9LvQrNbHvvsJrlVF6uJ36itwD1bAA/N78Kb7Sx6CFZDoDl6qBKAtUFpc4aZLjR7psiufTb7jiKUa4sctYH7qILQBhHbjZ1fV7tGoILi0hKf3muiu1HzNVhxsSkriaNUCmwb4aJqTB0LQ4t4NTP/HuOy89VBIxsWgboD77vfbbRocC1SN1nKhycB5euQEgOdSlx5G85NQxxazomTan8KiUM+kCYT7XYgu3ihQjptNQEqtVjuic+cA5aNpXFZhffqSy86gRqMnJ7qB6eLK/I99BXwF+lEBD8z7UTT/Fl+BRFaAyW+RZffWn/+uCwV+0u1Mn1cDfpZUbtJXhkIYrxYbw+DwRpxSTrncum/STDCZrPaUX80Nk3OjtRz43KXGT4PTy5R04oKYQjBIApvkilLc8z7j8wCNwZQY/A6vsgd3Z8+F1fcaqyLbSGI9RZBUmyXVZsbNildHlOqasIlwgCuL0jZTAOPM+Fk8C/M7u7IB/cySRgnACvZ+6EqXL3Hf0oDy+0j1fMrlH3gltr3sZeLtgE7Ev9lXwFcgERXwwDwRt8GfhK9AeSoQnj3kCtvfcYWd7+ElfRiv4/FYJz4Yh86U5xBl30sJ7nF4AQEmzYTSTHNL8WgeObHsx+nVDpneSzwbKWkRu78SYDK3mHRFPOETL1jsuECJWkNCaaLzR0k9vUSk/DMGKnt1/ZV+kUShOr+zB3ASOmCC2zTixtyCR+BT1ydOqGzAvAlgPqZCwJzVhPgYW1109gQxtRl79uuf+gsWIGQprglrVir9iPj9+wrc6xXwwPxefwL89Q+pCpTw5VZ4TiuBQ8UDn0BhIL570TocTh5i6oujRAKnvprwyhrOtd0AnBEqNGcd9IYauYnwNNgEXw4nx7fiEHMOwWKDJT9qWhpzohP+yChSvjWuaXR8r8siHhQlJzFhNIDR6OZFKEMnAehwzgHrqWGjmewvtjCpJCXWhpdO0DAe5vzGGmBOj4JSUqZNDUok//nj2110EjeitgCx7iITeuaXP8l0fg6Un3yZjuZ34yvgKzBYKuCB+WC5U/48fQV6UwFNJHFoaf3Z77j2La/jJQ1Xeh7uHJZcOIVlcaJBE7YZN/7Ah0xLCcfBrSMzBUeUBHiJh5cFHJnsNu10mRlLzH4y1TgqcVPdTm8n4LfYtMkcRdLTFxswz2BVmKRNNp/h2X02OY8unMIScBVOMgsNAKfSmUTQWkQzUeOY0jRf4VM49ZRjk6YhunHehUc2x7aI15qNzpNf9Zyrf+S7LjVyvHdgKUeh/T58BQZhBTwwH4Q3zZ+yr0CXFYB6ofj59o1/6gpb38LlAeHamOEuDbDMzbnfCVgmbdPUsLD9TQDZePMRFzgXEKr1JuAYXYX7C3hyUFyUYJmdi5hSYtBq89/7UYzwwhHEhMTKE5SjNFDzhe/Hfir2Fp7TkgS3hEpF0FoivPjTI8biwc7qDjVOxORcjS4gWitNqRTNQplWnOSeY1oGbBFLzS0uXTfK5fEpzy9hdWPWSmtSy3Wsit0/v2NfAV+BilTAA/OKlNXv1FegthUImra7Ag4t7Z/+EBDZ7lITJhHn/Rzgl6l5whwwwkvHXXHTq0xLZ/8ZKEtIKJIJ8xQvD2dbPtyZOWtNmJrEBufOJ07+7EYXOfqFUUVyK15IJODTqk547YyLlFra3mJuMuaGo3AsNWhDiGNdgmbkitgiQt0KT+yGJnOBz+RklwWMW4DQ9CW46CRAqHvnw+T/7CvgK1C1CnhgXrVS+wP5ClSvAgI7cmhpefVfuejaecBOncutfcH8wcu1HF+Wq2FqGl486gqf/giHDqb6y5+LwWNSwBgLEBhxU8sPoRwcMNs6BR8JOCYeMErI2nbdFTb+yJw9cve9aBShREyi73x4OFeb8GNXGR7b6zJzV0AfWsEEfWKynoc7z7uPf5bQOaIJkZ1ldPIkE/gMXvNPYIv4Mitaq60p6eMu/ct9BXwFhlgFPDAfYjfUX46vgFUgLLrg5F7X9t6/d4Emc22XoWEsBewsr4jlW3+rbjzji0dcccsbLjN7eUcgDrZ5SdoA5yFCxeg8wT0n9zPZn/MVMS30hqRuYjUVCfbZ855NotPy4lZ6ZbWCm/pSF51rQaD1LKsTCCGvX0QInEcIvDYG5/XD+7K3RL62xGdSbj8KsYounsGOJQt1a7Gru+95VrOeIgl1tPm7J/Lk/Un5CvgKVK0CHphXrdT+QL4C1a1AdBnu9q73zT4xOLEdT2ucL0i0zM57EHeRhIjr5BsOVSTYs8GlZwHMlzxV3SL18mjiaUfwgov7CO6pH2YCVaWTJkGk2t0lCAyGJ3fiG37ShMASAWcmzuvuLTX9newyZfEYntjhSjcuw+vHDQV3kszYmYl1FepVwdTcXT5OgNYeBLnbYltEUkTr1rwY25lCYfGbr4CvgK+AKuCBuX8OfAWGaAViO7ZzTM3/HWLQn7BsjnXiwmUuv+JrseODwHmNt+jGBQPm4dFtUFmWxX7WNT6nrg5far3BKsQOpp4n4Am3u+zyOFW1q9cn4ufmy36RVZOdLty3yehM2Zmr+Js/EWfX5UmYjSCc8/DAZpeeOgdHnDU0ltOTIQjt8qy7+AWgXFth99s4/OCNf/U6vviTWXW539U//9doOqYZpSV+lf9/XwFfgXu9Ah6Y3+tPgL/+oVuBjjCX9k/+mwFzTXxTE3AWmYeAUb7WDSNrfu0hiYcKFgrPHIRms9TlcD1J6qbpc4nwoYAkyOjsEYSq97s0U/NEi/VEEQnaAOY7XLDjAzzNH4I+sbzDWSa56NyaSjVtiG5L1y9wEaWYcw44T+N5Ppg2E+FebCLZdrMrXYSiU0q7PPSV/H3PQdVZxaoLNJ2kaCoGU2H9ufoKDNEKeGA+RG+svyxfgVsVKO7+wLVvexPB2cdwWIsuPWmmyy56xGVGM6mrMSAIASyispSg3WSmL8WdYvWt007mvwGICh6S643sHdPQQrLTlibzXL9yVgGiygBaU3rKPJqy+SSBzk78lNaCnnCWEQ0runjCuPFGaxGFiNAnCScTvakpggKlVFv5lUcXzvKDPPWf6+oe+LbLL38iBuVJv45EF9mfnK/A0KuAB+ZD7576K/IVuK0C0aWTrnhos2t9+/csaTA1vNHl1r0YT81rnCwYniPAh4m5BSGR/JidvuK2c0/iH6KrCBRNCLrPpcdNdfmVL9DgJEywekfh5BUeKl1VfuwjJzCpxdO+xvf+jlO8+4+igOCIo5RQNW/hwU2c+zhEwqtdBiFrotyF7j57q3WIR7/qHuyh9lxPZtpiV//Yr0HNWUVzND3xz01nl+V/5ivgK1DZCnhgXtn6+r37CtS8AvKGDglwETAPTuxhinfDZRevMUpDZuyMmp6fJrkRU3O5syjxMzs1+dNno1lcP+eCvR86l6+HGgSlZcSERANFpVdG+MWHJ/dwznXoDLBO5NwHw1YK2l3pJpPz0zy7N6CC4AUud6E0z25iaS2ikRGeVDz0qTn5lC5cBpQvcrlFD7m69d/CdnNSop+XwfBc+HP0FRiqFfDAfKjeWX9dvgJfqUB09RxhQz+AzvKRC84w6Z082RIGc3MfqCmdJTi1iyX+Y0wTS5zTApfFI3wwbAa69n7gFECUIhAmO2Mlgr5JiT11o4W03XTF7W8whA7wzX7FpetHQAdJ9qT/VkGVvllqvQaNCFqLLCvHT4Pfj1sLtByb/CeMDiKhsPQTwe73ccS5gtY25/LrXoa+8hSiz3VQyvK3Ls3/21fAV8BX4LYKeGB+Wzn8H3wFhmYFSoCygGlpYeOrrn3za87VwXWds9jlV3+dAJdszZbUJUqMLgLMAVYSpGYA54NhE9BVIE509iCNxQmXW/lcss+dxqfEFLew5ccA3BsutwzfbIX31DUOhnIbDcRx/tFNBKGa/DftiG0rRWtRQmgDTUaCtuDMfhce2oj3/Sk+Ww1Gval/6jeZmD8cT8prrO1IUKn8qfgK+ArcUQEPzO8oiP+jr8CQrIDCTZqv4s4CMP/4T1xEMmh64niXW/o4y+pTa+bHHRzH4UTAPFtnwDbJHtu3PRcdqZohE9zg4BasEx9j2r8E0CWHjdtemag/FHa+ZXSQ9GQEoEycRcEZTJtN/qHlyP6xdPOS8bglGk6Pm4nTDG4tNa69TfbNuWcrwHw7oUmhrQLlV79goDwzaTblrvFJDqYb7s/VV+AerIAH5vfgTfeXfO9WoLDjXaO0iGvucgE8c6bUs7FPxIauFnjBJubyBWdyq8CezPhZg+rmiFpR3L0BD/YlNBYL8aSGs5/gaWjxyCZXwjbTZVihmLbMwPmgKrhOVk1RyxULTgoObUWbgGWlGg0cclIZKCK1oudoVQJeuehZ4TFCnU6dofEZS6rn067h+b9u9qSpXN2gK7c/YV8BX4HqVsAD8+rW2x/NV6CmFQjPHHLFA58ZOFcSYWr4MJe77xmXQXSZyuaqfm6iJdjkM1eP/eBEPMHHVf0cBnJAs3sEnJcAi+nRhMaIs18rYNiLC1HcvRxOosunXHbuOlxwlvfiXQl7iWwIIzzl5XPOakuEB76DjpWZg6B59BQA8KianLAEzNG1M664613oTeecC1J4lT+L0PZpl1/6hDVDSXfvqUnh/EF9BXwFbquAB+a3lcP/wVdgaFdAtoThuaOu9Z3fNy/uUrGZ0Jl1THzvM1BT7WlvqfU6y/2tgJaceVObP/UgugUWHnPpGNPb3eZJnbvvJaa21W9weluyCFeT8Ox+6DebceZ5KNGBTj1dk4CwxLcBdoTm1oKgUhqFzLhZMTWrmg0SzYIa3fDUHhce3gEoT9OoTcEa8VddbuEDUG1q637UUy39730FfAWSUwEPzJNzL/yZ+ApUpQIluOat7/+RK+7ZAEg75NLTpgHMV+BtvS4WglblLIbGQSwNlOaisOVVhqEkOj7wHWLjsSFMKJ3FRKundrvipp/Di38Y0PhYoif8PT4lAOIITneIlWKw51OXnk6AUgdFp2o+7R3C2gBrxACv9dKNZqhhMyxht/7R77IaNTichnqstX+Br4CvQFUq4IF5VcrsD+IrkJwKlApEtBMPXiANVGLQVGMdgGYuy+4v4nE9DHCe8ETF5JTSbB6V7ljY+qpzxYLLLnkCOs745LqdENgjx5Di5tddZt4qJuYEDdUNHtvEzm69mg2tBETnD0OLuswz3OByCx4x15bOXl/un1lOgFZNjmxhYn6MBq3ORNX1D/+KpXymhiFK9ZuvgK+Ar0AvK+CBeS8L5V/mKzBkKiDbuesXXWH7W67tvX8PHeCmS40ZwQT1qdh6rrE2HN3BWl85cRR3v23ppWkEiLHbyfjEXk4IgC1ufxPBJGJbpsvpUZMTTb/pTSHNrQVaS3j+CCP0wGVnrjJqVG/eO6DX2GfpvCse/sxFp48611xEUC0b0hcIEvomug3EngnzWB/Q9fo3+wr4ClS8Ah6YV7zE/gC+AkmsQMkV933i2jb8MVO+feT7tLj01LkmCBSw9FsfKgA4Kx7d4krXzvKmFLSglYl2lwkvn3DB/g9ZKRll6ZlykzH6TR8uOZEvhdYSG57zrypRiaSPCM8jqN7yplFY0iPGu/onYr/yzNTB4cmfyHvpT8pX4B6ugAfm9/DN95d+b1cgJHFTlJb2T39o9IbUMOLllz0aTxs16asSuBn0dwFHlgBBZXQRh5nrF1x2/nqzTkzqdUU0EMHRzYZhLbVU0+XBEjSUsKIqRTc8vhN7xAMuXTeaaflSgPlv4Haz2OwRE3a6/nR8BXwFBkEFPDAfBDfJn6KvQCUqIM/l6NoF1/rzf8v0/GPzYM4uYdqLjV56pOgNJIL6recKIP5T/Pr/z957R9lxnmeez62693YC0AjdyDnnHAiQAMGcRVGiZHlkOYxnvSt5bM/Ozo69xxvO/rlz9hyPZ3y8loe21ivZspUoMYkgQYIECYLIOcduAI3uBrob6HRDpX2+alACSYDocPt23Xufe9xCh6qvvu/3laW33nre5/Wa2AX08gnqzNlsaPKSe583REeEzix0DwnYqAfJSraIXzdkDaaGCMHAL8u3JIGbgXPqQwblx/hARncjvilJLt5MGcsToXXmwC+iEURABEqRgALzUtx1rVkEDAHjJsHgIvP+P8I0HnKvnIA1rhb2lIWUtLAokEGbPr0gYJxBGOT2OIPsQGLpQ6HDTS/OHJJDTNdX/9q5MMNv3ook5m8OZS1DMpkCvWjPQ20jnBPv82HsCnXkcZRveBFl93+DQfk4SoPUSKhAt1bTFoEhJ6DAfMi3QBMQgSEkYPTRZ+nQcoQdQXe9zGCc/svjJiGx+FE2H6K7yBA0HRpCGv2+tPHUNl1MnX1vI7HiISRm3RdZKVAYVN5oCNvag/NOLH0SVtWofq+95E689YbEPb+bBZ8sNs1afEOyAMnVz4UNhXoKPq2Sw6IFi4AI5IaAAvPccNQoIlCYBBhk+J1toad5asv/Q0/oNsSqaPe2hLZ/NTNo/Te6MNeV71kza+5eOojsR68xMN9EnfkG2uZRChTL90TufT1j7xhwn50zH1HO0o7kque1z/fG9qsjzION13ASzpFtCFJZ2NWTQgeWxLwNoSPLrw7UNyIgAiLQDwIKzPsBTaeIQFERoN2fW38U6R3/EnYD9buvsXiRTYdMy3ba6enTOwLu5SNwPn4tbNwTSoESFZHMmodNkdJdtHjcSieRViTXfgXGTUSfXhAwD2CNtwo+z5/kG6ZhiE9bhoon/vsez3IV0fYCog4RARH4IgIKzL+Ijv4mAiVCwG8zTh37KWf5OZyL+1kMmIA9ewUb0JjCwCp5MffiPnDDjppvwJ63GolpK+nKwcY9sQhKGugiY2oLsgdeo8VjM5L3fZ3FvrW9WGGJH2K4eQ515dvgXaLFaOtN1mKs7Cn4XPVMz1sHORmV+E2i5YvAwAkoMB84Q40gAoVPgN0TA2ZRU1v+Bpn9v+Qr+g7Y06czOF8He8zU/DRrKXCKbsMJOPvf5JuGZYhPWUrdNmVAVgQDc2Z9A9YWZPf+DH7rVZRt+A0G5uMiKbuJ0i0RSoBYOJvd/xq15Q09BZ8bfxNlq56FPXYqYCxG9REBERCBARJQYD5AgDpdBIqCAFu1g8FaZt8v6dDyNtwze4DKOKwJM+jasSlsMx9FvXSU2BtPa+fAFj7QLAklQKE8JKpdHxmcZ/b8BH5LA8rWf43dP01gHsGHiAhtsH/jKtzLR+FdPEJ4bCRVOw3lD3yDhdIP8cG1XPwitFeaiggUMgEF5oW8e5q7COSYgHflVOhpnt7xI2bQWQg6nBpaejPbNdMpaRmW46sV13BhYL6fgfkMBuaTF/NhZkykJUCZPT+lZeIVSlleZAHj+Ghm96Nwi4RvGFx4V0/APfEB/Bs3YA+fGDqwJJY8zLcjqsOIwjZpDiJQLAQUmBfLTmodIpALAmEh6BF0v/qf4TWeQ4AM4nOX021iESUt03JxhaIdI5Sy8I2DPWs5m80sg1VJC8IoSllu7cCvA/Ov3grM7aLdmwEtzPj9pzvhXNgDd/8HYWY8MXMVKp7+Q2bN+cBaNXJAw+tkERABEbidgALz22noexEodQLGo7nlMrIHt8A5+h6bDh1DbGQ14rNYCDrnfgYlDN4iaAEYhW1zG47D2cvAfM7KnsC8ggFbxAPz4HoDEvd9RYH5F9xAAesvvCtH4dYdhl9XRz35dCQWPIDyzb/DtyLcYzvxBWfrTyIgAiLQNwIKzPvGS0eLQNETMIWfJltuGg5lD73NBqEO7GkzGYxsZnZwFJsOqcjtTjeB0R87e15HfP46xKev6nGzibBu+9cZc0lZ7rSf4e9Yd+GnO+jz/27YTCi42R1KWJJLH0GSMhbEk3c9VX8QAREQgf4QUGDeH2o6RwSKmQCz5vSFQ/qDHyLz0Y/h0UrRGj2cRY1LYU8y2mk1HbrT9rv1h5DdyQZDyx7gG4b7+ADDoC2q9nlh8eePqTFn8adpIz9ibHTneifYefpdkE3Bv9lEt53X4V9rISMblc/+MZLLH2fBrGGmgtk8bYUuIwIlQ0CBeclstRYqAn0hEMA5uzfsbmhkLb7TzuC8BolFPR1Bw6CzL8MV+7HMrIaB+a5fsvPnZiRmr4+ujIUOPAFrCbL7f4GgrQnJ9cbHnEGmPp8j4LXU07P8CJ1YjvFhtTxsIlSx+bcRn0N//6R5cyRd1+eg6RciIAIDIqDAfED4dLIIFC8Bn81nwo6g736P0pazLAR16dBCmQa7gVrGxUOfXxEwmdWw8+e+rUisfBgJZsyj+jFBOZwUbTG3IGi/juS6F9X587ObdcuJxa0/AO/ULmbNb9KZaBZlLI9RwvIQO+PO+uwZ+lkEREAEckJAgXlOMGoQEShCAswCe61XkNn+QzhnPoZ37SKscWOpN1/SUwhahEvu15Io/fG7bsBj8ad78mMklm4ONeb9GisPJ5lixiDVTlvM9xB03kByzQs91o55uHbBXOKWttw9vQPusX2ctoXkok2oeOrfhp7vsQpZhxbMXmqiIlBgBBSYF9iGaboikE8CphDUvXAw7AaaPfwWX9/bsCYZVwo2VamsRizBxiql/jFONq2X4DWdZYHgaRZ/UmNOH/OofoJMN/z2JrqMHGCjnBQSy59ml1JaO+rzKwLmDYjXeIb3/n74ly8zWz41LPosf+h3ec9TwmLHf3WsvhEBERCBXBJQYJ5LmhpLBIqNADOHQbqLXSJfRXr7D+B3tNA+sQrx2av5On8uM601ktn6Ptyrx9lF8zIz0K0s/FxDLfKcyN4JAdvKe9cvwmu+wDkGSC58OHzIiuyE8z0xylj87ja4pz7gW5BzQGeGtRWbETqxsOhTHxEQAREYTAIKzAeTrsYWgYInYKIUH875/aF1onNsO/zUdVgjR1Jvzq6H4+dFt8gxX+z58GKazwR07zCe1jaz5faYqfm6ep+v43e20Jf7GIKuNiBRQVnSelo7Du/zOEV7gpFw3WyEs+9VutZcoxFLJSoe/X0kFj7Ih9GZRbtsLUwERCAaBBSYR2MfNAsRiDQB/0YjixtPUG/+T2w6dByBz46g81fBnkILxZEsBC1h2zhTTOkcfwcmE23VTmM3yJkspqyN7H76N65SorGH87MQGz6GLeWXIVZWGdn55ntiPt96eM1n4R7dTqlPQDeiyah44tt02lmNWIUeYPK9H7qeCJQaAQXmpbbjWq8I9IcAddQmw5ra+hKD0A8phaiDNXEi7KmLEZ/BgMU2nt39GbjAzzHuHV42tB5ENo34vPsZlI9lBjq6xYHGAtA9/h5iI2r4IDGdDxKzenTTBb4VuZq+13iKbkSH4dWdgVU5lvf3clRs/hY9/Ofn6hIaRwREQATuSkCB+V3R6A8iIAK3EwgYeLrn9oaSlszunwPlSdgTptKF5HFqlEf2NNS5/YQS+D7wPGZVu5DdRx78JFc/z/+o4oNKdIsDvaYznO8bfNuxAPGpzJYPGxPp+eb1NuKDlnOGTixnjDSpnUH5KpStehaJefdRviWL0LzuhS4mAiVKQIF5iW68li0CfSZgLORY/Okc3YbU+z9A0HEdqEqw2cpaam/nlGSTmiDdGXaGNLZ6KKtActXzPW8P+gw3PycYq0Sv4SScA1tgz10d+q2HzjpR7VCaHyzhVYwkKch0wj3xPh9AjyEW2Ozw+QTKH/wtWKMm8i1IVR5no0uJgAiUKgEF5qW681q3CPSTgHvhADIfvwyH2XO/q5lBy2jEF9AicNKSkpOzhHrtq6eYXW2mXns0kvMfYgGo3U+yg3+aTzmSCczdEzsQX3h/T4fSwb9sQVwh4JuPUOZzeif8Kw2UJI1B2YYXUfHIv+F9TZ2WHl4KYh81SREodAIKzAt9BzV/EcgzAf/mNQZ3p5F+//+jGwm9sO2A2uoViE9bSVlEDTPG0Q1Mc43KZVDund0VFlFaNdMQn7gw0i41Rj9tGkX5bVcRn7k60n7rud6re43n8w2Qe3YnHWvOAikfibnrkFzxJG0SH1VQfi94+rsIiEDOCCgwzxlKDSQCJULAc0Jv89S7fw/nyHssBL3EpkMsBGVH0PjkJWxCRIePYi8ENUWfvssiwQMspPyQ3uV0qJkwn3IeurFEOLPqnP4QJssfq6iGPXF+pG0d8/r/TbQE9Vrq4BzagqCtlS41o1G+8RtIzN9ATrQE1UcEREAE8kRAgXmeQOsyIlBUBIx39/HtyB5+F5kDb9IPm4nicZOYYXyWTYdGRzo4zck+BD4fTjr5xmAvvBO7kFj9JP3Ll0b+bUFm78t017nBuoB1sEdNCgP0nPAo8EF6On2ehrPnl9xXl04101H5lf/I4lg+aMpKssB3V9MXgcIioMC8sPZLsxWBaBCgfaKRQzgndyC17R8Y7LUAlUl6m6+HPXYW9bnsCFrEn7CI8tp5+M38YsfPxKKHuO7ZkX0gMYFn0H2DD1PvsWGUSyedJ2856fCJSh94rZfDpkvuib2wykYhPn0ZKh7/AxY1z+ITZ+lIs3QriIAIDD0BBeZDvweagQgUJgFmjd26I9Saf5//HoWfbuFrfzbYmUG9+YQFkQ1ScwHbFAo65z4OmwrFyqpC20GrOrp2en476wJok+hfqwvdRRJLaHGZKM8FiqIYw60/RN9yfl2uC+/dxMKNKFv7PAubJxTF+rQIERCBwiGgwLxw9kozFYHIEQg7gl44iMzOn8I5v5dBH73NF6yl7/MmNgNlpjHCeut+wzRvC+hukj3wKqUrtIucTY/rEeMibafnNVKmceIDWNW1MEWq9qRFnHt0vdb7vTf9PDHLzq3euUMI2juQXPQwkmueQ4IPmLGqkf0cUaeJgAiIQP8IKDDvHzedJQIiQAKhRKK9hb7mdGg59Daz5h2wp8/sCVZHTijKrKxPSYhP6YN7bk9oqZdYSIvEREU0A13TsdV4c18+yiLVjxCnd7lN5xhjBcgnJ93DLPoM3AybZr0B78IpwA1QvuHrKHvgN8KGQrFEmRiJgAiIQF4JKDDPK25dTASKk0Bmx4+Q2f86vEsngZFVPV0l2TXRqhpVdAv2qCs3XuBB6iazz+x8Ouf+yK7RNM3xWy5yvrRJvHwaiWWP0G9+caQtHfMJM3DSrI9oZWC+hd7lV/jWYzgqHv49lG/6V2TENwrF+MYnn4B1LREQgT4TUGDeZ2Q6QQRE4LME3LrDoUtLesePEXhdsMbUIrHi6dD5o6iCG2agnfO7mF09CGviXNjjZtFycNpncUTjZ2Pp6KS4L+/2aOEpYzFBuVVN3XSx21n2cgf8zlZ4jSfpRb8fQWeWEp95KF//Ytjxs6ju217y0GEiIAJDT0CB+dDvgWYgAgVPwO9sgXv+AFJv/S0ztJfYnt5idvZhBq6zack3ouDXZxYQuPRv72QTmvqD8Jsu0oHmftrqzWSWdVgk1xdQVuTfbGLTnI+BeBnlRetoZTmG9n9qLf/Jhnmtl+Ce3gG/sZ7KnhFILnuUDYX4VmHmyk8O0b8iIAIikFcCCszzilsXE4HiJeBdPRMG5u7FQ9Sat9Ireym9vRczeJ1RFIsOUu3Uah+hvrwB8LKIL6BF4qiJ0VwbM/vedSNhOQm/vZnuIhNZ1PiYMuW37xYZueyE6ux/kw9cndzLaSh/5PfCok9rzOTbj9T3IiACIpA3AgrM84ZaFxKB4ibgtzWy4dBWfr0D99Ih6q9rQuvEBF1LCv0TarVv0rf9yNYwQ25PYtfMmhnRzJabgkY2PzKZfY8SI4vyDHv8HM53eqFvQ07nbywvzYOWs+8dervHEJ+yGJVf+p/4lodvQdRUKKesNZgIiEDvCSgw7z0rHSkCIvAFBIJUB/W652id+BNkDr6JWNKGPXMRm+88glicntlW4bqAmEDXa6MTy+md1M9PQmLmOsp1qqLnxBK6sHRxH06HGfOgs41OLGz6xKA8lqz8gt0rsT9Rf+/daIBH/3L3KN11KPGJz1mLyqf/iG4s4/hmoXDv1RLbSS1XBIqOgALzottSLUgEhoiAaVNPHXb63b9H+r0f0EqxG9bUaUgseYSBT01BWyeaBj0+Azn/ZiMD8ymI03Iwip8ws9/eBOfwW+FDgzXRZMvnwqqUH/en9svIWJgt9+oPs5D3XJgtTyzaRKvEr9G7vPichD61dv0gAiIQaQIKzCO9PZqcCBQSAaYh/QDZ/W8gs/sXDHyOIzaMDYemL6F94tIwK1lIq7l9roGTCR1OwNb2pngykgWtRlduMuVXT9EC8AZizOzHpy6n3GYE31gkbl+Ovqfcxzm9nYH5MRbyXg8LPpPLHkNiwQPRlCdpx0RABEqGgALzktlqLVQE8kPAFH9mj72P7N7XmEG/iVjNOJgmPKGtoHyhB2UTzIOD33WdXuUMNK9fZrHn+B5d+bg5g3K9Qh/UvFlwDr7GwJwPMZ1plG/8TSRXPQt7Al2E1FSo0LdX8xeBgiagwLygt0+TF4HoEfA7WhjwHEX3a38J79p5ZpfLkFhDT/OJCyivUOY25zvGTLnfcS20RTS+3CY7Hp+/KfQrj9lskqPPpwkYHb6bZS3EP8O/VBe+5al85k9Qdt8LvFeHsxbC/vTx+kkEREAE8khAgXkeYetSIlAKBMLsbfNFdL/51zCNh4JsO+KL1yE+eQmDxfGlgCA/a6RyiO7q4cOP6Ubqt16BNaIGFr3V7Zpp8iu/yy4ElCP59KN32KnWv36D+vtqVDz5HZStehowD456q3MXcvq1CIhAPggoMM8HZV1DBEqMgH+zGekPfwjnxA54TWdgT2OHzGlLGJwvLTESg7Rck/U17eS7b9Cakt7qbVdDCYY9eSHfTCykqQizvgow7wjfvFXw+SbH3JtIBZT8zEL55t9GcvHmOx6vX4qACIhAPgkoMM8nbV1LBEqEQNDdDufUR8ge3ILs0W2Ija4OA/MkrRP1GTgB437jt9bDPbcbQYYFqZXDEZ+1FtbwsQzQKxiUD/waxTqC13oZHn32vboTYbfPxLwNKFv9jLp9FuuGa10iUGAEFJgX2IZpuiJQCARCOcv1S3Rn+TnSH/wTYDzNp85GcuWXenTm0vH2axsDzwEy3eFbCL+tgRlzFtdW14YWjnYNG+Mk6BevTPkXsjVvcIwfvd/cQOnPZJSt+RIS8zew8FOFsl8ITn8UARHICwEF5nnBrIuIQIkRCAvsMiyw+ylSW77LrG4XrAnjGJg/S5/okT1Z3RJDMqDl3ipYNNIVv6M57OgZMEC3Rk+EPXmRHG/6ADfs9nn4XQQdHYiPX4DyR/41fcwXsrGQ6h/6gFGHioAIDBIBBeaDBFbDikDJE2DDoezhd5gx/2d6a58BKi12V1xFTe88Si5qSx5PrwGwyNNkyr1r5+A3nqHv9kVKg8bDYoGnXTujx6dcFn+9w8kHHOfCHjh73wYclx1c16Dyy/9z+IATKx/WuzF0lAiIgAgMIgEF5oMIV0OLQKkTCD3ND21F9sg7zJq3whrHpjdz7w8DylJn06v1M5D0bzbBa6lD0N4cdlM1AnJ73CwGk1P5gFMj6UqvQPIg89aB3Wid87vh7tseFssm5m9E5Vf+FBbf4oSOLL0dS8eJgAiIwCARUGA+SGA1rAiIAC2iWxtCy8TUtn+gLvo0s7v0NF/5OKUDSxhQWkL0RQSMHSLfOjh1++Gd3RPysmqnhkWesfLh9CtPftHZ+ttnCfgefD7cuOf3wD26n9adY5FY8hAqn/sfEUuyYFYfERABEYgAAQXmEdgETUEEipVA6BlNK7/uV/8zHUT2sLFLBvFl6xGftoJZytHK9t5r4xmce22X6Lddj9iw0SGzGLnFbGOHqAebe+G7/e/GycY8HHoXD8I7fzbUlSeWPIzyB78VZs9vP1bfi4AIiMBQEVBgPlTkdV0RKAkClA/QOjH19ktwjm+Hx8ZD9uy5tE5cTq35XAaY6kx5r9sgSHdSBtRJS8RRzJKXMSC/1xn6+50IGN9398K+sCutf7UJyUUPIrH0EZSteALQ24c7IdPvREAEhoCAAvMhgK5LikApETBZ8+zhrXBYCJo9Qk/zmlGwpyxAYsFmyTFK6UYY4rUaFxvnxLvwLp9BcKMDZetfRHLpo0jMWkV9uR4Qh3h7dHkREIFbBBSY61YQAREYXAKeSwnB+bDZUGrr3wNlcXannILEimdhUSutoGhw8Wv0HgJBqgPZ/b+A11BPL3gPFU9+G8llj8GumQpYkgXpPhEBEYgGAQXm0dgHzUIEipeAccNgttJkzVOv/1cE6Q7ERlZRa/4o7JGTEKsYUbxr18oiQSDgw2HQ2YLsnpfhX2uhhKoMlc//B2bMH+H9x4dDNWWKxD5pEiIgAvyvo4AfgRABERCBQSXA/5pxzu5G+v0fUEpwgmYjXdSZz2M30GXMWE4f1EtrcBEIUu20nLwE5xD9yzuz7PhZEwbmiYWbFJTr9hABEYgUAQXmkdoOTUYEipeAKfx0Tn+M7O5X4DadQmz4MMTn34f41BU9WnNlLYt384d4ZV7bFXhXTtB28gDNbIbznluE8s3fQnzGiiGemS4vAiIgAp8moMD80zz0kwiIwCARMBpf/0YjUm/9LZyTOxA4KdhzF4W+3Fb1eMoLEoN0ZQ1b6gTchpO0SNzLDrT1sEfPQJI2iUkjpRo/u9TRaP0iIAIRI6DAPGIboumIQNES8H22ls8is/2fqDd/B+6Vk9SaD4M9eQ4SczeGreVlBVi0uz+kC3POsdvn8Q+pM+9CYvoqlG36ZuhjbpoM6SMCIiACUSKgwDxKu6G5iEDREwjgnt2H7LH3kdnzCjtbphGrrkZ8zjpY1JpbbKKjjwjkjIB5GKRdp3PmQwbme3m/WUgufhiVT32HUqoaxMoqc3YpDSQCIiACuSCgwDwXFDWGCIhArwmYhjnu2b1IbX0J3rU6BAzO7YnT6G2+GPaE+dSbU9Kirpa95qkD704gcLPwbzbBPfMR9eWn+OA3CslVz6Dy2X/Xc4+pruHu8PQXERCBISGgwHxIsOuiIlDCBHwPfusVZjF3I7PvDbgXDwBJeptPmk6XlqWwa2cwk1lVwoC09FwRCB8CLx+Gd/FIaJMYn74MZcufCJsLySIxV5Q1jgiIQC4JKDDPJU2NJQIi0CsCxtfcv9mM7IE34VDW4jado590AlbtRGbP58MaPRnW8FqOxf7zakHfK6Y66DMEaNHp07vcOf4u/MY6NhVib6s1zyFBKUti7rrPHKwfRUAERCAaBBSYR2MfNAsRKEkCbt0Rtkn/kHrzX8Bvv8YOjPy/8RNYELqQxXnLgHiSqhabwbmi85K8QQawaNNUyL/RAMfcW203WFxcjconvo3Eggf44DdxACPrVBEQAREYPAIKzAePrUYWARG4B4Ggm41fqDN3TnwA59THcC8fQyxpszBvBGJjGKBPmAdr1CRYlSPvMZL+LAKfJuC3N8NrOgP32A7AtSmRmo6Kp/4w9C6PJcs/fbB+EgEREIGIEFBgHpGN0DREoFQJBOkuBlDnw+ZDLnXn5vvA6QQSFqyxlLSM4dfIiYgxOI+VD2NxKIMqJdBL9Xbp9brdK8fg1R1ip9kLsEdMQnz2GpQ/8A0+7Mm7vNcQdaAIiEDeCSgwzztyXVAEROBzBIwemJpz7/IJpD/8Z2bOTyDouhEeFqsqY/Z8LItDF8AeO5Pac3pPW9S86CMCdyMQANkT2+Cd3sv7KIXEnPuoL3+ewfkqWCNM7YI+IiACIhBNAgrMo7kvmpUIlByBwEmHwbjXQPnBpeNw64/CazgFv7uNWXKmyKuqEKsaEXqdx6rHMcAa21Mgmihn19B4yfHSgu9MIHAyLPq8DvfUh3RjOct7I4nkymdR/uBvwaqupVSq4s4n6rciIAIiEAECCswjsAmaggiIwC0CzJyDRXtGd+7WH4F74SClLRfCwlCjRw/8DAOrODuGjqa8ZRxiDM5jldSj014xlqhgAF9GCQwz7Da90E3RqD4lR8DvaoN3hQ91Fw8jaGmnHGo6ytZ+GeX3f73nnlAhccndE1qwCBQSAQXmhbRbmqsIlAQBE5x7CNwMW6i3wW04zQYxu+FcPEQvajYkYifHUGNuMYtOSUuskgH58JEsEp1wK1hnNr1qVBioy82lJG6YXy/S3Dqtl+Ac2gK/pZkPasNQtuJJWiQ+RDnL2l8fp+9EQAREIKIEFJhHdGM0LREQgYDBeTYMzv3WBlreXWXQdYXBeT3/5c83GhF0tCCAxyCcmvNySlrKGKTzC5QrhFl0k0lnwSjMv3TiiJWb7LopIFV30WK8v/yO6/AaT9GJ5SOKzH3aIk5BxaO/TyeW5XxoG1+MS9aaREAEioyAAvMi21AtRwSKloDpGMoMutd4ltrz0/z3HLzrlxB034RpWGQ06qC+OHAdIPBCV5dYBQP0quGhNj1WwX+HjYFVQetFI3mhLj1mUZtuCkmN7IXfh57plMGEmvUYfy/ZQ2HcTsyUc9NZNHwEHiVQXv15vjWpDQPyisf/gEXD03v2uDBWo1mKgAiUMAEF5iW8+Vq6CBQWgVsSFxN8myA8y2LRDK0WW5hFb74Az3xdv8zMekNYRGqKABHKXSh5idMbvcwE47eaFVEqE0skmWU3mfXKMLsOZtatKloyVlG/XjWmJ+uuotLCuEV8n89iDpwjW6gtP86HtQwbCW1EcvkTSM7fwAeyUVyHPDYLYzM1SxEobQIKzEt7/7V6EShcAqZQ1GTRaasYUMLgt/Ors7UnKOfvvOaLcI0uPdXBwDxgEeAEBt0MvI0rB4M4mPNNrBZmW/nvJ9nx8F8TzLPraCiJofTF+KeXM+Nusu4m267C0kjdN373DfjXL8A9vZva8lZYlCyZgs/k6mfD2oMYC4L1EQEREIFCIKDAvBB2SXMUARHoPQEG3Eba4pzagdTbL4XadCQDxBduoKRhdo/FYuCG2XYTtAdpfqXo+GL+NUG++epsDwP1WJLBeWV1mHGNDa/huTU9GnVaNBopTI/85ZYc5pPAvvcz1ZE5IBDQxccE5c7pHQiuNfFBqwzxKYtQdt9XkFz6yK8fuHJwLQ0hAiIgAoNNQIH5YBPW+CIgAvknwIx49sg2dL/8f4UZ89jIKmZPn6H3ObPmlK6YbHlA+QN8t+eLwV3A7LvJpBtJRPhvlrr1TCeDdhO4M+ue5vfsUhpq08tZTGoCdeOnXj2emXQG78rK5n+fuY9+exO15bRHPLGHEiefD1+z6Fn+TSRmrIBVMyX/c9IVRUAERGAABBSYDwCeThUBEYggARN0M/udPfQ2A/P/xBjcgzWuFsk1X4FVSa2x0Zn34hM2PDKBuSku5ZeRSyDF710G8+ZjikeNu0soeaFO/RO5i5G8GOcXI5lRFr2H1WD8Jx+kzB65dfvhXToBv6EBds00xGmLWL7xN+nIMrFnDwbj2hpTBERABAaJgALzQQKrYUVABIaIAAM273o9sgffRurNv2aBZwL2pOlIrnq+p8hzINMKfAboDNKZpfVp3Ri0sfC07Rqz7gEDcxaSjh7PgHASrfnoqV5V0xO0G9cX4/BiBO2qPxwI/U+dG/CNhk+7zNCzvPEq94D1uvQsTy57FIm59/W8GfnUGfpBBERABKJPQIF59PdIMxQBEegLAUpRnLN7kT28FZmdP0Vs1AjYk+chsfChnGRQQztGl44wbHRkgsPwK5S5GLlLV6hdh7FsZIFobATlLiZI51dYPGq06foMjACLdQNKkLxm2mae30dHnssMypOwR09G2fqvcp83shaArjoq0B0YZ50tAiIwJAQUmA8Jdl1UBERgsAgYm8Ts/l8yMH8HzokPYE2aCHvqYsSnr6L0hBaJuf6YQDHTQXeYNrrDXGM2/Ro16TdDT3UwEI8ZPbqRtoRSFzY7otTFKjNyl6qeTLqy6L3fEcPay/ItxWXKV6grv3Cc9QAxasn5RmTRg+zwuRnxyQt6P56OFAEREIGIEVBgHrEN0XREQAQGRsBkstPb/iEs/vSunIQ9Zz7s6SvCosCwcdDAhr/72dS2hx+jcXfptd7NZkjX65jRvchupVdMmpcOL1XUu0+ndeMs6qFnsJERNepG6qJP7wiwYNdIiZxjb8O/epEPQqnQKcdkySue/HboQ280//qIgAiIQKESUGBeqDuneYuACHyewK3Cz+5X/gLO8fdDDXJ86VrEZ67paRqUryDYNLwxwbmRuJiC0fCLloymmJQZ/bDjKDPo8clLQmeXzy9Ev/kcATL1aIvoXT7Gzq9nWYjr0AmnMmwiZJoJxWet7HkjEur5P3e2fiECIiACBUFAgXlBbJMmKQIi0CsCDHqNlKSLNonO6Y+ZpXaRWP0QW7OvYdBGffdQyUb4wBA2wTFFoywYNVp049hiT18Je9SkXi2tZA8K30BQvtJ5HV79YXh1lK+k+HAzbCz9yhegbN0LiE9bRstKSoOGbINLdne0cBEQgRwTUGCeY6AaTgREYOgIGJcO7+oZpLb8DdxLh6nrLkNi5WOIT10eBsJDNzNe2WTRad0IeqYbWUvYcdRo0Htp3zikcx/Ki5sGQgzKnTMfwW+kfOVmV6jPN1ny8k3fhD1mEiVCI7i/kgQN5Tbp2iIgArkhoMA8Nxw1igiIQAQIeE3n2fHzY2R2/QxeWx2sMcyqGpnDhHkRmN1npmAk6UOVwf/MVCL54y2fcq/5HLzGMwzK6/imIUsLSjaLoqY8Mf9+JOat73HaMV1Y9REBERCBIiCgwLwINlFLEAER6CHgnt+PzL7X4Zz8iO4d7bCnzKNcZDmt9NQBspDuEdN91TSJ8m82wbt4gM2D6owqCdaw0bDHz0b5hq/DnrY4/LmQ1qW5ioAIiMC9CCgwvxch/V0ERKBgCGSPbAsdWUzmHFV2mFW1amcogCuYHeyZaBiQN52hT/lBFvC2U/5jgvIxzJQ/yCZCT8CqpbNNFeUrljLlBba1mq4IiMA9CCgwvwcg/VkERKAACLBAEMyyZva+Fnb79LvbaUk4mvryZxnAjc5JY6EoUfA7roft6I0ve9i4KFkRpen1ay4BteTGvca/0QDf2Exev8yva9STV1NHPgWJ2asRN19Tl/B3XK+C8n5x1kkiIALRJqDAPNr7o9mJgAj0hoDRI9PfOr3zZ0j98q8Am44nU9l05r5v9HiF0wGlaD58CHEbjiPobKXeOsmuouN7rCDpiR76tBdax0uzd0a6kmqH11JH15UjCFqa+TPtEJPlsCfNR2LOWpStegbWqAncW2XJi+Ze1kJEQAQ+R0CB+eeQ6BciIAKFRiBw0vCunAoz5pmPfozY8ApqkOcjuexZZlaLzK3DvBy4dp5fF9i4iAWRXF+sklllI++g9aI1vHboHWh6ewOZhkF0XPFb6lngeRp+axOCrm462HBZw2qZJV+DxNx1tENcitiIWvqWlxXO2nrLQMeJgAiIwG0EFJjfBkPfioAIFCaBINWB7LH3kT30dthYyBpXy4z5YgZ1G4sykPOZLfdvXg0D2sB4ojPrbLLLKB8Oq2IEA/WR9PWupsxlGP3bGcxG5eHEONHQKjIs7Oy+wax/C9fRSG/3RgStzYAb45z5kDFuBjPl85CYwY6tE+fCGj2xMG9MzVoEREAE+khAgXkfgelwERCB6BEwso70h//CoPwDyjxOwJ4xm4H5UsQnLS5uS0IGun57IztiXuQbg5NsUX8jDNKt2skskJzGgHYqLGbTe5orUc5jJD1DIesxNQCmUZDxcXezoWTFv3qaHTzPMzjng4VrUuQWrBG0t5y8AMmVT7GT52pKdKr5ezt6N5xmJAIiIAKDRECB+SCB1bAiIAJ5IsCAz7/RiO7X/hLu2T3ssNmK+OK1DMyXwR5JTXKRf4yMJ8h0h4WTQVcb138TyHQyK93VUyDKQslY1SgGveNgVY/ryabnqwuqCcY5P7+rhY2BmvkQQe04O7MGXe2cL+eXZgdPuyJ0zbEpV4lPXRQG5taoiezsOar46gOK/F7U8kRABAZOQIH5wBlqBBEQgSEkEGRT8JouoPsX/ze8S0cR2AHdWB5hgLc47BA5hFPL+6WDLAN0Bub+Dcpc2qnX7mCBqOkyGrq3VPVIW8qGAWX8nk4uMXYehek+ykDdOLyE3TP7Uydr5Cmmo6nLIk43EwbjMA8MTiqUrQTsyOq300mmvTXMkMdiLFQ1cxhRQ4956uKZ3Y9PW8JGUHPYFGry0GT1875buqAIiIAIfJ6AAvPPM9FvREAECoiAyZa7Fw8j9dZ3Kem4wExrFRKrn0Z8/HwGeAW0kFxM1Wi48YlshAE53U5MgO63GevB+rC4Ehl2zywrY/Z8DGLVY/nveBbL1vbYSprgvK96dJMVDxsCMUtP3bjfwYw4M+P+Tf7b0cbfpXqkKjzOyFnM9KyR40LteMJ0ZZ2+lE2DZlFhwyJdc23zrz4iIAIiUKIEFJiX6MZr2SJQLATc+qNwjm2nI8urCLJt9C+fiPiCB+l9PbVYltj/dZig2WTR00baYuQjHZS9UELipsPsdpjhZlBtikdBhxRYRoNuAmQ7dHoJC0dNJH37x4xpjg8z5NkwQ96THWfAz4w5HGbMs/ze4d+yzKLDZkEqi1IpTzHZcJtfppjTWB+GX8PpM8+CVX1EQAREQAT4X8EBPwIhAiIgAoVKIHt0G7J7XoVzfj9dSRgGTl9MGctSaqppG6jPpwmYoNpITExmm44oocSki/ISNmRCN4P2Ln45DLr5iQ2rpNSFGfRPPrf+lyL8n4xPAnOHTYH4FRZvxhjMxxM9shkjjzEuMfzXqhxOycrYHqcVZsZNdtwazmw9HWP0EQEREAER+DQBBeaf5qGfREAECoyA8S1Pv/f9sAA0NnYM4mzbbtPPW4HfXTbS5GKYHQ8dUsJMORv88N+AAbpz7F16ozcBaWa8v9DBhWOYQP1WsG66cMZMVpwBt5GpWGMmwq6ZGnbsNFnxsJDTeJCbJkgmeDdOK5Ks3GWD9GsREIFSJqDAvJR3X2sXgUImYFq4U6KR3v5P/PoBdc5ZNhWagcSyp3qKHBkE6tN7Aj4dXZyDr8NvvETJi8vM9sweFxcG3Iyifz0QA/aYCaxNQSmDbZMZN4WcKGOG3RR0Vgxjltx4qdOmsYp+6sZL3RSZDoVN469nre9EQAREoCAIKDAviG3SJEVABD5LwFgEmoJG41+e2fUyZSwJxGcvQXI5u30qCPwsrnv+3BOYv9ETmGcDlBkvcVoYmoz37XG5yXTHTOabri4o73F6MRpymEz4pw685yV1gAiIgAiIwGcIKDD/DBD9KAIiUBgETPdL99ROZPb/Es7pHZRPjGZjoeXs9vlAYSwgYrM0PLP7fgG/qYHFRwlUPPltJObfz6z52M/P1Dz43JKjhNnz8PvbsuqfP0O/EQEREAER6AUBBea9gKRDREAEokfAb7mCNPXlzqmP4F07RxnLJ90+F0ZvsgUwI7/jOrK7fkqNeXPY9Kfyq3+G5MJNoSSlAKavKYqACIhAURBQYF4U26hFiECJEWBDG+/qWXS//l/g1h+jvrwT8UX3IT5xIYsPx5cYjBwslwWhpitn5qMfIWhppS58OKq+8X8iuYCkqQuCAAAamUlEQVRvH4y3uT4iIAIiIAJ5IaDAPC+YdREREIFcEjB+3O7FQ+h+9S/YVKiegWQciTVPwR47u0f7nMuLlcBYpmunf6MB2Y9/huBGZ+iuUvUb/wcS89ZTNq6GPyVwC2iJIiACESGgwDwiG6FpiIAI9J6A13SBuvKdSL/zPfhpNhUaPRqJlU+zvTubCqnws/cgbx0ZZFPwWy4hu/c1+pm7YQOgyhf+FIk5a/s8lk4QAREQARHoPwEF5v1npzNFQASGiIBzcgeyR95B9tBWIOnDmjAzLPpUU6H+bUjQfZNvHviwc5A8nTibAc1E5TN/jPjMFf0bUGeJgAiIgAj0i4AC835h00kiIAJDSSDz0U+Q2fsqvCsnEasZBZsBZHzCfLV27+em+B3X4DWdhXv0QypXqmBPXoiKR/8N7RKX9HNEnSYCIiACItAfAgrM+0NN54iACAwNAdOh0s0ivfUlepf/HD5by9vTZyG+YCOsYbVhw5uhmVhhX9Vru8Ji2pPwTu1lk6AaJPigU77xmwzQ5xf2wjR7ERABESgwAgrMC2zDNF0RKGUCRgsdtF9H6q2/RWYf9dB2jEH5SiQWP06Lv7j05f28ObzrF+FdPgrv3FEWfk5i0ed9KFv3FdgTZvdzRJ0mAiIgAiLQHwIKzPtDTeeIgAgMCQG//RrcCweRoXuIc3YXYtXDEZ+7BonZGxSUD2BH3Kun4NUdhHfpHOI1c5BY8jA7qD4Gu3baAEbVqSIgAiIgAn0loMC8r8R0vAiIwJAR8JrOI7P7FZjiT6/1AqUWMyhlWR76lw/ZpIrgwm79Ibjn97Hr51XEJy9F2epnQ6tEa9SEIlidliACIiAChUNAgXnh7JVmKgIlT8Bky7vf+Ct4jWeZIU9TxnIf5Rbz2DZeTYUGcnM453bBO7MHflsb3z6sR/n9vwF76qLQz3wg4+pcERABERCBvhFQYN43XjpaBERgiAgEXTfgnNrJwPy/IuhsAYZXILHiCXqXT2HBYtUQzao4Luuc3A735C4EXSkkFz+C8kf+Newacq0YXhwL1CpEQAREoEAIKDAvkI3SNEWg1Al4DaeRPfoe0u9+D0HMgTV2PJKrnqcbSw2z56VOZwDrDwJkj22Fe2w3Pcw9ylieQ8VTf4hY1Ui53AwAq04VAREQgf4QUGDeH2o6RwREIO8EsgffQvYwmwod3caiz0rYk+ayqdD98i4fyE4wKA98F87hN+EeP8CRLJRveBEVz/17utwk+KM1kNF1rgiIgAiIQB8JKDDvIzAdLgIikGcCDB7Br9Q7fw8TnJtGONaUKYjPWMkOlXMRS5bneULFc7nAoy98phPO0bfhnT4eSlfK138NFU//W7ncFM82ayUiIAIFRECBeQFtlqYqAiVJwHPZVCiD7pf/UxiYBw6LPhfSiWXOBliVo+hlbpckllwsOnAy8Dua4Z7YTrvEi9TrT6R/+Qsof/j3cjG8xhABERABEegjAQXmfQSmw0VABPJLwO9ooY3fhTBj7pzfzQx5HPHFGxCfua5HbhGTwLy/OxJkumGaC7lnP0ZwtZnyoPmhVWLZhq/1d0idJwIiIAIiMAACCswHAE+nioAIDD4Br/EcixPfR/bAm/BazsOqGcumQuvpt7148C9e5FcIUu1wG47Dow1l0NqB+Ow1KFvxJJIrnyrylWt5IiACIhBNAgrMo7kvmpUIiMAtAs7ZPUhv+wd4V05Rat4Fe+ZSNhZaRNnFZDEaIAG/qw3uxX3w6o8DXS6SSx8JvxILNg5wZJ0uAiIgAiLQHwIKzPtDTeeIgAgMPgHjGJLtRvbINqRe/y8IutuBanqXL38c9shJ8tjOwQ74Hdfhnv4QXsM5WiXGqS//MpKLNrOwdnkORtcQIiACIiACfSWgwLyvxHS8CIhAfgj4Hrxr9Sz43ILUlu8CSRvW+En0Lv8SrIpqFX3mYBf8m410ZNlKDf8VxKwqlG/+bSTm389uqrNzMLqGEAEREAER6CsBBeZ9JabjRUAE8kLAOIY4Rlt+aGsYnMdGV8OeMg+JhQ+z8Y0sEnOxCV7bZTj7XoPf2gKrfHRok5iYsw7WyHG5GF5jiIAIiIAI9JGAAvM+AtPhIiAC+SEQpLuoLf8eGwq9T6nFKdgzZsGetozOIYvoxhLPzySK/CrGkSW76+cIbrbDGjEBVV/9M7rdrESsfFiRr1zLEwEREIFoElBgHs190axEoLQJuFn47dfQ/epfwDlNK790J+JL1iI+fRWs4TXqSJmLu4MdP73m88h+zMC8Kwu7Ziqqvv6/k/ES8tWDTy4QawwREAER6CsBBeZ9JabjRUAEBp2Af7MJ3uWTSG39O7hXjgEJG4mVjyI+bYWy5Tmibzp+eo1n4OzdAng27IlzUfnCf6QN5QJeQd7wOcKsYURABESgTwQUmPcJlw4WARHIBwG3/ijdWN6lvvxtZnObEKsZx6LEjbDHzVHMmKMNMI4s3tUTcA5/ACtRzYeepah48jsq/MwRXw0jAiIgAv0hoMC8P9R0jgiIwOARoBtL9ug2pD/4IQPHswDrPOOzV8AePx9WtYoScwXea6mnN/wxuCf3wx4xKWwuVP7gb8EeOz1Xl9A4IiACIiACfSSgwLyPwHS4CIjAIBJgUB5kupDZ9Quk3v5voY+5Nb6WnSifRaxyFGLJikG8eGkN7TWeglt/hF0/TyI+1rjdPICytc/DGj2ptEBotSIgAiIQIQIKzCO0GZqKCJQ6gSCbogPLaWT2vobMzp/QHSQBa+ocJFc8R215QkWfObxB3PqD8OoOMWtej8S0lez4+RgSSx7iW4mxObyKhhIBERABEegLAQXmfaGlY0VABAaVQNDZhsz+1ylleQ/uub2wxtbSInExEvM2Dep1S3Fw5+xOZssPwr92jfr9TShb/RwSs1YhNmxUKeLQmkVABEQgEgQUmEdiGzQJERABUMbitzag+5d/HQblftd1xOcthT2VX7UzBSjHBLLH3oF37iCCjk6UUSpUtuFr1PHPkod5jjlrOBEQARHoCwEF5n2hpWNFQAQGjYDf2UqLxBNImcCcNn6xRAzx5ZsRn7gQsYoRg3bdkhw4CNhN9TW4Zw4DWRfl938D5Zu/1eMRnygrSSRatAiIgAhEgYAC8yjsguYgAiIA99JxOCc+ZOHny/C7r1HrPBKJFU/SJWSW6OSSAIPywDjf7P0ZvDMnOHIMFY/+Psof/e8Qi1PHH7NyeTWNJQIiIAIi0AcCCsz7AEuHioAIDB6B7IEtyOz+OZ1CjgIVFuwp89mFciVbxasYMZfUA3ZVDVIdcA69Aa++HhbfRpQ/9DswVomwTFCu5kK55K2xREAERKAvBBSY94WWjhUBEcg9AbaGDzLdSO/4ETI7/oXZ8huwxo9HYsEmWCMnIFZWlftrlvCIxo7Sv9EI5/g2BE0tsGqmoHzjb6Lsvq+UMBUtXQREQASiQUCBeTT2QbMQgZIlEKTZGr7pPDIf/QSZfa+xmxCz5bMWIrn8GVokxiWtyPGdYR58vKYzlLHsQdCeZsfPJfQv/zJ5P57jK2k4ERABERCBvhJQYN5XYjpeBEQgpwRM9jZ78C1kj7xLGcshZnBrYM9YjsTs9QzKJavIKWwO5rc3U89P//K6Y4hl42wstJFB+RO0pCRvfURABERABIaUgALzIcWvi4tAiROgjMW7epZdPl+CW3cEfrqFreGXwJ68mEWfskgcjLvDa7tCN5ad8K9eYJ3nCJStoX/5wk1h5nwwrqcxRUAEREAEek9AgXnvWelIERCBHBMIum/CvXAA3a/+JbzWy7RFZAZ35eOwx82mtnxYjq+m4QwB7/pFOEfeQdDSDKtqPIs+v4X4nDV8EJouQCIgAiIgAkNMQIH5EG+ALi8CpUzAOLA4Jz4ICz8DrwvWmLFIsDW8PWoSHULsUkYzaGv3Gk8ju+8NNhbqgD1mBiqf/qOwu6o1vGbQrqmBRUAEREAEekdAgXnvOOkoERCBXBMIfGT2vo7sgTfhnt8PjCinhIUWiTPXMJOrtvC5xh2O5/twG47B2fUagrTD5k0LUPni/8KOn3xDkawYlEtqUBEQAREQgd4TUGDee1Y6UgREIFcE2OAmcDJIb30JmT2vwHT9tKdNR3zu/bBGTWTXz/JcXUnj3EYgyKZY+HkEzt63EAvi1JUvZWD+57Brp8r95jZO+lYEREAEhoqAAvOhIq/rikAJEwi62+Fdq0P6/e8je3QbA/EY7Dl0Ypm3kZnbyluNbkoY0CAt3e+4zsD8MNxDO2CVj2Sh7RpUPvfv+DA0YZCuqGFFQAREQAT6QkCBeV9o6VgREIGcEPCu18NhQJ49+Dbcq8dhjR7DwHwNEjPW5GR8DXJnAqbw0zOB+YmD1JdPR2L+enb9/F1Y1equemdi+q0IiIAI5JeAAvP88tbVREAEgoDWiIeR2vp38C6fQOC2s6GQsUhcBLtmuvgMIgH38lF49YfhXTiL+NSlSC5+EEk2F7KGjR7Eq2poERABERCB3hJQYN5bUjpOBEQgJwQC6smdUzvR/eZfI+hsAYaV04nlYWZwp9EucUROrqFB7kzAObeLjYUO08O8gdnyTUguexTJRZsRqxT3OxPTb0VABEQgvwQUmOeXt64mAiVOgNnyi4fDLp+ZD/8FgeXCGjsByVXPM2s7hgWIJY5nkJefPf5O2PEzaGlD2cpnkFz5NF1wltMzvmqQr6zhRUAEREAEekNAgXlvKOkYERCB3BCgRWKaAXn28FY2FjoIq2YUrCkLkJi5FrFyNRTKDeS7j5Ld/woDc8qHOlMo3/hNlK3lAxEbC8USZXc/SX8RAREQARHIGwEF5nlDrQuJQGkTMPaIQaoDKUpYssfeQ9B9g9ryeYjPWM3iz8mIxZOlDWgwVx9wcOMbv/tHDMzPAlkPFU/8Dyhb/9Uez3g7PphX19giIAIiIAK9JKDAvJegdJgIiMDACPg3m1jseRIpWiS6Fw4A8Ri15Q8gPms9g/IEZSzSsQyM8BeczcZCgZdFZucP4ddfImsLlV/69yi//+u0pmRQLvZfAE9/EgEREIH8EVBgnj/WupIIlDQBt+5I2EzIOfUx/K7GUFsen70u7D6pwHBwb43ASYdvKLJ72cypuSXMklc89R2UrfmSgvLBRa/RRUAERKBPBBSY9wmXDhYBEegzAdojmsDQOfY+Ulv+Bn77NaDCRnzeWtjj5sAaIQ/tPjPt4wlB9014bVfgHn0XQUcWNnXl5Q/9DpJLH+3jSDpcBERABERgMAkoMB9MuhpbBEQA8Fx4zReQPfQ2Uu9+jxnagNnycUiufo42faOkLc/DPeK3N8NrPA33zF7E3ATi05eH+vLEvPV5uLouIQIiIAIi0FsCCsx7S0rHiYAI9ItAkE2xw+dboUWic/Q9xEZXs5nQXCQWPkw3kHJJKfpFtW8nea2XWfR5gM2FTpH5yNC7PLn8cQboy/o2kI4WAREQAREYVAIKzAcVrwYXgRIn4HvUk7dRwvJdOCd3wG+9QieWObCnLoM9YQFitl3igPKzfK/5HNzT5N/cQL/4SShb92Uk5m3gHszOzwR0FREQAREQgV4RUGDeK0w6SAREoD8EfHb59K6eRfrt/waXreAD30F8+UbEp62AZbp8yg2kP1j7fI7bcBzu4Xep77+JeO1clD/8O9yDJbBGTezzWDpBBERABERg8AgoMB88thpZBEqegHv5OIs+tyO77w14HczWVo9EfPFmxCfMp02fsuX5ukFcylicfW8hSGcR59uKymf/hIW3M6jxr87XFHQdERABERCBXhBQYN4LSDpEBESgHwTY0CZ7aCvS2/8RXtN5gHJye/pixCczUztyQj8G1Cn9IsB9cM7vgfPxFjYZAhJz70PV1/43uuHU0kue/vH6iIAIiIAIRIaAAvPIbIUmIgJFRMBzKJu4Tt/yVxmY/wCmANQaNxaJZY9T41yDWFllES02wksxVpWZLgbmu+Hu245Y+TAkFjyAqhf+DLEqZsvZaEgfERABERCB6BBQYB6dvdBMRKBoCATpTrjn9iGz/w1kD7zJILAC9rT57PT5FAs+2WnSUkCYl81mx09jlehe2Av3yF5qyicgufhBVDz9R2GQnpc56CIiIAIiIAK9JqDAvNeodKAIiEBvCfg3m5B+7/t0YvkI3rULsCZPobZ5KeIzVvV2CB2XAwIBPeT9a+fhXqRV4ukTtKlcgOSSh1D+4Lf01iIHfDWECIiACOSagALzXBPVeCJQ4gRMtty7eibs8uleOk4nlhTiC9dRW76Y2vLxJU4nv8sPXAfe5cNw6w7Dr6ujReJ6BuaPILmGzZ2SFP3rIwIiIAIiECkCCswjtR2ajAgUPgGv6QI7TO5G6v3vU0ZxFbHh1DUvf4wuIHPU5TPP2xs4GUqKPmZjoWPwG5uRXPk0kssYmC/cyMLPsjzPRpcTAREQARG4FwEF5vcipL+LgAj0iUD28DvI7n2NBYf7aAHiw5o4A/HZ98Gupmd2rE9D6eABEgicNO0qt8K7dBpBWzvKN/0rBuaPhR7msOXIMkC8Ol0EREAEck5AgXnOkWpAEShRAnRiCVKdSO/8CTK7XkZAV5bYuBrETYfJMVNZbDi8RMEM3bKDbDey+1+Bf+UCgq4MKp76DpLLn4BdM0U+8kO3LbqyCIiACNyVgALzu6LRH0RABPpCIEh1wGtkl88dPwqdWJCwYc9aSE3z44glqGdWQ6G+4Bz4saFVYicfkn4M/+oVwA1Q+cKfomzFk2wsZLquyhln4JA1ggiIgAjkloAC89zy1GgiULIE/OuXkNn9c2RP7GBDodOwamthz1iOxIy1PUGgZCx5vTeMI0vQ1Ybsrp/Ab24J9f2msVBy+ePs9ETLSn1EQAREQAQiR0CBeeS2RBMSgcIjEKS74NYfRfqdv4PbcBrwu2HPXQF70sJQxlJ4Kyr8GZs98W9epZTlDaA9jdiwMaj68n9AYvHmwl+cViACIiACRUpAgXmRbqyWJQL5JOA1X4RzaifSW19iTN6GWPVwJFc9DatmGjO1cv/I5158ci2/s4Ue5hdY/PkB4FBWNG4mKh77AyTmrvvkEP0rAiIgAiIQMQIKzCO2IZqOCBQigez+XyJ78C04Z3YB5RasCTPomX0/rOG10jIP0YZ6bVfgNZyAd/YAH45GIjFzJco2fA3x6cuGaEa6rAiIgAiIwL0IKDC/FyH9XQRE4O4E3CxMQ6H0+z9A5sCblE400x5xAuIzVzFDO5vdJavufq7+MqgEvGZ2/Kw7AP/SWT4gTUJy8UOhvtyeOHdQr6vBRUAEREAE+k9AgXn/2elMESh5AkHXDXjNF5B69/+lZOI9FhVa7PK5CokFD91yYpHzx1DdJG7DcTZ62sXCz6uIj52HsrXPIz5nHezaqUM1JV1XBERABETgHgQUmN8DkP4sAiJwdwLe1TPI7HkFzsmP4LVepKZ8LOKzViM+hXIJY48oJ5a7wxvkv7h1++HSIce/cROJaStR/tBvw544H1Y15UX6iIAIiIAIRJKAAvNIbosmJQLRJ2AkLM6ZPXRieQkerRJhu7DnrAyDP3vUpOgvoMhn6JzdCffwdkqNMtT7P4DKZ/4Y1sjxiFWo0VORb72WJwIiUMAEFJgX8OZp6iIwZATYvMZrOo/skW2hRWLgpWGNGY3E6i8xI8vgL54csqnpwiTA/cmefA/uATqy+AGSyx5H1Yt/jliyEognhEgEREAERCCiBBSYR3RjNC0RiDQB3w8lLNnDW0ObxFh1FT3LZyE+dxMsdZUc2q3j3gTZbu7LdrhH9jIYr0By5VOoeuHP+FbDyIuk+x/aDdLVRUAERODuBBSY352N/iICInAnAsaJJdWJ1FvfRZYFn357M+zpM2FPW04nljks+pRv+Z2w5et3YcfPzmtwTlP3f+oY32CMZWD+NCqf/ZN8TUHXEQEREAER6CcBBeb9BKfTRKBUCfjt1+iPfQbpbXRiOb+fWdgA8SXr6ZO9jvaIlEooIzukt0bgZOC3XIR7bg+8ixcRpz1icvkTKH/4d4d0Xrq4CIiACIjAvQkoML83Ix0hAiJwGwG37giye1+jhvkj+F2NdGKppQ3fegaAC+nEIpnEbaiG5FsjYzGNhdwLB+FfbUJi9upQY1523wtDMh9dVAREQAREoPcEFJj3npWOFIHSJsCCwsBJw2HBp5GxmMw5KuMMytlMaPw8SibGlTafiKzeuOW4F/fCqz+OoIVWiUsfQXLpo/x6JCIz1DREQAREQATuRkCB+d3I6PciIAKfJuA5cK+eRfbgW0hv/0dmx31Y48YjueIZxKpG0YlF2vJPAxuan4LudurLP4B35QzQkUHZui8jseRhJOasHZoJ6aoiIAIiIAK9JqDAvNeodKAIlDaBIN2F7P7XQ4tE01AoVjMS9uT57PK5uScoj6mbUBTuEL+rDc7RtyljuQhkYyh/8FtILN6M+OQFUZie5iACIiACIvAFBBSYfwEc/UkEROAWAc+F33EdqTf+itnYj8Pv7TkLYE9dijidWMIun4IVCQJ+ZwsfoF6F39TAxqtJVDz5h0guoo3lmMmRmJ8mIQIiIAIicHcCCszvzkZ/EQERuEXAb7sKt/4o0u99n3KWU3Ri8ZFY9iDiU5bSiWUYnViULY/EzRKwn1BHM7K7fgr/2jV6mA+jf/mfIrFwI2KV1ZGYoiYhAiIgAiJwdwIKzO/ORn8RAREwBAIfzrl9yB54E86JD9m8pg2xMeMoYdkEe+wsBeVRuks8D97Nq8h+/FMEbe2wqkaj8mv/K5LzN7Djp7qxRmmrNBcREAERuBMBBeZ3oqLfiYAI9BCgEwsoY8nsehmprX9He8Q2WKOGwWYhoT1uNqxhY0QqQgSCbBp+6yVkd7+CoCsLe9QEVL745yr8jNAeaSoiIAIi8EUEFJh/ER39TQRKnECQoSf2lZPI7Hsj9C4PnVgmT6XLx+OIVYyQE0vE7g+/+wb85vNwDr0DuAk+PM0MO37GZyyP2Ew1HREQAREQgTsRUGB+Jyr6nQiIQChh8W9eY1D+Opxj78OtO0QJyyjY05dQGrFZEpYI3iP+zUZ4jafhHt/Jh6aRiE9bzI6fv8dagEURnK2mJAIiIAIi8FkC/z8AAAD//+SuN2cAAEAASURBVOy9B5gc53mle7qqunsCcs4555wIggQYwEyKpCRbtmVbzivnta/X1352/ey9u76+u07Xa2tly7IcJCuTIilGgCRIkMgEMMgY5JwGGGBSd1e6568ZgCCINIMZTHfV6edpdKrwf+9fAE5//f3nS4W8QTcREAERuJaA78I/fQCNL/8lvMPbEXqNcCbMgD10Kuw+I67dWq+LgIB/7jD84zvg76uC1WUQ0uPmIbvwedgDxxbB6DQEERABERCBWxFISZjfCpE+F4FkEvBP7YdbvR75D76D4OIJoKIM6an3w+4/FqmyLsmEUuRR+yf3wDuyFf6RfXD6jI3mKzNjOey+w4t85BqeCIiACIiAISBhrutABETgkwTMj2hhgMK2t1HY/DrcfRsA24M1YBgz5vfC7jHok9vrVdEQMKLcO/gRglMn4Aydjuysx5CesAhWz4FFM0YNRAREQARE4MYEJMxvzEafiEAyCfgewkITcqv+FbkPv4ew8RKsQQPgjF8Eu9cwZcuL+Kpw969nGcsGBOfPIz12EcoWsYxl2FRYXXsX8ag1NBEQAREQgcsEJMwvk9CjCIhARCCsv8ByiG3Ir/8RCjtXIZV1YI+ciPT4+4BsJVK2I1JFSsDd8z68PesR1jcgM+VBlN3/Rdj9hiNV3q1IR6xhiYAIiIAIXE1AwvxqGnouAkknEPjwzxxEfs0P4O5dB//8IVj9mC0fOYv32UmnU/TxF3asgLdrPZBzkZ39JMqX/wpSzJanMuVFP3YNUAREQAREQDXmugZEQASuIhA21bFGeTMaX/s7BGcPA04AZ/JCunpMgNW9/1Vb6mnREeDSgELVq/B2bAT8ENlFn0XFE7+FVLqMawT0K0fRzZcGJAIiIALXIaCM+XWg6C0RSCoB7/A2uDvfQ27N92mPWA+rV2+kpzzAxyHNAi+pYIo9bi7YDb0C3KrXmDGvohBPo2zx51Hx+G8Bls0UTKrYI9D4REAEREAESEDCXJeBCIgAXVianVhyH34/cmLxju5AqnsF7CHj4IxeAKuypygVMYHQLNjN18Pd9ib86j1IVXRH2T2fQ/kjv1bEo9bQREAEREAEriUgYX4tEb0WgQQSMC4sYf15NK38OgpbVyDM1XHB5xg4YynKaY+YSmcTSKV0Qg7dPIK6s8yWr4J/+DDdcwYhu+BZlC392dIJQiMVAREQARFQxlzXgAiIABBcOAl3/0bk177ILp+bkaosgz1uDtLMlkeiPGUJUxETCPONtEg8ygW7HyI8eZprAsYhO++pqM68iIetoYmACIiACFxDQBnza4DopQgkkYBZ8Nm04uts574boXsR1uARsEfQiWXg+CTiKLmYzS8c/ulqePxyFZ67SAedmciwuVB2zuMlF4sGLAIiIAJJJiBhnuTZV+wiwNry4OIZuLtWU5h/jc2ELgBdskhPXgKrz0jVlpfIFRI01sI/th3+oSqEl3Ls9nkPMjOWIzN1aYlEoGGKgAiIgAgYAhLmug5EIMkE6FvuVq+jzd7byK97kV09LVgDhiI97WFYFb1ks1ci10ZQX0Oby43wj+4GmkJkZhpRvgzpcQtKJAINUwREQAREwBCQMNd1IAJJJkCLvaa3vkZhvoKlEAdZwjKALdynwBk2U01pSui6CC7xV4+9qxGcOIiUn4kWfppfPZzh00ooCg1VBERABERAwlzXgAgklEDYwPKHs0eQe+cbXPi5gbXljXDGT486fKa69kNKTWlK5soIarl4d8dKBKePc966oOz+L7KcZRHsAWNKJgYNVAREQAREQBlzXQMikFACIfwT+1DY9T4Km16FX3MAqS6VbCZ0H5yhM1qa0iQUTQmG7Z8/BnfLawhqzsIq64Xy5b+G9Nh5bAw1qASj0ZBFQAREILkElDFP7twr8iQTYG15Yccq5Fb8I/xzR4C0D3v4ZNhDp9IDeyi/sicZTunF7tcchrvhJdpe1sLqNgAVT/1HWl3Oou2lGkOV3mxqxCIgAkkmIGGe5NlX7Mkk4LsU40dR2PImcu99kybmBaR692K2fCms7gO4ALRrMrmUatR01vHPHkCBHvRhXUP0xaris38MZ8Q0etCXlWpUGrcIiIAIJJKAhHkip11BJ5dAyK6eDShsf4cLPleyhfs7SHWrYKZ8HNLTH0XKUYfPUrs2Qt+Df2Yf3DUU5k0u7P6jUPn5P2FJ0mT+8qGfPkptPjVeERCBZBOQME/2/Cv6pBEIPPqWn0XTm1+Fu2cNglp2iRw9hk4s0+AMmtRcW540JiUeb5hvgH9qD0tZ3uCvHw7swRNQ+Zk/4KOaQ5X41Gr4IiACCSQgYZ7ASVfIySUQ1J6Cd2QHcu/+C/yT9Ly2QjhTFsIeMpXNhOhbrgxryV0cQf15zuUuLv5cBSvdLbJILH/s1+nIMrrkYtGARUAERCDpBCTMk34FKP7kEGAtsrtvQ1Rb7u58H0H+PKyeprZ8GcsfxmnBZ4leCf6FE/CP74C3cz2sLgO46HM2yh74Euy+w0s0Ig1bBERABJJLQMI8uXOvyJNEgC4sYb4R+Y2vIL/621EJS6o7a8vHzmZmdTwFXe8k0YhVrGbhp390O7zqKti9R0X+5WWLPgur95BYxalgREAERCAJBCTMkzDLijHxBKI65BPVyNNSL7/xJcBJsXxlJNKTH0CqvDvdO7Tos1QvEu/ELvhHquAfquY6gcnI0Is+M/txWD0GlGpIGrcIiIAIJJaAhHlip16BJ4mAWeSZX/cCTAmLd3wns6k9YY+YzuzqkiRhiGWs3pEt8A5tRXD8CNKj5iIz/SF+4bqffuZ9YhmvghIBERCBOBOQMI/z7Co2ESABY4/on9iLphX/AO/oToRuHZzxM6IFn3Yf1SGX+kXi7l8L/+AWBGfOIDOxOVueHjNHzYVKfWI1fhEQgUQSkDBP5LQr6CQR8E/th7t3HZsJ/RuCutNIde2C9DSz4HMMUpmKJKGIZazu7lXwDmxBeOEiMjMeQXb+Z+AMmcgSJTWKiuWEKygREIFYE5Awj/X0KjgRAAqbXo0WfXqHqwCWklsDWVs+dmHU5VP2iKV/hRS2vQl/P4V5fRNF+bMou+fzsPoO1Zeu0p9aRSACIpBAAhLmCZx0hZwMAqGbp1irQe6D71Gcv4KgoZaifACccQvYtn0YUmVdkgEi5lEWNr8cObIg76JsyU+j7L6fhtWVLjtOJuaRKzwREAERiB8BCfP4zakiEoGIQFBXEy0KjBZ97nofKMvAGTMN6UnLkHJM6twSqVImEJrBh/w15Afwq3ey6ydQ/sAvoGzZzzFbXs75tUs5Oo1dBERABBJJQMI8kdOuoJNAwKc9Ym7Vv8I98BFry0/CHjQU9vAZcIZOZfgU5akkUIhxjEGA0HdR2PhDlrJUA3Ya5Q//MsqXfYnTayZXExzj2VdoIiACMSUgYR7TiVVYySYQXDwDb/8mNL39TwguHAdY1eBMYAnLgHG00euXbDgxiT70XDaNqoP70Sv0MT8Kq7IbO34yY77kp2ISocIQAREQgeQRkDBP3pwr4gQQ8PZtQGH7u8ivfxFhmIfVpx/SMx6F3WOgShxiMv9hoYm/hJyBu20FwlPnYPUayPryn0F2wbMxiVBhiIAIiEDyCEiYJ2/OFXGcCYQsPA6DqIQl/9FrMFaJVp8esIdOZhnLTFjs8qkKh3hcAGFTHfzzR+DtXo3wfB3sgeNQtuiz7Pr5WDwCVBQiIAIikEACEuYJnHSFHF8CRqwFF06i6Z1/ZpfPVaxBzsEeNR7OqHmRPWJKTh2xmfyg4QL803u58HMjwgYXzsiZyM59GpmpS2MTowIRAREQgaQRkDBP2owr3lgT8M8eoiBfjQKz5d6JnUh1qYAzaRHSoxcyU67FgHGa/ODSWXjHtsE/tA2pgo30xMXIzHwE6fGca91EQAREQARKkoCEeUlOmwYtAtchQIcOl7XlTSu/HpWwIGyEPWIiy1imwe478jo76K1SJhDUnoR3cBP8Y3tZnVSBzPSHkWFHV5M5100EREAERKA0CUiYl+a8adQi8EkCrCv3zx2FywWfRpjDb0KqRzc4k5eymdAQtmfv9snt9arkCfjnj8Hb+yGCU4eRSvdk189noqy5M2RiycemAERABEQgqQQkzJM684o7XgSMn/XWFShU8b7tHaQqM7AGjWQW9VF2+Owar1gVTUTAP8eypR3vIjx3ilaJA5Bd8gWkx8yD3V+/jugSEQEREIFSJSBhXqozp3GLwGUC9LMOGi8ix0x5gQs+g5rjLGEZQReW6WwqNIldPtWa/TKqOD36p/fDrXqTi30v0AZzKMof+iWWscyA1ZOWmLqJgAiIgAiUJAEJ85KcNg1aBD4mEFw6x5ryfcit+Ee4hzazAySbCU2eD2fELNoj9qBvObt86hY7At7JPXA3vYawnlaJfceg4onfgs0yFqtLr9jFqoBEQAREICkEJMyTMtOKM7YEvENbIxeWwq7VCBpOs9FMb3b5XAxnIGuNJcrjO+/Hd8Jd9zLCpjycQRNQ8dwfsrPrGKSyFbGNWYGJgAiIQNwJSJjHfYYVX3wJcMFnmG9ih8+3kXvnXyL/cpRbcMbOpkAbT9/y/vGNPemRBUFklVhY+wpQ8OEMn4bKz/1nZs6H8xcTJ+l0FL8IiIAIlCwBCfOSnToNPPEEvAL8s0eQ3/Rj5N79ZwqyFKyBg5GZ8RhSFT3o1JFNPKK4AgjdAryjW5kxf52dXulhPmomhfl/gdV7cFxDVlwiIAIikAgCEuaJmGYFGUcCYdMlivJX4W57m/7l65Hq1YOe5RORnnBf84JPNRSK47RHMYWNlyjMt7DG/F2WrnSlG8tcVDz9+1z4OSC2MSswERABEUgCAQnzJMyyYowdgdDNRe4rubf/KWoqFFw6A3vMBNjDpsFhGYu6fMZuyj8OKASCujPwjmyFV7UGVtd+SI9bgPJHv8zypX4fb6dnIiACIiACJUdAwrzkpkwDFgEKs9rTFGbb0fTm39ORhZ0fsw6cGUvhDJnK510ozEUptgQozP3zR+AbYb5zM+w+I/grySKULft5WN36xDZsBSYCIiACSSAgYZ6EWVaMsSPg7l1LJ5bX4e7+AKFfB6vvQDjj74lEGiz6JeoWXwJGmJ/eyy9mVfCrd8IZzPKlSUtQds/nkJJVYnznXZGJgAgkgoCEeSKmWUHGhkDgI8w1sLb8FeQ//H7kxJLqUckyljns+DhWHtaxmeibBBKGdGTZzow5hfmhfWwqNBuZKUuRnfMEO77St143ERABERCBkiUgYV6yU6eBJ5FAWGhCQCeW3IffQ37N9yMnFnvkWGRmPgmky5CSVV78LwsKc/fQJviHqxAcO8oylsXITH8QmanLkCrvFv/4FaEIiIAIxJiAhHmMJ1ehxY+AqS0vMFte2LGKrhzbaI/XG/aIqXDGLELKlLDIiSV+k35tREaYV39AYb4dwenTyEx7iF/MlkcLQFNlXF+gmwiIgAiIQMkSkDAv2anTwJNGwGTL/RPVaFr5NZYx7EBQuEhBPoVt2KfC7jcqaTiSGy+FeWHn2xTmOxDWXEB23tPIzHoMzohpSGXKk8tFkYuACIhADAhImMdgEhVCMggE54/TGnFj5MQS1J7gQr9ypGc/wtrycWomlIxLoDlKI8y3vkZhvhPhpXqULf5JZOY+yW6vY3QdJOk6UKwiIAKxJCBhHstpVVBxJOBufxf5LW9ETiywPVgDhsIZtxh2j0GAZcUxZMV0PQJhwMW/P0JweA/CxhxtEr+E7PxnYPfkdeCkr7eH3hMBERABESgRAhLmJTJRGmaCCRgnlkIOudX/jvx6CjLWmVv9+8AZNZvZcmZJteAvWRdHQGG+7rvMmO8DXC9qLJRd8Bws48giq8xkXQuKVgREIHYEJMxjN6UKKG4Ewlw9u3weQ27VvyG/+TUu8Axhj51Ci7yHmmuKJcbiNuU3j8f3aZX5TQrzgwDLWiqe/j1kF9HD3Mlo8e/NyelTERABESh6AhLmRT9FGmDSCQQ1x1HY9jYKVSvoX00nlp49YY+ehfToBRRiLGFRl8/kXCIU5aGbQ37ttxEc5zoDivGKp/4jTMZc5UzJuQwUqQiIQHwJSJjHd24VWRwI+B5tEXfQieXr8I9xsR+dWOxRk+TEEoe5bUMMoZtH2HQJhQ0vIDhzDlZFd5Q//pvIzn2qDUfTLiIgAiIgAsVGQMK82GZE4xGBqwgEdTXw9qxF4+t/i+DSWTqxZJGe+TDsPiMhz+qrQCXkqen6GtSdgbv5dYS19fz1ZCDKH/rlyMc8IQgUpgiIgAjEmoCEeaynV8GVOgFjj+huf4eL/V5kl086sfQbhPTUh2B166eFfqU+uW0Yf9BYi+D8UXh06AkbfFokjkbZ/T/D9QZL23A07SICIiACIlBsBCTMi21GNB4RMAS4qA+0xcut/jYKtEj0ju6C1acH7GGT2UhmFrPlXcUpgQSCunPwz+zjryjrkCo4vBamIrvws0hPWJRAGgpZBERABOJHQMI8fnOqiGJAoLmWuA5Nb3yFzWTeYl1xHZ1YJsAZuyjKlkcOHDGIUyG0jkBQexLe8Z3wD2xFKlWJ9LgFyM55Es7o2a07kLYWAREQAREoSgIS5kU5LRpU0gkEF88wS74T+fe/BffgJmbIM3AmzKMAm8/ujmWyxUvoBeLXHKVN4hb4R/fQKrMXMlOXITPtQTjDpyaUiMIWAREQgXgRkDCP13wqmpgQ8I5spyXeC/D2rYdff4q1xENokTgXzqCJMYlQYbSFgH/2YHRNBKcOsaHQIGbLn0B6Iru/DhrXlsNpHxEQAREQgSIjIGFeZBOi4SSdQBh1+XR3rUbT638HkzlHmQVn0iLY/UbD6to36YASHb9/ai/c3R8gPHeKjiwjUXbP5+CMYQfYviMSzUXBi4AIiEBcCEiYx2UmFUc8CAQ+/LOHWVe+Ak0rvkbnlYBOLP2RnvEorC59WMaSjUeciqJNBEx9ubfjXQS1F+D0n4CypT8HhwuCjW2ibiIgAiIgAqVPQMK89OdQEcSJgFdAfvMbcLetRGH7KqR6dmEzoXEsV1iKVLYyTpEqljYQ8I5UweWXtrChAc6QaSh/9D/AGTCG/va92nA07SICIiACIlBsBCTMi21GNJ7kEmC2PMzRieXNf0BhxyoE546yrnwM7BEzYfcfx/br6eSyUeQRAe/QJrgb30SYd5EeNQcVT/8erN6D1WxK14cIiIAIxISAhHlMJlJhlD4BY4kYnD+Oxh//Ddz96xmQD2fqQnpVz45aryNllX6QiqDtBOht7x5YD3fdm0AQIj1+ISqf/2OkurHEycm0/bjaUwREQAREoGgISJgXzVRoIEkn4J86AHfvWuTXvwi/5gDLE7ogPeV+lizQCs+SKE/69RH6Hrz9aynMV0RdXzOT7kPlT/wJUuXdZJ+Z9ItD8YuACMSGgIR5bKZSgZQ2AWZD96xB/oPvwTuyDSEaYQ8dD3v4DNi9h5V2aBr9nRNgtjzMN/KXlLXwNr1PMc4vbZPvR+Vz/yfLWLT24M4B6wgiIAIiUBwEJMyLYx40iiQTCAOYTp+FTT9mfflXETZeQqpXNzhTlsLuMQipiu5JpqPYDYEgQNBwHh5LWbyt62H1oFMPf02peOK3uSi4QoxEQAREQARiQkDCPCYTqTBKl4AR5cHpA8hTmOdWfxtwUnRiGY7MrKeBdDlStl26wWnk7UPAp41m7Ql4BzfC37mVi4FHUpgvRfnDv8wOoOXtcw4dRQREQAREoNMJSJh3+hRoAEknEDZdinzLC1Uro+YxqT49YdObOkOLRNWWJ/3qaI7f1JcHZw/AO/QR/L27I+/y9NRlKFvy0xTmZYIkAiIgAiIQEwIS5jGZSIVRogRYxmK6exqLRLPwM2BW1B7N2vJh0+EMHK9FfSU6re097NBz4Z/cBf/QFt4PIj1mLtLTliE7/1k1nWpv2DqeCIiACHQiAQnzToSvU4uAsUj0T+1H42v/C/6R7Vz0SX/qGUu48HMaLRJ7CJAIRARCNp7yDlOUs8FQcOw4F37eh8y0B5CZuZxWieoGq8tEBERABOJCQMI8LjOpOEqSgM/acnfvOuRZW+5fPE5P6m5IT3+ANcTjVVtekjPaMYM26xC8/esozHdwPcIZrj94DJnpD7LcaTHXJMjDvGOo66giIAIicPcJSJjffeY6owhcIeCyw2d+w8u0wdtEgeVy0Sc7fY6cC7vnoCvb6IkIhIUm2mm+D//oboQ1F5Bd+DyF+UNIj54F2OoIqytEBERABOJCQMI8LjOpOEqLAO3vQjeH/NofIvf+txBcOgerX284E++F3WsIvam7llY8Gm2HEggL9DDfvgL+sWqEFxtQtvRnKMwfZvOpCVwg7HTouXVwERABERCBu0dAwvzusdaZROAKAZMBDWqOI/fh9yjOv8+sJy0SR4xj3fByIFPBMhaJrSuw9ITNhRpQ2PJjBMcP0Oe+gPLlvxoJc7svm09ZstPUJSICIiACcSEgYR6XmVQcJUUgqDsHd8d7tEl8C271WqR6dmcJy3RkJtwnJ5aSmsm7M9gwV4/ChhfgnzgCuD4qnvpdZGYsh9WtD68X6+4MQmcRAREQARHocAIS5h2OWCcQgWsIsL26f/Ywcu98A+6+jSxjOUlRbiwSp9IikaUJuonANQSMe09+7XcQnDzBLqApVD7/R82OLNlKfZG7hpVeioAIiEApE5AwL+XZ09hLkkCYb4R3dAeaXv4r+Kf3s7sn131OZW05RbnVpVdJxqRBdyABfpELGmpRWPNtOrKcpT1iGpWf/xNmzB9WfXkHYtehRUAERKAzCEiYdwZ1nTPRBPwzB+mwsQ65d79BwcVFn927I037O7vPcNULJ/rKuH7wxsM8Kn1a9wME5+tglXdFhcmYs8EQ0+XX30nvioAIiIAIlCQBCfOSnDYNupQJuDvfj2rLCzveZbY8gDVwJNLjF7NeuF8ph6WxdxCBMNfAjrAnUfjox0B9gV/k+kc15ulJ93bQGXVYERABERCBziIgYd5Z5HXe5BFgSQLCADk2E8qvf4l15odg9e0FZ/Qc2APGyiIxeVfEbUVsyliCmsNwq94GChbsfiMiV5b0uAW3tb82EgEREAERKB0CEualM1caaakT8FyEuTo0rfga8utejHzM7THj2V79AaTKu9EiUY1iSn2KO2L8waUzXIuwD96uNSxcqYAzdBLK7v8inFFsLqSbCIiACIhArAhImMdqOhVMMRMI6y/AO7EH+dXfQWHXKorxLOxxs5GesISOd/QtT6leuJjnr7PG5l84TpvEXfCrNyOV6cVun7Ojzp/O8KmdNSSdVwREQAREoIMISJh3EFgdVgSuJeCfOYTCpldR2Pkey1iqYfUfFGU9nWEzrt1Ur0XgCgFT8uQfrYJ/eBesykEwteVZs1h48Pgr2+iJCIiACIhAPAhImMdjHhVFsRNgfbl3eCuaXv8Ks+bVrDVvgD2eteWDJsLuObjYR6/xdSIB/1Q1vEMfRV0/rZ6jkJ25nOVP98HuP6oTR6VTi4AIiIAIdAQBCfOOoKpjisA1BMKGC7RIXIvGV/8GQf05pLqWI00farvXMC767HLN1nopAh8T8I7vhLdvPYIzJ+D0n4js/GeQHjMXVp+hH2+kZyIgAiIgArEgIGEei2lUEMVOwDQUcre/i9x730QIWt71G4DMrKdgde0rK+pin7xOHp93ZAu8PWvoYV7DhZ8zUbbkC3ycDKtH/04emU4vAiIgAiLQ3gQkzNubqI4nAtchkN/4cuRdbrLmqR6VsIdO4CK+BZEby3U211sicIWAe2ADvJ0fIKyri66Z8od+gZaJI5FSl9grjPREBERABOJCQMI8LjOpOIqTQOAj9F3k3voH5Le8yazncdjDR8I23uV9RiCVLivOcWtURUPArf4Q3rb3ETblkZ54Hyoe/40oW64SqKKZIg1EBERABNqNgIR5u6HUgUTg0wTCQhPXedai8aW/RGHbyqjBkDNtLtLj7qX1XQVgWZ/eSe+IwFUE3N2r4G55H/B8ZKY9jIpn/4+oGVUqnb1qKz0VAREQARGIAwEJ8zjMomIoWgLB+RN01NiK3AffhUfLu1TXSjgTFyE9Yg5Fua368qKduSIYGBvFmk6xhV1vw9v8IV+kkJ39GCqe/2OkHDajMtePbiIgAiIgArEiIGEeq+lUMMVGwDu8Dfn1L8KtXo+w8QyswSPhjJgFe8DYYhuqxlNsBGixGXp5uDspzKs2sOwpi8ycJ1H5/B9Ro6sZVbFNl8YjAiIgAu1BQMK8PSjqGCJwPQLMdrpsJtT48l8juHgaKLfhTLkXdt9RsLr0vt4eek8ErhAIfa5PaLpER5ZVXPxZRQefXsjMfhwVT/3ulW30RAREQAREIF4EJMzjNZ+KplgIUJQHl87RiWUFml77W4QhLRL79EZ65uMUWH206LNY5qmIxxF6Lq+hM/C4+NOv3s3FwkNosfkYypf/ahGPWkMTAREQARG4EwIS5ndCT/uKwI0I0InFlLEU6MSSW/1tpCqyURlLZuYTXPRZqdryG3HT+1cIhG4eQc1RePvXwT90CM6gcRTmj6Ds/i9e2UZPREAEREAE4kVAwjxe86loioRA6OZQWP8SnVjeZsfPNbAG9oc9bDKcUfOjWuEiGaaGUcQEjKOPf6oa3sFNCI6fRHrUDGRmLEd24fNFPGoNTQREQARE4E4ISJjfCT3tKwLXIxAEUW1w05t/j8KOVcx6HoM9flK06NMy3uW2c7299J4IfIJAmG+Ad2w7s+VbEZ6pQXrCPchMf4h15o99Yju9EAEREAERiA8BCfP4zKUiKRICUQnCxTNo/OGfwd27BmCTIWfOEmY85zV7l8tRo0hmqriHEebq4Jps+ZEdCC/U08P8QaSnP4DMlKXFPXCNTgREQAREoM0EJMzbjE47isD1CZjunpF3+apvwju9B6nyMgqqZXCGTpP39PWR6d3rEAgbL9Jmkws/j+0F6vPIznsa6anLkB477zpb6y0REAEREIE4EJAwj8MsKoaiImBEeWHz6yxjeQ9hvgZW/6Fwxi6A3W9UUY1TgyluAkHDBbi73kVw4gCQC1F2708iPeV+OMOmFPfANToREAEREIE2E5AwbzM67SgC1ydgLBJzb38d/tkjQKUDZ9w82P3HRjaJ199D74rApwkE9TVwq95AcOoo4Dsof/AXkJ60hM2pRn96Y70jAiIgAiIQCwIS5rGYRgVRFARYSx421SG/8WU0vfUPMK4aVv9+tLh7nHaJPVhfXl4Uw9QgSoNAUHcWhU0vIzhzCimrHBWP/TqF+b2weg4sjQA0ShEQAREQgVYTkDBvNTLtIALXJ2AWffqn96Ow4WXk3v8WUJahReJYtlF/hsKKTixa9Hl9cHr3ugRMt9jC+h8iOHcOqWxXVD7zB5EzS6qy+3W315siIAIiIAKlT0DCvPTnUBEUCYGw8VLkW16oWgF39+qo06c9fArF1H0S5UUyRyUzjJBmPhdPIP/Bd+nIchFWZS9Ufv6/ID1+EeCkSyYMDVQEREAERKB1BCTMW8dLW4vADQkEtEjMrfynqKGQX3MY9ujxzJhPY8fGiTfcRx+IwPUIhF4BwfmjKKx7EWFdHnbPAah4/o/pyDKXX/Ks6+2i90RABERABGJAQMI8BpOoEIqAAIWUf+YQGl/6C3iHqxCGeTjT7oEzZBoXffYuggFqCKVEIMzVwz93EO6m14FCio4+I1Dx9O/BGTmzlMLQWEVABERABFpJQMK8lcC0uQhcj0BQe4re5VXRok//7AF6l2eRnv0IbGbL1enzesT03s0IBPXnuV6hGl7VKi5NqIA9eALKH/k1WSXeDJo+EwEREIEYEJAwj8EkKoTOJ2BEubvjXeQ3vUo3lgtI9R1IB437YfcZ3vmD0whKjkBQexLeid3wd6/jws8+zJTPQPn9X6RAH19ysWjAIiACIiACt09Awvz2WWlLEbgBgRCFLW8hz3pg78h2epfbsEewtnzIFHmX34CY3r45Af/cIXb83A5/3zZY3YZy0ecCZBc8Kw/zm2PTpyIgAiJQ8gQkzEt+ChVApxIIjX2GT3vEf0du1b/ClCBYAwewQ+MyCqr+zHZWdOrwdPLSJOCd3AP/yFbe98HpOy7q+JmduZxOP8NKMyCNWgREQARE4LYISJjfFiZtJALXJ2C8y8NLZ5uF+YffBawQ9shxyEx7FEiXs77cvv6OelcEbkLAO1oF7+BmBCePwhk6A9mZjyA9cbGaC92EmT4SAREQgTgQkDCPwywqhk4jEDbURi4s+fU/QmH7SqS6VtImcQYykx/stDHpxKVPwD24gWUsmxDUnEV69EJk538mqjO3uvUp/eAUgQiIgAiIwA0JSJjfEI0+EIFbEwgusAnMxle48PM9LtbbCWvwUDjDp/MuW7tb09MWNyLgVn8Ab+8GhBcvITNpGcru/QnYA8ciVdnjRrvofREQAREQgRgQkDCPwSQqhE4iEAbwT+6LLBK9Q1sR5M7DmTCbzhmTYfce2kmD0mnjQKCw6x06sqxH2JhHZuZjKF/287B6DeSahco4hKcYREAEREAEbkBAwvwGYPS2CNySAJsKeYe3oeH7/x3+2UNIlTlIz30Udn9mNrXo85b4tMGNCRSqXoe3ayObC3l0Y3k+8jC3KroBTubGO+kTERABERCBkicgYV7yU6gAOouAf+4Iyw3WoWnFPyJorOHCvB5Iz6Qw70XnDC367KxpKe3z0uQnpMuPu/XHFOZbGEsKZYt/EuWP/QZSRpRbVmnHp9GLgAiIgAjclICE+U3x6EMRuDEBt3od3G1vI/8R26Y7LqwBI+iccR9tEvvdeCd9IgI3IxAECN0cCltfhb9nJ395KWN9+U+h/NEvU6OnbranPhMBERABEYgBAQnzGEyiQugcAvl1L0QLP/2jO5Dq1Y02iVz0OWgyUhXdO2dAOmvJEwhZHhU21sKlw49/cD+/5PVB9p7Po/yBL5V8bApABERABETg1gQkzG/NSFuIwCcJsNQg9FzkVn4d+fUvIqirYafPEVz4eW9zU6F02Se31ysRuE0CYaEJwcWT8Ha/j+DYCVj9RrDG/DNROcttHkKbiYAIiIAIlDABCfMSnjwNvXMIhIUcQorxpje/ivymV1j3y0qWCTOQpnd5ysmqDrhzpiUWZw1z9fDPHYTHMqnwzHnYwyYjO+dJZOc9HYv4FIQIiIAIiMDNCUiY35yPPhWBTxEI2OnT2CPm1/wA7v51bCrUBc64uUiPXcQ6YC3O+xQwvXHbBMLGi5Efvn9wC8LaRl5T85CZ9Sgy0x+67WNoQxEQAREQgdIlIGFeunOnkXcSAf/U/uamQrtWwz9/kL7lw1nKMhMO/ct1E4E7IRDUn6cF52b4R3YCjT4yU5ciM+1BLipefCeH1b4iIAIiIAIlQkDCvEQmSsMsEgJhCI/ZzKY3/jebC1UjRCPsCfPgDBwPq8egIhmkhlGqBKJfY/avgX98H1JuGpm5TyAz+X44o2aVakgatwiIgAiIQCsISJi3ApY2FYEw3wh3zxo0/uh/ctHnOZaxlCMz5zF2ZRyKVKZCgETgjggEF0/B3fUuglNH6Y5Yiezin0Bm4j38VWbCHR1XO4uACIiACJQGAQnz0pgnjbJICPhnj8Dd8S4z5l9FGObpmtGfNcBPwuraV4s+i2SOSnkY/oVjcKveRHjuNL/o9UL5g78AZ+x82H3ZtEo3ERABERCB2BOQMI/9FCvA9iTg7v4QhW0rUdhIN5aKNDOZo1n/u1Te5e0JOcHH8msOw6XTT3DhAqwuA1DxxG+yjGV25GeeYCwKXQREQAQSQ0DCPDFTrUDbg0D+g++yK+ObcA9sYafPvrCHT4MzdBo7NKqMpT34JvoYIeCfPYDCuhcRXqqHzfKoiuf+EM4Ic31VJhqNghcBERCBpBCQME/KTCvOOyMQBlRNHhpf+7tImAcXTsIeMx7O6Pmweg6if3nmzo6vvUWAjau809Vw1/wIYVMBdv9RqPzcf4YzZBJgO+IjAiIgAiKQAAIS5gmYZIXYDgTY6TPMN6DhB3+KQtVbAIW6M30B0uOXIGU6faZS7XASHSLJBEI3R6efPSisfxUpLxUt+Kx8/o9gDxqXZCyKXQREQAQSRUDCPFHTrWDbSiC4dA7+qX3Irfw63IMbWVNeBmfyvUiPmktRbvPe1iNrPxFoJhA01sI/sQvu5nd4SVXCGT4VFU/+TpQ5FyMREAEREIFkEJAwT8Y8K8o7JGCaChXoxlLY/EbUVMjqNzByy3AGscxANxFoBwLGKtE7vgPe9rWwKvoiPXo2yh76JTqyDG+Ho+sQIiACIiACpUBAwrwUZklj7HQC3v5NyL33TXhHttMmkQvzRk9jicFkLtAb0ulj0wDiQcA/dwj+0e3w9m6B3XM4y6QWouzeL8DqPTgeASoKERABERCBWxKQML8lIm2QeAK+i8L2VWj88V8jrKsBumSQnv4gxdMQ2SQm/uJoPwAe68v9o1XwD+xhJ9mJSE9aguy8p9hRdkD7nURHEgEREAERKGoCEuZFPT0aXKcT4CLPsPEi8h+9HnX7RCqkTSKbCs19lqK8B2uB5ZbR6XMUkwF4R7bCP0JhfvQQ0iNmIz3tAWSmPSgP85jMr8IQAREQgdshIGF+O5S0TXIJMFvuHduFwpY3kVv1r0h1KYc1eBQy0x9jZ0Z6l8uNJbnXRjtH7h5YD//QVgSnTrKM5V5kZz2K9LgFvOZ6tvOZdDgREAEREIFiJSBhXqwzo3EVBYGwkKM94gq2SWe3z21vNzcVGjqZCz8Xybu8KGYoPoNw97wH/yCFec0FZsofZhnL03RmmYJUebf4BKlIREAEREAEbkpAwvymePRh0gmEuXrk3vlnOrKsgn98D5sKjWO3zxmwB4xTGUvSL452jr+w/S3Wl29l188GivJnkF34fGSVqK6y7QxahxMBERCBIiYgYV7Ek6OhdTIBdmIM6s+ztvzP4e7+gLXml+DMWABn5BxYXXqxjMXq5AHq9HEiUNj8Mrz92wB2/TRuLOae6t6PDayycQpTsYiACIiACNyEgIT5TeDoo2QTCJsuwT9zOHJj8Q5tYVt0ID3rAZYXzGouY1FToWRfIO0VfWgOFCC/4Yfw9+8C/BDlD3wJZfd/EamyLoDFC083ERABERCBRBCQME/ENCvIthAIzh2Be+Aj+pd/C/65A0h160abRApzNRVqC07tcyMCxvnH91BY/z0K8338AuigfPmvoXzZz1OU61eZG2HT+yIgAiIQRwIS5nGcVcXULgS8g1voxvJGVF8euhdgDRoFZ9Rc2H3UibFdAOsgEYHQK8D8OlPY/AqCYydgVfZAmcmYL/4Juf7oGhEBERCBhBGQME/YhCvc2ydgXFjy7/87vBN7gXILzvj5sPuNhtW1z+0fRFuKwC0IhPkGBBdPwd3+NsKz/ALYZyjKlvxU5Mpyi131sQiIgAiIQMwISJjHbEIVTjsRCEPk1/0QTa/+LQJmM63+fZCZ/SSbCvWkf3l5O51EhxEBVpc31iI4exDenjV0ZMnDGTqJjizP0Sv/IeERAREQARFIGAEJ84RNuMK9DQKs9w3qaijMX0DTyq+zzjeAPXQEMnPY7dPJaDHebSDUJrdPIKg7RyvOnTClU6k8f5kZOx/Z2Y8jPfGe2z+IthQBERABEYgFAQnzWEyjgmhPAmGhCT67feY3voL82h8g1bUC9oiJyMx4sj1Po2OJQEQgqD0J79Am+Ef3IoVKZsofRGbqMq5nmCVCIiACIiACCSMgYZ6wCVe4tyYQNtRGXT4L7Pbp7v2AZSz92VRoKtJjlcG8NT1t0VoCfs0ReLzOgtNHWSbVB2ULPoP0hEWwB09o7aG0vQiIgAiIQIkTkDAv8QnU8NufQHDxDHKr/o1NhT6Ef3Y/7NETYQ+bCmeghFL709YR/TP7mxd+nj8Hq9tg+pf/bJQtt/sOExwREAEREIGEEZAwT9iEK9xbEKCntH/uKJpe/ku4BzcjLNTDmbYIzpCpFE19b7GzPhaB1hPwTu6Gu/l1Lvysh913NCoe/TLXNEzS9dZ6lNpDBERABEqegIR5yU+hAmhPAmGuAf6JPWj80Z/DO7mHpQUW0nMfhc2mQtHCz/Y8mY4lAiTgHdsOd90rCHN0ZBk8GRXP/SfY/Ucjla0QHxEQAREQgYQRkDBP2IQr3JsTCGqOwd2/CbkV/wj/0nFYPXogPeMR+pePYbOXm++rT0WgtQRMx0//yFYU1r0G+IAzciYqP/vHsHsPiTqAtvZ42l4EREAERKC0CUiYl/b8afTtTMA7sBmF7e+wCyNLC4J6WAOGsbHQYtg9B7fzmXQ4EQCz5A3wjmyGu+Ft/iJTBmfMXFQ+/0f8QthfeERABERABBJIQMI8gZOukG9MoLDlTeQ3vET7uq1IdUnDHjmD7his9+3S+8Y76RMRaAuBkM2F6s5QmG+Bt3Vt1FE2PW4hyh//DdWXt4Wn9hEBERCBGBCQMI/BJCqEdiDATp8IfOQ++C5yq/8dQe1pWAP7IT3pfljdB6retx0Q6xDXEOA159ccjkpZvF1buPBzFJsKLUbZsp/jF8Fe12yslyIgAiIgAkkgIGGehFlWjLcmQFEeFnJoWvE15N75Z9YYsNvnmAnIzH6KJQZZdvu0bn0MbSECrSFAYe6d3AX/8Fb4+/fCGTYNmSn3IbvgOaQqe7TmSNpWBERABEQgJgQkzGMykQrjzghEbixnDiLPjHl+08tIlWfoXz6dHRgf5qJPWws/7wyv9r4eAX758w59xFKWKgRHjyI9fhGvtwfYYfZhXn9dr7eH3hMBERABEYg5AQnzmE+wwrs9AkHdOTYUWsNFn6/BrV4Dq09v1pfPZLfPRbd3AG0lAq0lEATsLPs+S1m2s+vnOWRmLqcoX470uPksnaps7dG0vQiIgAiIQAwISJjHYBIVwp0TMDaJ+bUvoLB7Nbt97oM9fAy7fU6DQ/9y3USgQwiwfKqw7U0K850Ia+uQXfQ5ZGc/BnvIRKTSZR1ySh1UBERABESguAlImBf3/Gh0d4mAf7IaTa9/Bd7hbQgKtXAmzacby0TYPQbdpRHoNIkjQGGe3/gChXk10JhH+YO/iMy8p2D34jVnpxOHQwGLgAiIgAiwcjbkTSBEINEEPJd1vtvQ8MKfITh7CDDdPmc/HDUVSpV1STQaBd9BBPjPbui7KKz9DoU5r7kgRMXjv4Xs/M8015drsXEHgddhRUAERKC4CUiYF/f8aHR3gUBQVwNv3wY0vvJX9JU+i1T3rsjMZeay93C5sdwF/kk8ReizzWehAfk130Vw8iTXF6dR8fTv05HlM7zmuNhYNxEQAREQgUQSkDBP5LQr6KsJ+Md3o7BrNXLvfZOZy0ZY/QYiPXU5uy8OuHozPReBdiMQFhoR1NfA3fQKwpqLSHXtjYpHf532nI+12zl0IBEQAREQgdIjIGFeenOmEbczAXfneyhUrYzuqLC5+G48nNHz1eSlnTnrcB8TCBprEZw/Am/7KoQNPuz+I1G29OfoY37/xxvpmQiIgAiIQOIISJgnbsoV8LUE8h9+n97lP4Z/bCdS/XrDGTUL9oDxUH35taT0ur0IBBdPwz+1B171JqSCMjgjptOV5Xnac85vr1PoOCIgAiIgAiVIQMK8BCdNQ24nAmbdM50xmt76B+TXv4jg0jl6l4+GM+FeWN36seNnpp1OpMOIwCcJ+DVHuOiTHT+P7EYq0xuZSUvoY/4InOFTP7mhXomACIiACCSKgIR5oqZbwX6CgO8hzDdGiz6NMAeFujOZTYWmPNQsylPWJzbXCxFoLwL+6X3Mlq9lY6Fj/BI4FFkuNk5PWAR74Jj2OoWOIwIiIAIiUIIEJMxLcNI05PYhEDZehH/mEHLv/DMKO9+lTV2W2fJ5bI2+hEaiFOWp9jmPjiIC1xLwju+At2MVgtoLcPqPR9l9PxNly61eg6/dVK9FQAREQAQSREDCPEGTrVA/SSA4f4It0deyycsr8I5uhdWnD5wx81jvO+uTG+qVCLQzAe/wZrhbViBszFGQz6Qjy5fpmz8SqS492/lMOpwIiIAIiEApEZAwL6XZ0ljblYDp9plf9yLcPWtYX86SguFj4QybToeMse16Hh1MBK4l4O5fC3fDW4AX8BeaRah87g+R6tYXqXTZtZvqtQiIgAiIQIIISJgnaLIV6icJeAe3oOmNr8A/UY0w1QRn4kK6sYyD1b3/JzfUKxFoLwKm46eXZ0MrCvNNqwA7g8zk+1D5/B+1dPxUc6H2Qq3jiIAIiEApEpAwL8VZ05jvnIBXiDLlDS/+D4SXzgJdskjPfhR2r6FIZSvv/Pg6gghcj0AQsIfVBXj718Hbup6lK72QmboUFc/8Pt1Zyq+3h94TAREQARFIEAEJ8wRNtkL9mEBQx66LXHzX+KM/R+g3RfXlmfnPweral4s+terzY1J61p4EQjoBBeePwju4Ef6enVFdeWbaMpQ99MssY8m256l0LBEQAREQgRIkIGFegpOmId8hAZYTeMd3wd32DnLv/guQScEaOAzp6Y/CquhxhwfX7iJwYwIhf6nxT+yEd3grgkOH2WF2FjLTHkDZwucB+ebfGJw+EQEREIGEEJAwT8hEK8yrCFCYm2x5oWol8ptfR6pnF9hDJrDr4iJ1+7wKk562P4HQzcE7sJ6NhXbQw/wsRfmDLfdlrDdPt/8JdUQREAEREIGSIiBhXlLTpcG2C4EwQO6D71KYr6BI2gxr8KCoJbo9eBLLCVTn2y6MdZDrEjANrdxdb8M/xgXHtfUoW/RZZKY/CGfUTMByrruP3hQBERABEUgOAQnz5My1Ir1MIPDR+NrforDlTQQ1x2GPm0D/8vmwegxCSlnLy5T02AEEwlw9CptfRnDiEMKcj/KHf5kZ84dYaz6CwlydZjsAuQ4pAiIgAiVFQMK8pKZLg71jAnTFMOUEjT/4U2bM34qeO9PmIz3uHrpi0I1F4uiOEesANyAQAkFTLQprv8cyllPcyEbl07/PjPlDSFVybYMWHd8AnN4WAREQgeQQkDBPzlwrUhIwGcug9jQaX/kr2iV+yAV3FtIzliA9ZiGFET2kZcii66SDCISei6DuDNx1L9CZ5WJky2n8y41dourLOwi6DisCIiACJUZAwrzEJkzDvTMCQe0peEd3Rm4s3rFt7LbYFenJS6K26Hd2ZO0tAjcnEDbVwb9wFO7mN4AGH1bPAah48neRnnjPzXfUpyIgAiIgAokhIGGemKlWoIaAf7Iahe3vsr78DQQXj8AaMJSWdfOijp8iJAIdSSC4dBr+6Wp4u9YiFVZETkDly36eCz9ndeRpdWwREAEREIESIiBhXkKTpaHeOQHvwEeRI4t3cAvCoA726GmwB0+G3XPwnR9cRxCBmxDwzx2Cf3Qb/EM76Zc/gOsaFiA772kK9Ik32UsfiYAIiIAIJImAhHmSZjvpsRr/8p3vofH1r7DG9zhQYSPN+l6r9zA1Fkr6tXEX4vdO7IJ/gB0/Tx6F03csMjMfQXrSkmZHlrtwfp1CBERABESg+AlImBf/HGmE7UWA7dDzH71GR5b/BtOB0erXG5n5zyPFbp8pdV1sL8o6zg0IeIc+grdnDYILF5AePgvZxT8BZ9gU2nT2v8EeelsEREAERCBpBCTMkzbjSY2X3uXBxbMoGGH+6t8AaQv2oKHIzP1M5I6BlDykk3pp3K243eoP4G1fjbAxzwWfS1Cx/Ff5a81gpMq73a0h6DwiIAIiIAJFTkDCvMgnSMNrJwLMkBs3FrPoM/fet+jGUgl76Fikpz+mbHk7IdZhbkCAJVRh4LHj5yp429bQszOFzIxHUPHU78Iq70rLzswNdtTbIiACIiACSSMgYZ60GU9ovGGhCa5xY6lagcLWFbAG9qMwnwxn7CJ1+0zoNXHXwvb5a03uErzd79GRZSt/oalAdu5TqGBzoaipkBoL3bWp0IlEQAREoNgJSJgX+wxpfO1CwDQWyn/w3cgq0Tu8FfaoMbCHT4c9cBKFORsL6SYCHUQgdPNcbHwU3r51dGQ5CLvvMGRmP47yB3+xg86ow4qACIiACJQqAQnzUp05jbtVBMKGWrqx/B1dWd7n4rsTcKbMpjCfCbvHIMBSfXmrYGrjVhEwXwq94zsoyrciPFND3/w5dGR5mFaJz7TqONpYBERABEQg/gQkzOM/x4owDBBcOkc3lv8Ol64YocfFd3PuhzNiTsvCTyESgY4jEDTWwqv+EP6xvez46UY2iZmpy7gAdHHHnVRHFgEREAERKEkCEuYlOW0adGsImIylf+YwGl/6c5gyFuPIkpmzHPawGSpjaQ1IbdsmAkHdObhV7DR7+igQZFB2/88gM+k+NrYa36bjaScREAEREIH4EpAwj+/cKrIWAsGFkxTk29C08uvwz1Yj1bUr0jMegjNokhiJQMcSoCOLX3sS7oYXWWd+Hla2O8qf/G2kxy+C1a1Px55bRxcBERABESg5AhLmJTdlGnBrCfjH96CwazUKG15C0HiKjYUGwxl/DxfhjWrtobS9CLSKQLTws+Ywr72XEdbn2UxoACqf/U9Ij5krm8RWkdTGIiACIpAMAhLmyZjnREfpVq9HYdOPm+vLU01c9DmJHRenUyQNTDQXBd/xBIL68/BPV8OrejcqY7EHjkXFE78FZ/hUnjzV8QPQGURABERABEqKgIR5SU2XBtsWAsa73DQV8k/uQ6pLGs6Ee2D1HQGrsmdbDqd9ROC2CfjMlvvH6MhSTf/yyv5Ij5qNsvt+ijadY2/7GNpQBERABEQgOQQkzJMz18mMlDW++XUvoOnNryKov8Aylt5Iz3oiEuWpTHkymSjqu0bAO7Yd/uEtFOeH4QyYAOPGkpnxMKzeQ+7aGHQiERABERCB0iEgYV46c6WRtpZA4CPMNyL/4ffQ+Mb/Zit0n04sw5GZ+xzre7NyZGktT23fagLuvjXw922id/4FpMcujLzLnVEzYXXVws9Ww9QOIiACIpAAAhLmCZjkpIZo/MqDmhPIr/0Bcqv+DShLwx45Adk5zyYVieK+ywQK29+Cv2cjwqYCMrMeQ/n9X2S2fChSZZV3eSQ6nQiIgAiIQCkQkDAvhVnSGNtEIOq4eKgK+U2voPDRq0j17A57xBRkJj/YpuNpJxG4bQI+f61xGxEJ8+qdXOfpoGzh8yh/6JeaRbmdvu1DaUMREAEREIHkEJAwT85cJy7SsOECCltXoLBtJdzqdbAGDaYjy1QuwJuXOBYK+O4SCAtNCC6egrvrPQTHjkWlK2WLP4+ypT9LkW7d3cHobCIgAiIgAiVDQMK8ZKZKA20tgeDiGeRW/zvF0Qfs/LkP9ugJsIdOgzNQHRdby1Lbt45AwC+F/nG6sRzaivBiE+0Rp7OE6glkZj/WugNpaxEQAREQgUQRkDBP1HQnK9ig5hgaX/1f8PZz8V1TDZwpC+AMnQqr+4BkgVC0d51AUMts+d73EZw8jFSYZX35o0hPWYr06Dl3fSw6oQiIgAiIQOkQkDAvnbnSSFtDgI4s/umDaPjBf4N3lDW+lo/0nIfhDJ6EVFYL71qDUtu2kgAtOv1zh+Bufg1BLS066V9e/sCX4LDbp913WCsPps1FQAREQASSREDCPEmznaBYo4Wfx3ah8YX/l2Us+5EqzyI9/0l6SbOMxVKNb4Iuhbseaujm4Z/aA3fDawhzLux+o1DxmT/grzXmS2HFXR+PTigCIiACIlA6BCTMS2euNNJWEAjOn4B74CPk3vx7+JdOwOrRg42FHmXGclQrjqJNRaD1BIJLZ+Cxvtyr+hCpdBfWl09DxRO/GQl0fSlsPU/tIQIiIAJJIiBhnqTZTlCsPrPlhV2rkV/zA4ReLTt+DoEz8T7YvdRxMUGXQaeE6p3YBf/oNvgH9kRfBNPjF6GcyjTtAABAAElEQVTs3p+E1XNgp4xHJxUBERABESgdAhLmpTNXGmkrCLh71kRWie72dxCmPbqxjIczcg6sbv1acRRtKgKtJ+BW0wXoYBWCs2eRHrcImRkPIz3pXlhderX+YNpDBERABEQgUQQkzBM13ckJtrD5deQ3vAyPdnWp7uW0SpwNmzaJVkWP5EBQpHeXABd9hlx07Fa9RmG+E2FjHtl5zyC74DOwB4xRffndnQ2dTQREQARKkoCEeUlOmwZ9KwL5D75DD/PvIKg5jtTAfkhPXMI680ESR7cCp8/bTCD0PcBtQmHji/QvPxg1Eip/8BdRtuSnmrt9Wnabj60dRUAEREAEkkFAwjwZ85ycKJm1BLOWTSu/jtyqf0WYb4A9cjTS0x+lOOqClFqhJ+dauMuRBo21CGiT6O3+EOGFeli9BlOUfwHZuU/SCcihUE/d5RHpdCIgAiIgAqVGQMK81GZM4705Ad9F2FSHphX/GHX9BJ0R7XFTWOf7BDuhSxzdHJ4+vRMC/vlj8A6sR3D8AJsKlbO+fD47fT6O9IRFd3JY7SsCIiACIpAgAhLmCZrsJIRqMuTB2SPIvfct5D96GamKMthjZyIz5eEkhK8YO5GAd3I33I9eR1hXD7vnMGbLfxLOaDYV6j+yE0elU4uACIiACJQSAQnzUpotjfWWBIL68/AObkF+/Y/g7n4PVu9esEfNRHrsPbfcVxuIQJsImOoplrH4x6rgbn2f2XKbLkBTUfH4r1OUj2Jzq25tOqx2EgEREAERSB4BCfPkzXmsIw4unEShamV09yiU7MFDYQ+fAWfY9FjHreA6kUAQwDtdDf/IVvjVu2B174/0+IUof+TLtOfso9ryTpwanVoEREAESo2AhHmpzZjGe1MC/plDyH/wXbh718KvPQJnzBTYQ3jvN/qm++lDEWgrAePG4u56h8KcFok1FyjK70Fm6jJkZi5ntrxrWw+r/URABERABBJIQMI8gZMe55D9E3vR9PpX4B3ZjtC9CGfKIvqXT4iymHGOW7F1DoHQK3Cx8SV6l7+O4MRRXnMBu3x+gaL8ETgDxwBOpnMGprOKgAiIgAiUJAEJ85KcNg36ugRolegd2YbGH/4/8E/TRzoTIj17ObPlbO5Cq0TdRKC9CUQWiTVH4G1/F8HFBljl3VH+6H+IhHkqXaYylvYGruOJgAiIQMwJSJjHfIKTFF7o5mhX9xEavvd/I6g9hVS3CmRM18Xew+kjreYuSboW7las/pn98PbTIvHkEaTS3eGMmo3s/GeQHjMnajB0t8ah84iACIiACMSDgIR5POZRUZBAcOkc3Op1aHrpLxHkzrPBS2+k5z5N67rB4iMC7UuAv86EXp6/0GyBt2M1wsY8S1cmIHvP5+CMnAm7z9D2PZ+OJgIiIAIikAgCEuaJmOZkBOmf2sdFeB+g6e1vgEoJVr9BSE9brvryZEz/3Y2S3WWD+nPMlq+Dt+0jpDJsKDTpXlQ8+TtIde3F7DnLWHQTAREQAREQgVYSkDBvJTBtXrwEvP2bUGCtb379i0CWHT8HjYIz/l5YXXoX76A1spIkEBaa4B3eTCeW7SxjOQVnyCSkpyxlU6EvNItyiy1ndRMBERABERCBVhKQMG8lMG1evAQi//KtK+DuXIVU9wpYwyYjPXwmu392L95Ba2SlR8BkyxsuwN2xIqotD5tcZOc+RYvEB2iVuEDrGUpvRjViERABESgaAhLmRTMVGsidEsiv+QEKm19jJnMbUv37RAvx7AHjkMpW3umhtb8IXCFgsuXBhRMobHoF4fmLzJCXo+Lp30Wa3uVWZU85sVwhpSciIAIiIAKtJSBh3lpi2r5oCeRWfh35DS/BP3cM9ogRcMbdA6vHQAon1rXoJgLtRMCnPaJ/fAf8/fwCmKqgT/44lC39IpzRs5GSb3k7UdZhREAERCCZBFLeieoQThopOx01wzD/sURCxnb0k2wyr4nSi5oOGQgDNP74/0N+3Yts+FIHewLLWCYupX95V17bvJZ1E4H2IBB55W+GV02LxJpzsPuORWbag7w/ALv/yPY4g44hAiIgAiKQYAKphpf/KrQqu7MOtwcXyfWko0AfZhn7Ra2k5SyQ4CujlEJnzW/o5tH44v9oXvgJftecOg+ZKQ83f7lMlVIwGmvREjAWiYFH559VbCi0FvB8OrHch/KHfimyR9RahqKdOQ1MBERABEqGQKr2z54Lowx52mTKyyLbL2P9hbJKWOyWmKroFi2euyLcKd6tLrQDy9AOzGTZdROBTiYQ5hvYdfEMml7/CgpVb7GmPA1n8kKkJ9zPet9OHpxOHxsCxrfcNK7y9q2Bf2BfVE+embE8EubROgb+8qibCIiACIiACNwJgdT5P5oXhkHAUgCWA5jHgI8+76akhYvmLHryWl17s4siM+nd+zObznv3frDodJGieIcR85Ggp1CnWI9KYtRl8U7mRPu2kkBQVwP/xF7kVv0bXIqmVPdutElcgPTo+a08kjYXgRsTMCVS3tEt8A/TIvFcLZyhk5GZ9QjK7vn8jXfSJyIgAiIgAiLQCgKpi1/72TDMNyLMNwE5PuaaeM9TnBuxziNRZKeslnpz1upG9bp8narsBqtbX3ZXHMw6y2G8j2BDF95NNt0Idt1E4C4RCM4fh7t3HRd+vgzvxDZehwO4EG8uhdO0uzQCnSYJBIK6s3Cr3kBw+hj/fUwjO++pyLs8PWZuEsJXjCIgAiIgAneBQKr+jf8Zhl6B9ZKFqMU0WKsbujmA97Bw1WO++XWY57YFrzkznmFG3WTOu5j6dApy3qMMu3nOLLvFLHtUs2464ZnymJSabtyFOU3cKfzTB1DY8iYK296hjd1BWEPHwBk+A/aAsYljoYA7hoCxSPRrDsPldYZLDUxM9Eb5w7+C9Lj5sHoO7JiT6qgiIAIiIAKJI5Bq+uiHJi/+qZsR56Z2N2y6xO7mF6KGGmFDLZrvlyjc3WjxU1QGE5W/mDKYIFo0apkFpH2YRadLgd2Pd2bUjUBPZctpJ0brOlPPbmzFJNQ/xV1vtJ6Af2wXch9+j7W/GxHkzsAeQ1E+aBLs3kNbfzDtIQLXIRBcPA3/5G54Oz7kv3MZfukbjYonf5tfAPmrjEr3rkNMb4mACIiACLSFwA2FubGfaxbdHn+29SI3AvMI30Vo7pFgN0L9PIK68wjr+Ly+np+b/hp2c+25qTk393KWvfQY0CzU+4+KHq2+w5tFulpXt2XetM9VBLyDW9C04mv0lt7N6qtGLvxczGtsDH+96XvVVnoqAm0n4B3bBv8Q68uPH+YXvpHs8LkQ2QXPRiV8/Aev7QfWniIgAiIgAiJwFYEbC/OrNvrUU+bYQ5e16CajnmNGPRLpF5sfc/V8rxFgzXpUr25KX4IUHV7oJ81FozZ/9rV6DoiEenOpC0teLpfB0AEmcnrRf3SfQq43bkzA1Jc3vvQX9JVm7W+5hfSs5RRP/JWG15xuInBHBMzviUxSFPasgr9vM8JL9RTli5Gd/zSckTOjhfF3dHztLAIiIAIiIAJXEWibML/qAJ94SmeXoJECnYukgounorbVwYUzQCMFfIGlL5HzC/+nMyUsXEhqFozaA1gPPHg8u+eN4Wtm0c3CUVPmYhaYmp+IzV1C/ROY9eIqAhRN7s730fDd/ysqt0r17IrM/GfpHDSAv8jIvu4qUnraFgIszzM2iYWtr8Gv3hEtiM8ueA7lD3wpWlOjrrJtgap9REAEREAEbkSgfYU5z2LKXKKFpNEiUjq9cNFU2HQRQX0NwosU7JfOAw3Mque5gNTYLNKSMWX80suNZ3r3ZpeXPkPYsGMYLNamG+cX87luInA9AiF/oSlsfxeNP/zT6Fccq28fZBZ8lr/C9NYXuusB03utImAcq4Jauv7sXo3gxMno36Oyhc8ju+QLWifTKpLaWAREQARE4HYItLsw/9RJL5e9GHFuMun0nDZ16WHDRZa7GJtGOr+w3CV0WZwOq9mC0dSj9xwEqzfvLH8xbi+ReGc2vfmRIj5bQWHPhaRaQPop5Il5w/xCw4Yvhe3voOmVv0Zo+bD6D0Zm7jN0C+qRGAwKtOMImISCd2Rr5F2OehfOiOnIzn0SmZmPdNxJdWQREAEREIHEEuh4YX4dtKFZRJqvh3/+GOuCj/B+gtl0I9aZYTflLqauM7qFzRl12i6aMpfobrzSebd7D252erm6+2i0BksLsS7Ti/0jrxX/xB7aJL6Npre/wS9tNqxBI5CZ9ki04Dj28SvADidg/o1yt69EePYkM+Td6F3+NNKTllCgyyO/w+HrBCIgAiKQQAKdIsyN+A4DOr1EGfMGinTWoOfrWPJSxzphCvT6C7yzVr2Bi0iNy4uVpuhitvxy2cvlzLkpfTFdSY1nepee9Bamn7rxVedjqpyLTbm96tNjfFWb+nJaJLrbViK35odcXFwBe8g4Ls5bEv2yEuPIFdpdIBB6Lvwz1XA3vc5/jxph9xqK8ke/HGXNzS95uomACIiACIhAexPoHGF+vSh8P2psFDSco/OBKXk5y/8MKdKbWI9eYCdS/icJj2Leo1I3d9qmRzXqrCW2urMDaeTs0rNFoPMxEufdaNdofNOzzdaMXFQaLQi0Wx65ODDyU48WmKr50fWmpajf48K8AkV5oWoFF+et5C8pvWAPm0y3jDmc94qiHroGV/wEAv774x/fwaZC7zE5kGUn2cn0Lv+dyMM8WqBe/CFohCIgAiIgAiVGoHiEuQEXlbEwm85MKAKK75BiPdfQnEW/LNZNjXods+mNLHsxAh0sXTF15rynzKPV8polLka4R6Kd2a1oEemVzHqLgGeWPcq0m8y6cYLRrbQI8BrJr/0hhflKZs43wBoyOMpmmuZCZu51E4E7IeCxoZB/hP7lB3YzWz4M6bHzUbb0Z7lA3XT6VMncnbDVviIgAiIgAtcnUFzC/DpjjFxeoi6kXCha+PjevHDU+KgbhxeWvBTYqdRk1vN5Zt5Ndp3iPkw1LxJl9jRaLMpmRzBOMKbpkVk4evl5hh1JeUe0oNR8ZrZjVt1k2qPnJuNO4d7yOtrXZN+jY/AzU+eu7n/Xmb0OfovC3NSWu8yYe2wuZI8eG2XLrT6meZW+aHUw/dgf3t27mk2FqhCcPUdRvhCZ6Q8iM2UpF6P3jH3sClAEREAERKBzCBS9ML8hFooyI8oDur2Ejew6apoc5Zrr1E35S2TTWDDNjZhV900Gnn7EUSaeK0uDlvvl1ya7bsR5S116s4jnayPUeUck7JvFe/NnfN+I/JbPI4FuymNMF9PL3uvm+ZUsfvPzKLN/+f2Wx6vfi7a/+n35t99w+qMPuIi48dW/YRnLCgTnj8OeNA3p0fO55oBOPvTJ100E2kTA/HJnyqS2vkJhvov/thTYUOhZLvx8Juq3EH2Jb9OBtZMIiIAIiIAI3JxA6Qpz49xCYR0a4c2Sl+bSl5bX/E8VvrFgZBbdNDwy4j3qSGoWmbZ0JWVnUjDDHuaZXffNwXiLSmFaSmLM8+jOn6yviGVm4K+8bz5v/izKmJsMuhHqlxepmucm2x5l55uz9FGG/nIW/tr3r87im0y+ycaruVLzvNzoTwrzBvqXF7a+xXm+BGf6PKTHLOIcsOOnmTPdRKANBCLXKP46V9j0IktZDvPvuYPyh34JZYs/z7/jLHvTr2NtoKpdREAEREAEbodA6QrzW0VnRDsXlMKUvxiBzjvYwc908YNL0R49Z0bdvPbMa/PciHS3WewbS8fozsx8lHU3mfeWLwDMwIeR+DdfAHg39ab8zzoqnzAC3ZRRmEdT4sLMbfOC05bnl99reYTJ1psOlWY7k+WN3ud7Lc8vP6JloWpzdp7bR+cx+5nz8dEI/ug4La8/MQ4eN25iwswvm1g1fPe/Ros/zdw5s+9FetziZu76teFWf0P0+Q0ImF/f/AvH4e14F+H5Olg9B6Ls/i9G/uXNX/j49103ERABERABEegAAvEV5q2AFdWxmw6lxr7R5WMk3k2tOsW8EfVXXhtRb8S9EfG8G4Fv6tmNgDdCPcric/GqedLyPBpGlJBvee/KZ+aTa96L3oo25jP+5x+J+pY6d5NRv5yNN2U32eZSG0TPTcmNsZM0JTZXldyY7J7ZzmTgzZeF6BcBHjdlRxnlVMtjJNqjXwX45cI8tjwvaqtJfoEKmCU3wtylgIJtIT3nAdYC3xOhMyh1E4G2EAhqT7Y0FdqJlJ+BM2o2y1ieQnri4rYcTvuIgAiIgAiIwG0TkDA3qCI3mJYyGFN3bu6R0OZ717y+su1V28B4slMoRpn3SMxTvLOU5koGPvrMZOBNNp6PUWbevDb7mdct2XhjGWmy8lFNfItoN5nfSFBfFs0U1ZdfR49GSBuh3fx+JKyvFtzc5nLWPRLuRsCXs3Oqqacv7wYremx+nqowjy3vl3WJsvC3fSXd5Q2j9QUXTqLxpb+gI8tafimhgJq5DOlR8+7ySHS6uBHwz+yHu/NdhOfO0HZ1ADJsKpSZeA/swRPiFqriEQEREAERKDICEubtMSFRwyQjqFvEuRHll0W3EeKRcG9+bF6M2iLIo8+MGL/mM1M60/JZ9AWBr6NymsslNdHn5suDeb/5sXm75i8U4WVhH312OQNPYW/q1unrbjy+o8z65cWrLZn2K4tZo/cp4E2G/vLCV773cXbeZOh5d1hDb8pnOuEW0DbTP7UfTW9+ldnNLVzw2QXpKffBGT6zE0ajU8aFgPm76B/fDncz1y005eEMmIDy5b/CxlUTI8vVuMSpOERABERABIqTgIR5cc5Lc5WLEedmEeuVUhqW2dAWMqqVZ0kNvBaLyE+U25gSG1OGYx7NFwXzJcAIfYr2yxo9emzJyJv4zS8G0eOVP6Ja9yij3rVPsxd8NzZx6mae0xOe91TU1IndVi8vtDSZ+ZasfXNG39ThmnvH3ILzJ+AdrkLuvW/CO7ULVu8+cCYshjN4csecUEeNPwHzVyJfz+vqI7gb3on+DqTHzEXls38Y1Zmb0jLdREAEREAERKAjCUiYdyTdOz325RKbK2UzRmA3i+yPS2ya3/u4KVNz1pxqvDnLbvaNhDkF+hUx3yLujcg3ot74v0dinkLe1M0XzBcCqhQjth3j924WlJrFpZe93PmeWVzKshersntz86ZuRrBTvJu7EfNs5hQJGVNu0wE3//RBuHvWIL/+RwhqD8IaMBTO6HnsyjiuA86mQyaCAL+8+jWHKcy3wN9VxS97g5GecA/KH/6VqLNwUa+5SMQEKUgREAERiD8BCfP4z3GUEY9KYZh5vyLOIyHeIsyNODeiPaqPN89bxHqLU01zHbwR6+ZOwW9q4tnAKXKdYamLEeFGjKe6NT9aXXuxCQufm3r1im7NdevmkXXrkQd0O4h1/9juyI3FdP0MGk/BGsrmQiNmwu4zIgkzqhg7gIC5zr3Dm+Af3o7g2FF+0ZuLzNSlXPj5dHTtdsApdUgREAEREAER+AQBCfNP4NCLiICpmacoNz/rR82bGmopfk0TJ94b2MgpujfQirJZqH+qZCXyd7cpkofC7j+Si+bGwxk0AVb/UbB7Doiy7XdK2ju4BfkNL8Hdu44/DtTCHjWd55nM4w+600Nr/4QSCLko293+JvyjexBeuMSmQs8gM+NhCvTZzT0JEspFYYuACIiACNw9AhLmd491aZ2JP+s3O8iYGnfWq5tse+Q00/LaZNyNR3zUuMl0XGW31RwbODUZ20lT3+41Lxw1WfKK7lHm3KroEWXV7R79YfUYCKsX7+aR5S+t9Yd2q9cjv/rbzHBuQ2hzkd74+fwSMIZlNf1Ki7NGWxwEzJdRWqYWNr4A/9ih6EunKWHJzH4cdi9+2VN9eXHMk0YhAiIgAjEnIGEe8wnuyPCikpc8xbjJpvMemC6rvKOJQt2I9Kg8xtStm/p2ZtdDdk6lXaNFYW73HgrLZNR5t8xz1qpfFvBRXfsthJC7+wPk3v4GvJP7gLIwcmSxeg/ncXp2ZMg6dkwJmGs1bLyAwgauWThzLsqQVzz528jMeqyl/KrjFjLHFKnCEgEREAERaAMBCfM2QNMuLQQiMxeTWTd2Fsb1peVu7CGZZQ8unuLCzJMsCzCPZxHWs/yFtelXfNjp4hLZLjKj7gyfyvs0OCOnM4PeP6pLvxnnApsK5d74KhfrHWM9exrO9Idg9xh8y/1udkx9llwCQcMFBOcOsVnVe0CDx19zBtEm8deQmXI/r1eJ8uReGYpcBERABO4uAQnzu8s7GWe77CbDMpfA1KlfKXepYzadNers2BndG/iZ6yMVUqAbO0ZjxdijX1Q6YPUazEz6EGbWh7SUutCq7iqBVNi6Ao2v/BVC+pmnelQizZIDU8ZifNd1E4HWEvBrjrK2vAr+IXb7dLqzUdUsZBc+x66fs1p7KG0vAiIgAiIgAm0mIGHeZnTasVUETFLddD5lqUtQd4bZ9NMImVEP6y6wLp2ZdFPuYtxeKNQjv3SWtzhDJkSNXex+o2hXR89005k0+/+3d2dBcl33fcf/vc8MAGLfN2IjQOwkwV3iToqkKJJhaFmiXZYtuxzbKacsleMkZcd5yFte85L35CW2S6lEtizbJVmSJXETSZDEvu/7YBsMMDN9l/z+p7sHAxIEZtA9S3d/b7E53bfvPfeez52H/xz8z/9oRVIF6AMf/dB6/89/C0F/dvZ0rc74hmWUxhJKOo7oxjgYAf1DzomdFu35pSVnT+sPw2VW2vJKKJWYm7cCHgQQQAABBMZMgMB8zKi5kC9wVFnBVHnnKk0XAvU+5aN7GkH3Eb2O63VOtdqVi57RCHmxI5Sp85z0wrLNqo6xRSURN4aa6v0f/sB6/+q/hnay8+da6fFvVIJ2X+SIDYERCkQHf2XlrT/WH4l9+h27P9Qu96A81OMfYVscjgACCCCAwJ0KEJjfqRznNUTAg3NTNYzkSrde5zSCrtcVjaJf8dKMCtoHlOqSLVXSWrzcooIlnzDq1Vj6fvq/NHqeWnbhQgXmb2nCXucN6S4NuUEaaW2BajWW8v53LPr4F+EPwsK9T1jXq9/V3AXV49cfh2wIIIAAAgiMlQCB+VhJc53bC3iQpDKNyUUfOdcI+tlD1UmjV8PCRlrRKIyK55ds0Mhmj0UHPwxlFrMLF6nm9JuVRWAYMb+9M0cMCviiQsnlMxbtf7ey2qeC8YImEk967U9Vb78weBxvEEAAAQQQGAsBAvOxUOYawxfwdJewQqlWJVWddA+akgsK1E8d1Gi6Jo32awRdtdHNK78oOPd888ysGZZf86hG0pcpF30mo+bD1277I71MYnxyl0WHtlpy5IjlF6+z4qbnrOPJ39AffUqnYkMAAQQQQGAMBQjMxxCbS41cwCu6JL1Kc1HVjOSiJote9nQXBeh9/WHCqKJwTQotKTjXokUqcZfVyp+hOkun6qIXldrChsAtBNL+q1be/7YlR3eqXOIlK258Rq/nwquy6NUtTuYrBBBAAAEEGixAYN5gUJobPYFQa/q8l7XbpiBK9dF7VM0llGbUMLtvpaLKLU633JK1lp2tSi5T5yk/XZNBM1mP39kQ+JxAqvKdA5/+gyUn9C8y12Lr+PI3rbjhWdXUX1/5vfncGexAAAEEEEBg9AQIzEfPlpYbLJBGmiha1kRRX2HUSy5qBD2Movfoc79SX3zxoqxG0DtVzeWuGZowutBy89eossYs6ps3+Fm0RHP6oy7pPW8D731Pq32eVlZUwTpf0Wqf658ONfU9TYoNAQQQQACBsRQgMB9Lba7VMAFPQfCgKqwsqoouqZddvKyfV3zxIgXphbyqaky23NylCtAXV0bPu1TnvKAqGwRcDXsOzdxQWu4Lvz8D739fNfWvWFZ18Lte/zMrrP1S5fekmTvHvSOAAAIINKUAgXlTPjZuOgiEDJZQHD3UR49P77NYC8UkR/YqUB/QBFEfQc9aZsY0yy1cZbnFmyr55zkm9fEbpF8P/UEXnzlg0ac/1b+25Cw3+27r/OofW2Hlg/AggAACCCAwLgIE5uPCzkUbKlAN0D1fOIyiXz6tHHRNFu0+oVH0y5XgvLNT+eezlHu+VOktqzVhdBqjog19CM3XWHzusMXHtll84FNV+pmjgPwBKz32dVVmWdt8neGOEUAAAQRaQoDAvCUeI50YFPBa6PGAAvMjGg3dr9zhQ8pHVw66j6Ar/zw7fboWJFqtZdcXW2aqKrl03BUC98HzedM2ApEH5Qc/ULnEY5afs9qK971ghXVPaeR8adsY0FEEEEAAgYklQGA+sZ4Hd9MIgZDdEg3WQY+Pb7f4yJ6w3Lol+jKftex8TQxduMbySzZbJl+iAkcj3JusjbDa56539K8qPVZY8bAqsryldKd7w2ThJusKt4sAAggg0CICBOYt8iDpxk0ElGOeehWXsEjRMa0ketiS82c00a+nUvv8rmmhckt2thYmmrGI0fObELbkLk99SmMb2PnPFm1/V5V+Ei0q9IJ1vvhHmoOgCj6lrpbsNp1CAAEEEJj4AgTmE/8ZcYf1CvgIutJb4tN7lbawWzWrDwwZPdekv4XLwuh51tNbOqYo91wj6GytK+B/sGlV2fL2H1m08+Mw16D00GvW+bXvWCZXILWpdZ88PUMAAQQmvACB+YR/RNxgQwQ899zL4/Ve0Ij5SYsOagn2c6fN+lUbvajSilOmKDi/x3IL1lhu5t0sSNQQ9InZSFrut+TSKYv2/EI55gc032CBFR981Tqf+z1KaU7MR8ZdIYAAAm0jQGDeNo+ajrqAL1KUDvRqUuh+86oc6bnjlvT0mMWxFiWaatk5i1X7fIWC86Vh9Jxl2Vvv9ybt67X41G6LDnxo6ZlzWuVzoxXvf8lKj7zRep2lRwgggAACTSVAYN5Uj4ubbZiA0hkSrR4aHduu1JY9yj3vVq6xgvOukuqez7W8allX8s6nVCaGsihRw+jHu6Hk6kUF5e9bcnSXKvb0W3HD01bc+JwV1j813rfG9RFAAAEE2lyAwLzNfwHatvvVvPO074olF44q/1ylFb1yy4BSW3I5TQLU6PmCVRpN3VSpee6VW9haQiDpOWflHT+25NRhLSyUt47Hv67VPp8II+ct0UE6gQACCCDQtAIE5k376LjxRgmkfT1hafb4+A5VbtHCRL4okcoqZqcpOJ+/Quktyy07dZ5ltSgRW/MLJBdP2MCHf6s5BmctW5yqaix/aIV7Hg0Vepq/d/QAAQQQQKCZBQjMm/npce+NE1COueeelw/+yuJDn4Ta1hYlqnmuqi13r7LconVaMXSNZbI5Jgg2Tn3sW0oTi7uP2MDb39MzvqJ/GZlrk978c8uveIAyiWP/NLgiAggggMBnBAjMPwPCxzYV8KotiYLzK+eU2nLM4qM7Lek+pc9XlcrSobzz2QrMNSl03uoQzBk55035i+KpS/GZfVb+4B81pyBjuTnLrOv1f680lg0qk6g/utgQQAABBBAYRwEC83HE59ITUMAD9H5V7fCa56f2qXrLUUt7ryrvXKuFTtWCRFoZMjd3pYLzeap5nWf0fAI+wlvdUiiTeGKnxdvfsUxxmlZ+3WCdX/k3KpN5z61O4zsEEEAAAQTGRIDAfEyYuUhTCYSVIZXyoHrn8ck9Fh/YaulF5Z0raM9MU73zBSssv+bJymJEHpyzNY1AfGqvKvF8qme6U/XLl1lh9aNWevRNy81e0jR94EYRQAABBFpXgMC8dZ8tPatTIB24FhYkCjXPffT8xLEwcp7p6qrUO1+4VgHdsrByJKktdWKP0enR4Q8ri0udOq7R8vutuPl5K657ShN9547RHXAZBBBAAAEEvliAwPyLbfgGgTBK7nWvQ2rLgY80YVArh6qkYiaft+wSnxS6XiOvC5UW0UWOchP8vpR3/8yifVpY6NJlBeTPhEWF8ovXWWYSFXea4PFxiwgggEDLCxCYt/wjpoN1C2gxIs87T650W7T758o9P2rWN6BUlqJlZs22wponNOK6QJ8n130pGhhdgYGPf2DRnq1m/WUrPfyGdTz9Lc0dmKs/rDpG98K0jgACCCCAwDAECMyHgcQhCJhXbIkGNHK+T4H5XqW17FewruDcFyOas9Cyi9ZYXhVbMsVJYYEixCaYgP9xFfXZwNYfWLxvl/51QwsLffkt63z225UyiVRkmWAPjNtBAAEE2lOAwLw9nzu9vkOBNCqHcorRgfdUseW4yin2hpayC5dYftl9lp2xmEmhd2g7mqel5X5Lr5638if/ZPGRI5adPN06nvxN63jqW1TWGU142kYAAQQQGJEAgfmIuDi47QW8nGLkQd4liw59YPGxPSFf2Rciyk6bZrmVD6o2tlYLnTyz7akmEoCv7hqfO6hUpHcs7b6kmvSrQn556aHXJtJtci8IIIAAAm0uQGDe5r8AdP8OBGrlFLsPVdJaju+xpKfHTOkS2TnzLbdwtV6aUFiarEmihTu4AKc0WiDpOWfR0U8sPrzN7FpaKZN434tWWPdkoy9FewgggAACCNyxAIH5HdNxYtsLKEBPejUh9MD7yjlX3nn3hVDFJTtvnuVXPWTZmUst26VqH9ls21ONN0B88USYuJucOqzKlpOt9ODXrLD2ScvfvXG8b43rI4AAAgggMChAYD5IwRsERi7gOeepyilGx7ZZcnSH8s8VnGczqvQxtZLWMneV0lpmjLxhzmioQHzukJW3/oOeT7dlJ80Nkz7zK7dYbhYLCzUUmsYQQAABBOoSIDCvi4+TEZCARs7jC8eU1qKUlqM7Lbl8ySyKLbtgkVJaVK1lwVqzUpcquJDWMi6/L5oXEOnZlN//W0t7rykYX2Zdr37XKvXLp47LLXFRBBBAAAEEbiZAYH4zFfYhMFIBBec+wbC8/x1Lju225Oy5ysj5nDmWVx6z1znPdiqtJTPShjm+XoE0Llt8fLsNvPN3ZuXU8ovW2qRf/y+Wm7ucNKN6cTkfAQQQQKChAgTmDeWksXYWSOPIUp9keEIpLZpkmFzWhFBPa5k23XIrtlTqnHdOoTzfGP+SJL3nVT1nm5U/+pnqzE+xgspadr36Hc0BWMyzGONnweUQQAABBG4tQGB+ax++RWBkArW0Fg/OfeT8kqe1JJZbutxyi9dbbt4qyxQ6GakdmWpdR8fdRyxWRZZo50eWm77Y8vc8bJ3PfNuy0+fV1S4nI4AAAggg0GgBAvNGi9IeAr7K5MBVK+/+F43U7lbd7IvKMc9bdu58K2x8wbJTZlWCc6TGRCA6sV2LCn1q8YE9SmPZoBKJT1jp4dfDcxiTG+AiCCCAAAIIDFOAwHyYUByGwIgEklgTQo9bfGKnAsJPlX/erzQKD84Xa/R8k/KbNXLuk0EzJJ2PyPUODi5rldb48CcqaXlC9csft+Km562ovP/MJOX8syGAAAIIIDCBBAjMJ9DD4FZaTEDVQOLuwxYd/JUlp45YeqXXfIXQ3LJ7VT/7PpVUnK8FiEpMCB3lxz6w48cKzPXHkf7lonj/y1Z64JVQvzzTMXmUr0zzCCCAAAIIjEyAwHxkXhyNwIgE0nK/pf2q1rLjn5Vzvl81zzVyPqXLsvOWWuHep1TjfBb55iMSHfnBAx/9P4sP7lCpxD7r+PJbVnrkDcuqfnmmoD+K2BBAAAEEEJhAAgTmE+hhcCstKKBRc1POeXRql0r2aULokX2W6nOmq0sj5z4ZdI3lZnh1kBbs+3h3SfZuPfD+X1t8aF+YhNv5wu9b6fFf14qsd+kPovx43yHXRwABBBBA4AYBAvMbOPiAwOgI+Mh5fO6gKoP8i6Xnz1kaRSqjOM1yWhI+f/cW5Z9TqaXR8mkcq255n/W/+9da+OmoRsiL1vnyH1uHAnPL5sjvbzQ47SGAAAII1C1AYF43IQ0gMAwBH73VAkTxxeMW7dEiRCeOhZOy8xdYfulGjZyvtkynRnHZGiaQ9l+15Eq3lbf+vaVnLyinf451PPe7VnrwVYLyhinTEAIIIIBAIwUIzBupSVsI3EpAlVrS8jWLDm9V+T4tQHT2rGU6isp3nme55VuU0qK8Z1+AiK0hAknvBUt88u3On2vibdnyC1Zb6UvfsOLGZxvSPo0ggAACCCDQaAEC80aL0h4CtxFILp+x+OQei3a9rYDxqlkhb/kV6yy3SDnnc7RMvGXJOb+N4XC+Ti6dsui4apgf+MQySckKqx6x4pZXrKAFhtgQQAABBBCYiAIE5hPxqXBPLS2QRgMWgvNDH6jO+QFLL14OlVpyi9dYfvWXLFOarDKKqnHOVpeAr/gZ7X9XaUOHlMM/w0r3vWSF9U9afsn6utrlZAQQQAABBEZLgMB8tGRpF4FbCKQD1yw5fzSktSRHVUaxrMmgM2aoUstmy81frTKKM8mDvoXfcL6KT++18vafhMm22alLVCrxm/qXiQf0rxJ3D+d0jkEAAQQQQGDMBQjMx5ycCyJwXSA6stWifVqA6OxpM00QzUyZbIXNz1cmg+Yo53ddauTvPI2l/OEPVb/8quXn3WudL/2R5ZRnnr1LtePZEEAAAQQQmIACBOYT8KFwS+0jkFw5r6BcZRT3vG3JpUuh47ml91hu8XrLz1/DqPmd/iqkqh1/+CMbeO+HKpkYW37ZfTbpjf9k2ZmLKqUp77RdzkMAAQQQQGAUBQjMRxGXphG4rYAWwEmuXbZo78+Vb67Fh85fsszUKZoIusryqx5X1RbPNy/ethkOGCKgNZ1C9Rvl8Jff+5H8Spa/5xGb9OafW3aKUoS8hjkbAggggAACE1CAwHwCPhRuqb0E0jiytOesRQfes2jH1tD57Ezlm695xHKzl1fyzduLpL7eKiUocc9DH1r08TtKXZlthXu/ZF2vfMcyk6bW1zZnI4AAAgggMIoCBOajiEvTCAxLwBcfirQy6KndCs4/VGrLSctkMpaZM18l/h6z3Nx7KJ84LMjqQfpXiLDKqlJZ4p3blFd+jxXXPWkdT3+LOvEjceRYBBBAAIExFyAwH3NyLojAzQWSnnMhoIwVnKdXezURdKrKJz6uiYuryTW/OdlN9/q/QMTHt1l8+BOLDx7QHzcPWWHD01Z66DWVopx003PYiQACCCCAwEQQIDCfCE+Be0DABXxlUJVRjI59aqbgMjtnmWUnzdBkxS58RiCQxuVQvzysrnrilBU3vxBW+yyse0qWHSNoiUMRQAABBBAYWwEC87H15moI3FrA86O1MqimLyofeqZlcpqomNFKoGzDFvAFnMo7fmzx0V2Wdl+00mNvhuDcK7MwkXbYjByIAAIIIDAOAgTm44DOJRFAYPQE0nK/DWz9O0uO7dWk2mvW8ey3rXT/S8rVX25GbfjRg6dlBBBAAIG6BQjM6yakAQQQmEgCablP9cv/xuJjh8z6I+v62p9Y8YGvUipxIj0k7gUBBBBA4KYCBOY3ZWEnAgg0pYAWFkr7eq3/nf9tycmTygjKhIWFig+8XFlYSNVu2BBAAAEEEJioAgTmE/XJcF8IIDBigTQqq6LNBRt4529UdvJ8CMZ9YaHifS9S2WbEmpyAAAIIIDDWAgTmYy3O9RBAYNQE0r4eSy6etIGPfmjWM2DZaXOt86v/zorrnxq1a9IwAggggAACjRIgMG+UJO0ggMC4C4Ra8GcPagXVn1smKmhxoVVaWOi3rXDPI+N+b9wAAggggAACtxMgML+dEN8jgEDTCMQXTlh8YofF+7eq1ORUK6zYYqVH37D83Zubpg/cKAIIIIBA+woQmLfvs6fnCLScQOyj5Yc+CqUSs5PmW3HDM1bc9LzlFq5pub7SIQQQQACB1hMgMG+9Z0qPEGhbgejkLov2vmvJmROWn7nCSg+/bvlVD1tuzt1ta0LHEUAAAQSaR4DAvHmeFXeKAAK3EYiOfGzRzp9rAugFyy/cqPzy37L8orVhEuhtTuVrBBBAAAEExl2AwHzcHwE3gAACjRIoH3jfok9+opKJ16yw8mHrfPmPLTdzkWW6pjbqErSDAAIIIIDAqAkQmI8aLQ0jgMCYCqSplff+wsof/sQsTqy49inreuM/WmbSVMsUOsb0VrgYAggggAACdyJAYH4napyDAAITS0BBuS8uVN7zM4s+/IVZLq9Jny/YpF//L5bJF7S4UHZi3S93gwACCCCAwE0ECMxvgsIuBBBoMoEkseTaJYv2/MKibR9olHy6le57wbpe/zOzbK7JOsPtIoAAAgi0qwCBebs+efqNQAsJpHE5rPgZ7X/X4j07LTdrqRU3v2CdL/4Bo+Ut9JzpCgIIINDqAgTmrf6E6R8CbSCQlvstPrPP4oMfWnz4kOWXbAj1yzueeIvAvA2eP11EAAEEWkWAwLxVniT9QKCNBdKBaxYd/URB+SeWnDxjhTWPKTB/zkpbvqbAPNPGMnQdAQQQQKCZBAjMm+lpca8IIHBTgbS/18pKY0mO7rSk+5Lyy1+04sZnrbDuSQLzm4qxEwEEEEBgIgoQmE/Ep8I9IYDAiATSvh4r7/qpxcf3Wnq5zzoe+zUrbnja8ssfIDAfkSQHI4AAAgiMpwCB+Xjqc20EEGiIQHr1kg1s+0dLThw060us45nfseL6py238B61TypLQ5BpBAEEEEBg1AUIzEedmAsggMBoCyS9F7Sw0PctPn3MMnEurPhZXPeUZWcuHO1L0z4CCCCAAAINEyAwbxglDSGAwHgJJFfO28C7f2PJmdNaS6gUVvz0wNxX/WRDAAEEEECgWQQIzJvlSXGfCCBwcwGt+plcPmMDb/+VJn5esEzHFJv09b+04tonzPLFm5/DXgQQQAABBCagAIH5BHwo3BICCAxfII0GwuJCA+98TxM/r1p2yswQmHvJRPLLh+/IkQgggAAC4y9AYD7+z4A7QACBOgTSvisWdx+x8gd/r4mfqWVnLbKu1/7UCisfrKNVTkUAAQQQQGDsBQjMx96cKyKAQAMFkivdWvVzv0Wf/tQyaafl5q+yzq/8geWXbW7gVWgKAQQQQACB0RcgMB99Y66AAAKjKBBfPGHxid0W737PMsUZlr97s3U8+ZuWX7x2FK9K0wgggAACCDRegMC88aa0iAACYygQnztk8bFtFu/fpvzyhVZY/aiVHn49jJyP4W1wKQQQQAABBOoWIDCvm5AGEEBgPAXiU3ssOrzV4qP7LD9zlRU2PmPFjc9Zbs7d43lbXBsBBBBAAIERCxCYj5iMExBAYCIJRMc+tejAB5acOm75BRustOWVMGqenbFgIt0m94IAAggggMBtBQjMb0vEAQggMJEFokMfWLT3PdUw77bC8oes9NivWX7pBsveNXsi3zb3hgACCCCAwOcECMw/R8IOBBBoJoHyvl9atOtdS3uuWHHNE9bx9LeUxrKcVT+b6SFyrwgggAACQYDAnF8EBBBoaoHyzp9YtOMdS/v6rbjpxVAqMTt1jmVKXU3dL24eAQQQQKD9BAjM2++Z02MEWkcgNRvY/o8WbXvXLEqs9OBr1vXKn1imY7JZvtA6/aQnCCCAAAJtIUBg3haPmU4i0IICCsotTWzgk7/X4kLvm2WyIb980r/6D+G9ZTIt2Gm6hAACCCDQygIE5q38dOkbAq0skCSWlvusvE0j5js+CakrpcfeDCPmBOWt/ODpGwIIINC6AgTmrfts6RkCLS2QxpGl1y5ZecePLd6zS4sLzbTSI29Y54t/2NL9pnMIIIAAAq0rQGDeus+WniHQ0gJpNGDJ5bOqyPIziw8dsNyMhVZ66HXrePZ3WrrfdA4BBBBAoHUFCMxb99nSMwRaWiAd6LPkwjGL9vzS4mNaXGjeSitqcaGOJ95q6X7TOQQQQACB1hUgMG/dZ0vPEGhpgbS/1+KzBy3a956lp85absl6Kz3wckhnaemO0zkEEEAAgZYVIDBv2UdLxxBobYG0r8eik7stPvChpecuWn6VVv3c/BUrKjhnQwABBBBAoBkFCMyb8alxzwggYOnVSxYd/cTiw59aevGqFdY9oQWGnrfihmfQQQABBBBAoCkFCMyb8rFx0wggkPResOjgryw+usust2zFzS8oKH/WCmseAwcBBBBAAIGmFCAwb8rHxk0jgEBypduivZr4eXyfWX9GFVles+L6pyy//H5wEEAAAQQQaEoBAvOmfGzcNAIIJD1nrbzzp5acOmQWFa3jy9+wwr1ftvziteAggAACCCDQlAIE5k352LhpBBBILp3Wqp//ZMmZ45axLut45neUxvK45eYtBwcBBBBAAIGmFCAwb8rHxk0jgEBy8aQNbP2BJedOW7Yw1Tq/8odWWP2IZbXQEBsCCCCAAALNKEBg3oxPjXtGAAGLLxy38q/+ryXd5y3bNdO6Xv2u5Vc+aNkpM9FBAAEEEECgKQUIzJvysXHTCCAQdx+xgXe+p1KJly1711yb9OafW37FA5YpdYGDAAIIIIBAUwoQmDflY+OmEWhzgSS2+NwhG3hbgfmVPsvNXGyTvv6Xlr97k1ku3+Y4dB8BBBBAoFkFCMyb9clx3wi0sUBa7rP4zH4rv/t9lUpULK4Jn12/9heqyLKujVXoOgIIIIBAswsQmDf7E+T+EWhDgUSrfsandlv00Y/MMl2WX7TGul75juUWrm5DDbqMAAIIINAqAgTmrfIk6QcCbSTgpRLjkztVLvGXli3NtPyyTdb5/O9r5HxFGynQVQQQQACBVhMgMG+1J0p/EGgDAc8vj49vt2j3VstNXWyFex620pe/abnZS9ug93QRAQQQQKBVBQjMW/XJ0i8EWlggUlAeH/lEr/2Wn3evFdY9YaUHXlEN8wUt3Gu6hgACCCDQ6gIE5q3+hOkfAi0oUN7/rsUHP7Lk7FkrrHzEive/XFlcaMqsFuwtXUIAAQQQaBcBAvN2edL0E4FWEUjNBrb/k8X7t6pU4jUr3veSdTz2dcvNX2mZjsmt0kv6gQACCCDQhgIE5m340OkyAk0rkKaWqob5wNbvW7x3u1mUWMeXvmkdz/y2ZSdNM8sXm7Zr3DgCCCCAAAIE5vwOIIBA0wikUdnSvh4rf/wDiw8fskxxknU89Zt6fcsy+YJKJ2abpi/cKAIIIIAAAp8VIDD/rAifEUBgwgqkfVcsvnDUop0/t/RMt2W14mfHl75hpcfenLD3zI0hgAACCCAwXAEC8+FKcRwCCIy7QHL5jEWHPrT46E6t+JnVxM+HVI1FEz/XPzXu98YNIIAAAgggUK8AgXm9gpyPAAJjI6D88vjcQS0q9GNLu89qoudMKz36r62w5nGt/Hnv2NwDV0EAAQQQQGAUBQjMRxGXphFAoHECaVy2+IRW+3zvB5Ze69cqnyut69XvKihfaxmf+MmGAAIIIIBAkwsQmDf5A+T2EWgXgeTiSYuOfmrR9vcsU7rLCss2W+dL/9Zys5ZQjaVdfgnoJwIIINDiAgTmLf6A6R4CrSLgueXRkU8tOXpYNctXW/HeL1lJEz+zd7GoUKs8Y/qBAAIItLsAgXm7/wbQfwSaQSBNbOCjv1WJxJ2VRYU2fUWrfb4YJn9mOllUqBkeIfeIAAIIIHB7AQLz2xtxBAIIjKOAl0hMes5Yefs/q0TiGbNcR1hUqLjlq5abNl9pLKpfzoYAAggggEALCBCYt8BDpAsItLJAfOG4yiN+YvGhHSqRqLh8zlItKPRbVtz0PAsKtfKDp28IIIBAGwoQmLfhQ6fLCDSNQBJbdHy7Vvr8kVJYei03fbGVtnzNCsovzy1c3TTd4EYRQAABBBAYjgCB+XCUOAYBBMZeIEm0yucxi498bNGurZYpdFn+blViefbblpu7TCUSp4/9PXFFBBBAAAEERlGAwHwUcWkaAQTuUECLCaXla1be97aqsOyy5PRZBePLrbDuCet87vcs0znlDhvmNAQQQAABBCauAIH5xH023BkCbSuQ9vVYcvGElXf+zJKzmvA5EIdVPosbn7PC8vupW962vxl0HAEEEGhtAQLz1n6+9A6B5hJIzdIksuTcwbCYUHJ0r1lStNxM5ZarZnlh9aOWnTKDSZ/N9VS5WwQQQACBYQoQmA8TisMQQGAMBJRXng5ctfL+dyza9q5ZObLcgtVWuu8lK6x9wnLzlo/BTXAJBBBAAAEExkeAwHx83LkqAgh8VkBBedJ3yaKDH1pyfLdGzc9rdHyWFdY8bh1PvGXZqXPJLf+sGZ8RQAABBFpKgMC8pR4nnUGgSQU02TO5cs7ic4cs3vu+pZcvqyNFK6x6yIrrn9Yqny+bZTPa5y82BBBAAAEEWlOAwLw1nyu9QqB5BJRXbqpXXj74nsX7P7DkwkXLaHXP7PQFqsDyuyE4z0xWXjkbAggggAACLS5AYN7iD5juITChBXyk/Noli0/usvjYTkvOnNKYeN7ySzdZccMzll/5oCZ+LtRyn4UJ3Q1uDgEEEEAAgUYIEJg3QpE2EEBgZAIKyFV+xZKrFy3pPmyRRsrTC+fNoowmeK4wL4tYfPBrlvV65fniyNrmaAQQQAABBJpUgMC8SR8ct41AMwukcayKK1pA6MB7lhzZYcklpa+kuZC+0vHEb1h+xRbLzV5SKYuYIa+8mZ81944AAgggMHwBAvPhW3EkAgg0QCAduKZA/JTFp1R55eQBSy9dUqsFyy9eZ/lVD1tRq3tmZyy0TKmrAVejCQQQQAABBJpHgMC8eZ4Vd4pAUwuEUfKo35LLp5VTvtvifR+rZnlsmUKX5WYttuLmr1hx03OWmTLTMqSvNPWz5uYRQAABBO5MgMD8ztw4CwEERiJQK4d49pBqlCt1pfu0pb19oU55btFaK215xXILV1t22jxVZNFET9JXRqLLsQgggAACLSJAYN4iD5JuIDARBdK4bKaVPOPzxxSMH9WiQccsvXjOLM5rwaA5lr97sxWUT55f9aBlJ0+n+spEfIjcEwIIIIDAmAkQmI8ZNRdCoE0EvC65pSq6Ell67XLIJ4/2a9Ggs6csvdqv1JWSZWcusoJKIRY3Pa/gfJMC8pzOYZJnm/yG0E0EEEAAgS8QIDD/Ahh2I4DAnQmksQLyvh5Lzh60WK+0+7ilV3q1iFA25JMX1jymqisPWF4pLNlpcy3TNZXUlTuj5iwEEEAAgRYTIDBvsQdKdxAYF4EksVQTO9OrFyzpOadR8jNKXfG0lbMKyiu55FlN8MzPX6W0lYcUlK9RKss8s2x2XG6XiyKAAAIIIDARBQjMJ+JT4Z4QaDKBNBoIAXl87FNLTuxVLrkWC4qT0ItMocPyq1UGcf3TofKKp7JY1lNX2BBAAAEEEEBgqACB+VAN3iOAwLAF0v6rWrnzvCUXT2rVzpMqg6jR8Z5Lyiu/ZhmlrWSnz7fcgtWhPnlu/kqVRFyi+uQLWDRo2MIciAACCCDQbgIE5u32xOkvAnci4BM6U6WraLVOD8jT/isqd6ig/NJpSxSUpxe7FZCXlUPeqeoqMxSUz7Ocp60s3ajXBsuo4oqPnLMhgAACCCCAwBcLEJh/sQ3fIIBATUB1yEO6yvmjYUJncuaQpZcvKBjv16RORe3KMc+UJllu7nLzyZ2F1Y+q8spiy3ROUV3yPKPkNUd+IoAAAgggcAsBAvNb4PAVAm0pEEbHY0v6NCp+9aImb3Zb0qsg3F9XL+vVY3ZVo+ZRqmB8suVmLLSs0lRyc5ZW0lVm66dSVjIdk1UGUUE5GwIIIIAAAggMS4DAfFhMHIRA6wp4eUPzhYD08lFxr65i5T5LFJCnyhtPLmqVTh8d772qke+8/utQ0D3JMpOmhQA8t+CeSh75vBWWvWs2wXjr/qrQMwQQQACBURYgMB9lYJpHYEILpBoZ79WouOeL93ggrjKHYRLnRQXnHqjHleoqnq6iBYCyU+cqd3yl5ZdsUMnDezVSvkhButJVip3KIS+q2oqnrbBQ0IR+5twcAggggMCEFSAwn7CPhhtDoDEClRFxjYQP9OnVq4mbWuxHL/8ZXn3+2Sd06tWnUfE+1SPv10ROpalkJ2nS5l2zwkh41n9qQSCvjqjvZwAADd9JREFUtpL19JVp8yzbdRcj5I15TLSCAAIIIICAEZjzS4BAswpoQqb5pExVS/GfptFvr5ziEzFDBZWk8jlVWoqpikri+eEaGU+vKC3FX709yhfXd6lGuDO5yiTNXEGpKgUz1RoP5Q49X3yeSh16ucM5y5S+MlXfa2ScDQEEEEAAAQQaLkBg3nBSGkRgDAQ8IE+UF96v8oVewnDAyxhqsqZP2LymgNtHxf29RsDTsnLGI+WRe6CuRX/SuJqe4gsAKUUl0zVVI+IaDVeJQx8Jz81cZNnZqjmusoehqkqxS6Pnnqqicoe1Citj0EUugQACCCCAQLsJEJi32xOnv2Mr4LW/fQS7toWR7cqIdhjh9qXsPWCujm77z9RHvv2c6v408cmZlQmaaZikOeS9Jmr6hE3z14Deh3QVn7yp14ByxPVS4rdlPPe75AG2Jm2qWkrWyxjWXkpXyU5REO71x++aqdcc5ZLPCXnjVFWpPTh+IoAAAgggMPoCBOajb9ycV/C5fmGrvfFUiRv3eYw5ZOdn3n/+443H+rnVrdJQ7dMX/By8+Bd8X8fuYV3/DtoPaSUKtD2YrlmFfVFlX7UKikU+ydJHtZUHHgJvHe/vy5WAO3zX7/nhSjvx4Fv531ablBkmWnoqytCXAvHwORv2Z4peRWVKCLYr+eELLOcj4l7iUKPjHqybp6+wIYAAAggggMC4ChCYjyv/BLy4B6lhFNdTH3xkthpY6n0IGsMobuW7kBJRHc0dHNWtdakalIbcZ+1T4oX+p5eP/F6P8Ksjw9o3JDgeHDEe3Fe5p1rudO0S9f/0e6qOaA9eq45WvQ33qLWlj6Gvtc/ho+/061ZeaTjHR9Cv7/N7Gvzs1VD0XRh1ry7kExb0UYUUyyov3EfAayPhmoiZVVqKlzH0V7b6M4yM+zHKGzelo3hKSuUcpaeomoq3oyF1vzs2BBBAAAEEEBhHAQLzccS/40tXg7kQwNYC4JACcT39oRJwVlMiQqDnwZ5/r5fVgtEh+6rHhADQUyk8D9mDcQ/EPZgOAbje67tK6oX2hWOqn6vvB/sUAs1q+75T8WUlwPQ2Bo/S+9o9eQBa3R/uxT9Xd/iPEJwO2TekiTt/6+1V2h681p025u14Y9VAutKMj2Ir4M0OCXo1kp0J+xQM+/4QFPvES/98/ZUZ+t7zunPFyqRMTc700W2fgBkC7Vr+twfeITVF+eIK0MMkTc8d90Bd3xkTNu/0yXIeAggggAACYyZAYD5m1I27UCh/56kOIf1BqQ2quhEqbyivuLY4TGXCn39XzT/2tInBhWQUVGsyYKWdSoCd+kTA2qsWEH/RLYcg9Iu+bLb9o9WZamqJVznxkWrfPL1EwXioapIvVUaulWYSRrE93cRrgfsI9pD3lTSUyZqgqVHwMCKuoNuDbQ/CFZRX2q38+NwHXU4XHfol7xFAAAEEEEBgAgsQmI/2w1HcV0nz8LxgBcdeSeOGIPnGgLny/fUc5Mqkv9pnD6L18tFxH8mujTb7KHh1wmBlxNtHbqsj0eEYv4lwI/pRfa+vK/tqn6s/PZDTiG4omecTBsPorEZpfcQ2jNz6e63+GEZuqz9rJfZ8n28hFtRosB/nI7+1zUeKPZfZA9TqFr738z67L4wk6/iwX8d7QFsbRa6dXO9Pb7s6ep0ZOqp9R+16W3qF/um+w6bRcW/Xr+HbkL4I8Hqfwmh51arWR+0LEzb9szv6iLePkgd3Hz3Xs/Hnw4YAAggggAACLSNAYK54VFGsYlx/4wGuvzxIrQW2lffXa0UP+V7HVALdoed5wKxzBlNL9F11Ql+onhGC8kpwHgJ1/04B+/Vg3Uezq8H6YIk7BeK1yX4+qu23OjSgrAVz+lkJBIemRCgo9O/D8dUgUe8HA8Yh+8O+WiBYDQBNP33EtxIY6n3Y78G5B4f6eUOwWK1vrfg0XM/P9fZqmwepfrxfs7ZVg/0wWXHoPg86B4NlBbjV4DX0pXZcvT8VKFeC/aHXqqNRd/UAevC+62iLUxFAAAEEEECg7QQIzD2ADikenhpSC5A9/cOD41oayNDvhgbStfca0a6eG6ppeEDtn8s+0l3LqfYAv/b7NeR92Ff94mbf+yke6IeflR9hBNWD5ZD2oPSHMPlPOcYhFaLy07zutL98X8HTIzy49vQJpVXUfnob1dfgPg+mPVj24LqWBlEb6Q0/fXf4svJ97X3tGD/Nt9oh199U9ysYrry7/v9aG4N7hhwR3g75/PmzB88a8ZvBZgffjLiJz53wub587gh2IIAAAggggAACNxVofGAeKnooGB3cFFTeUKlCn32k2VMxfAsxZ3XEOUxM9H3VVA3/PqRk+LG182qj0/rp34UR7srPMKod9lWO9XZqo9+VCYt+jvaFl4Lm8LO6b3CEvHpvtbZrx4Tvq6sshnvya+o6g8fVvqvuCxU0/D506xr9HRxd9hHVkB6inx4Eh89fMPrso8u1UenPnlcdab6eVuKj2LqOj2gP+RmuEY71UWEfUa+Npvux/l77b0ilqI6quz0bAggggAACCCCAwJgJZHp/8j88dKwEkCGKrHysBMwebFY/1w665WcdVKvgUT0+HO4jzx7Y+lYNZsMode16taDYg2DtCwGzt+Pfe+Dr73VMJfCuBdaVgLpSRs7brnwOExi9PT8+BNVqw68ZRsV9n77zUezqqofhOx+F9fQKH+30dAT/WcsNHrLfvw9pGNXjhp5j2dp3amfouR4Mh1FpTfILI9rVcnU3TPqrTgD0MnY+8S+McNcmA/p5189h9UU9ajYEEEAAAQQQQKAFBTIX//sbioTVMwWvYZKiB7W+DY4Ke5DrB/g+H8n2QLd6TAh4FeTWvg8H+ffhzZD/fXbfZz/7odf3hdOHtjn0fTg0HDHkOp/97M1V91WbHtr+Dd9pEt7gqPRgmodGqn35cQ+olfZR+5kpaJQ77POfHiz76PeQdJDBANpTSPx8TyPR+T4iHQL+6mj0DYH/kD8Gwh8B1T8QBoP7IQH/4B8EOocNAQQQQAABBBBAoKUEMuf/4mFFsJX/PGAdHCH3wNZj21qAW/tcO9YZfF+YNBk++P9CukRlgl41ePRR5s9M5PMR5ZBGUcsXDoFqJXhVBBtGnEOec/V9SLfwdjxwDakYtVHp2mTH659D2+E43+e50tXA19M5/FwFyeF+qukdN7wP+5QKElJPPMXDJy/6z+p7D7BrOdihveupIyF9xNNOBtNTPFe7klbiQTkbAggggAACCCCAAAK3Esic/89PefgdNoW+lUC2tsN/emA7uPn3/mHIvvD99c+10efBYzyg9tFnD2rDqV4RRO99JLl6bqgGUgtivXVV/DCNRodA3ANgz7UOAbnO8/chUFaAXTvHA+lq8BwC5BCAKzD2Ee0QpOt7v56fO2SUO4x++3kEzpVnw/8RQAABBBBAAAEExk0gc+0n/1OBuQfcCqB9xNdHiH3zVAoFuJUKHdURXwWxgwFy7RgfIfZAOATZvtPb0vHXY/Xq59qO6rWGBsN+bjVI9xbC+crZDo34fdW+C8d529e/C++HfA7H1j57H6p9q9yTX8dzyLU/pIpUPvsl2RBAAAEEEEAAAQQQGE+BTHTqQFoJohUA++ixB9m+1YJXD84HA119Vw3YwyHhGA/Ka8FyOJP/IYAAAggggAACCCCAwAgFMsopH0xlGeG5HI4AAggggAACCCCAAAINEiAwbxAkzSCAAAIIIIAAAgggUI8AgXk9epyLAAIIIIAAAggggECDBAjMGwRJMwgggAACCCCAAAII1CNAYF6PHucigAACCCCAAAIIINAgAQLzBkHSDAIIIIAAAggggAAC9QgQmNejx7kIIIAAAggggAACCDRIgMC8QZA0gwACCCCAAAIIIIBAPQIE5vXocS4CCCCAAAIIIIAAAg0SIDBvECTNIIAAAggggAACCCBQjwCBeT16nIsAAggggAACCCCAQIMECMwbBEkzCCCAAAIIIIAAAgjUI0BgXo8e5yKAAAIIIIAAAggg0CABAvMGQdIMAggggAACCCCAAAL1CBCY16PHuQgggAACCCCAAAIINEiAwLxBkDSDAAIIIIAAAggggEA9AgTm9ehxLgIIIIAAAggggAACDRIgMG8QJM0ggAACCCCAAAIIIFCPAIF5PXqciwACCCCAAAIIIIBAgwQIzBsESTMIIIAAAggggAACCNQjQGBejx7nIoAAAggggAACCCDQIAEC8wZB0gwCCCCAAAIIIIAAAvUIEJjXo8e5CCCAAAIIIIAAAgg0SIDAvEGQNIMAAggggAACCCCAQD0CBOb16HEuAggggAACCCCAAAINEiAwbxAkzSCAAAIIIIAAAgggUI8AgXk9epyLAAIIIIAAAggggECDBAjMGwRJMwgggAACCCCAAAII1CNAYF6PHucigAACCCCAAAIIINAgAQLzBkHSDAIIIIAAAggggAAC9QgQmNejx7kIIIAAAggggAACCDRIgMC8QZA0gwACCCCAAAIIIIBAPQIE5vXocS4CCCCAAAIIIIAAAg0SIDBvECTNIIAAAggggAACCCBQjwCBeT16nIsAAggggAACCCCAQIMECMwbBEkzCCCAAAIIIIAAAgjUI0BgXo8e5yKAAAIIIIAAAggg0CABAvMGQdIMAggggAACCCCAAAL1CBCY16PHuQgggAACCCCAAAIINEiAwLxBkDSDAAIIIIAAAggggEA9AgTm9ehxLgIIIIAAAggggAACDRL4/5MlPqVbLlBfAAAAAElFTkSuQmCC;" vertex="1" parent="1">
          <mxGeometry x="612" y="237.5" width="89.19" height="112.5" as="geometry" />
        </mxCell>
        <mxCell id="dJhU3snJmLQJ3H2SU6Lc-8" value="" style="rounded=1;whiteSpace=wrap;html=1;fillColor=none;" vertex="1" parent="1">
          <mxGeometry x="567" y="237.5" width="172" height="110" as="geometry" />
        </mxCell>
        <mxCell id="dJhU3snJmLQJ3H2SU6Lc-1" value="" style="shape=mxgraph.signs.healthcare.brain;html=1;pointerEvents=1;fillColor=#000000;strokeColor=none;verticalLabelPosition=bottom;verticalAlign=top;align=center;" vertex="1" parent="1">
          <mxGeometry x="360" y="250" width="98" height="85" as="geometry" />
        </mxCell>
        <mxCell id="dJhU3snJmLQJ3H2SU6Lc-10" style="edgeStyle=orthogonalEdgeStyle;rounded=0;orthogonalLoop=1;jettySize=auto;html=1;exitX=1;exitY=0.5;exitDx=0;exitDy=0;entryX=0;entryY=0.5;entryDx=0;entryDy=0;" edge="1" parent="1" source="dJhU3snJmLQJ3H2SU6Lc-2" target="dJhU3snJmLQJ3H2SU6Lc-8">
          <mxGeometry relative="1" as="geometry" />
        </mxCell>
        <mxCell id="dJhU3snJmLQJ3H2SU6Lc-2" value="" style="rounded=1;whiteSpace=wrap;html=1;fillColor=none;" vertex="1" parent="1">
          <mxGeometry x="330" y="237.5" width="172" height="110" as="geometry" />
        </mxCell>
        <mxCell id="dJhU3snJmLQJ3H2SU6Lc-3" value="&quot;controller&quot;" style="text;html=1;align=center;verticalAlign=middle;resizable=0;points=[];autosize=1;strokeColor=none;fillColor=none;" vertex="1" parent="1">
          <mxGeometry x="376" y="207.5" width="80" height="30" as="geometry" />
        </mxCell>
        <mxCell id="dJhU3snJmLQJ3H2SU6Lc-9" style="edgeStyle=orthogonalEdgeStyle;rounded=0;orthogonalLoop=1;jettySize=auto;html=1;exitX=1;exitY=0.5;exitDx=0;exitDy=0;entryX=0;entryY=0.5;entryDx=0;entryDy=0;" edge="1" parent="1" source="dJhU3snJmLQJ3H2SU6Lc-4" target="dJhU3snJmLQJ3H2SU6Lc-2">
          <mxGeometry relative="1" as="geometry" />
        </mxCell>
        <mxCell id="dJhU3snJmLQJ3H2SU6Lc-4" value="" style="ellipse;whiteSpace=wrap;html=1;aspect=fixed;" vertex="1" parent="1">
          <mxGeometry x="220" y="272.5" width="40" height="40" as="geometry" />
        </mxCell>
        <UserObject label="https://openclipart.org/image/800px/170510" id="dJhU3snJmLQJ3H2SU6Lc-6">
          <mxCell style="text;whiteSpace=wrap;" vertex="1" parent="1">
            <mxGeometry x="780" y="90" width="260" height="40" as="geometry" />
          </mxCell>
        </UserObject>
        <mxCell id="dJhU3snJmLQJ3H2SU6Lc-15" style="edgeStyle=orthogonalEdgeStyle;rounded=0;orthogonalLoop=1;jettySize=auto;html=1;exitX=1;exitY=0.5;exitDx=0;exitDy=0;entryX=0;entryY=0.5;entryDx=0;entryDy=0;" edge="1" parent="1" source="dJhU3snJmLQJ3H2SU6Lc-8" target="dJhU3snJmLQJ3H2SU6Lc-14">
          <mxGeometry relative="1" as="geometry" />
        </mxCell>
        <mxCell id="dJhU3snJmLQJ3H2SU6Lc-11" value="&quot;plant&quot;" style="text;html=1;strokeColor=none;fillColor=none;align=center;verticalAlign=middle;whiteSpace=wrap;rounded=0;" vertex="1" parent="1">
          <mxGeometry x="626.6" y="207.5" width="60" height="30" as="geometry" />
        </mxCell>
        <mxCell id="dJhU3snJmLQJ3H2SU6Lc-13" style="edgeStyle=orthogonalEdgeStyle;rounded=0;orthogonalLoop=1;jettySize=auto;html=1;exitX=1;exitY=0.5;exitDx=0;exitDy=0;entryX=0;entryY=0.5;entryDx=0;entryDy=0;" edge="1" parent="1" source="dJhU3snJmLQJ3H2SU6Lc-12" target="dJhU3snJmLQJ3H2SU6Lc-4">
          <mxGeometry relative="1" as="geometry" />
        </mxCell>
        <mxCell id="dJhU3snJmLQJ3H2SU6Lc-12" value="object position" style="text;html=1;strokeColor=none;fillColor=none;align=center;verticalAlign=middle;whiteSpace=wrap;rounded=0;" vertex="1" parent="1">
          <mxGeometry x="100" y="277.75" width="60" height="30" as="geometry" />
        </mxCell>
        <mxCell id="dJhU3snJmLQJ3H2SU6Lc-14" value="arm position" style="text;html=1;strokeColor=none;fillColor=none;align=center;verticalAlign=middle;whiteSpace=wrap;rounded=0;" vertex="1" parent="1">
          <mxGeometry x="820" y="277.5" width="60" height="30" as="geometry" />
        </mxCell>
        <mxCell id="dJhU3snJmLQJ3H2SU6Lc-17" style="edgeStyle=orthogonalEdgeStyle;rounded=0;orthogonalLoop=1;jettySize=auto;html=1;exitX=0.5;exitY=1;exitDx=0;exitDy=0;entryX=0.5;entryY=1;entryDx=0;entryDy=0;" edge="1" parent="1" source="dJhU3snJmLQJ3H2SU6Lc-16" target="dJhU3snJmLQJ3H2SU6Lc-4">
          <mxGeometry relative="1" as="geometry">
            <Array as="points">
              <mxPoint x="770" y="420" />
              <mxPoint x="240" y="420" />
            </Array>
          </mxGeometry>
        </mxCell>
        <mxCell id="dJhU3snJmLQJ3H2SU6Lc-16" value="&amp;nbsp;" style="text;html=1;strokeColor=none;fillColor=none;align=center;verticalAlign=middle;whiteSpace=wrap;rounded=0;" vertex="1" parent="1">
          <mxGeometry x="740" y="262" width="60" height="30" as="geometry" />
        </mxCell>
        <mxCell id="dJhU3snJmLQJ3H2SU6Lc-18" value="-" style="text;html=1;align=center;verticalAlign=middle;resizable=0;points=[];autosize=1;strokeColor=none;fillColor=none;" vertex="1" parent="1">
          <mxGeometry x="210" y="307.5" width="30" height="30" as="geometry" />
        </mxCell>
        <mxCell id="dJhU3snJmLQJ3H2SU6Lc-19" value="error" style="text;html=1;align=center;verticalAlign=middle;resizable=0;points=[];autosize=1;strokeColor=none;fillColor=none;" vertex="1" parent="1">
          <mxGeometry x="260" y="262" width="50" height="30" as="geometry" />
        </mxCell>
        <mxCell id="dJhU3snJmLQJ3H2SU6Lc-20" value="command" style="text;html=1;align=center;verticalAlign=middle;resizable=0;points=[];autosize=1;strokeColor=none;fillColor=none;" vertex="1" parent="1">
          <mxGeometry x="494" y="262" width="80" height="30" as="geometry" />
        </mxCell>
        <mxCell id="dJhU3snJmLQJ3H2SU6Lc-21" value="" style="shape=or;whiteSpace=wrap;html=1;rotation=-90;connectable=0;allowArrows=0;" vertex="1" parent="1">
          <mxGeometry x="376" y="709" width="60" height="80" as="geometry" />
        </mxCell>
        <mxCell id="dJhU3snJmLQJ3H2SU6Lc-22" value="" style="rounded=1;whiteSpace=wrap;html=1;arcSize=50;rotation=-30;connectable=0;allowArrows=0;" vertex="1" parent="1">
          <mxGeometry x="376" y="672" width="252" height="35" as="geometry" />
        </mxCell>
        <mxCell id="dJhU3snJmLQJ3H2SU6Lc-23" value="&lt;font style=&quot;font-size: 24px;&quot;&gt;\(J\)&lt;/font&gt;" style="text;html=1;align=center;verticalAlign=middle;resizable=0;points=[];autosize=1;strokeColor=none;fillColor=none;" vertex="1" parent="1">
          <mxGeometry x="472.5" y="672" width="59" height="41" as="geometry" />
        </mxCell>
        <mxCell id="dJhU3snJmLQJ3H2SU6Lc-24" value="" style="endArrow=none;dashed=1;html=1;rounded=0;exitX=1;exitY=0.5;exitDx=0;exitDy=0;" edge="1" parent="1" source="dJhU3snJmLQJ3H2SU6Lc-25">
          <mxGeometry width="50" height="50" relative="1" as="geometry">
            <mxPoint x="567" y="759" as="sourcePoint" />
            <mxPoint x="617" y="740" as="targetPoint" />
          </mxGeometry>
        </mxCell>
        <mxCell id="dJhU3snJmLQJ3H2SU6Lc-25" value="" style="ellipse;whiteSpace=wrap;html=1;aspect=fixed;fillColor=#000000;" vertex="1" parent="1">
          <mxGeometry x="398.5" y="732" width="21" height="21" as="geometry" />
        </mxCell>
        <mxCell id="dJhU3snJmLQJ3H2SU6Lc-26" value="&lt;font style=&quot;font-size: 24px;&quot;&gt;\(\theta\)&lt;/font&gt;" style="text;html=1;align=center;verticalAlign=middle;resizable=0;points=[];autosize=1;strokeColor=none;fillColor=none;" vertex="1" parent="1">
          <mxGeometry x="467" y="704" width="107" height="41" as="geometry" />
        </mxCell>
        <mxCell id="dJhU3snJmLQJ3H2SU6Lc-28" value="" style="endArrow=classic;html=1;rounded=0;entryX=0;entryY=0;entryDx=0;entryDy=0;" edge="1" parent="1" target="dJhU3snJmLQJ3H2SU6Lc-25">
          <mxGeometry width="50" height="50" relative="1" as="geometry">
            <mxPoint x="348.5" y="695" as="sourcePoint" />
            <mxPoint x="398.5" y="645" as="targetPoint" />
          </mxGeometry>
        </mxCell>
        <mxCell id="dJhU3snJmLQJ3H2SU6Lc-29" value="\(T_b = -b\dot{\theta}\)" style="text;html=1;align=center;verticalAlign=middle;resizable=0;points=[];autosize=1;strokeColor=none;fillColor=none;connectable=0;allowArrows=0;" vertex="1" parent="1">
          <mxGeometry x="283.5" y="667" width="136" height="26" as="geometry" />
        </mxCell>
        <mxCell id="dJhU3snJmLQJ3H2SU6Lc-30" value="" style="verticalLabelPosition=bottom;verticalAlign=top;html=1;shape=mxgraph.basic.arc;startAngle=0.044922663932729305;endAngle=0.2889895651886847;connectable=0;allowArrows=0;" vertex="1" parent="1">
          <mxGeometry x="358" y="692.5" width="100" height="100" as="geometry" />
        </mxCell>
        <mxCell id="dJhU3snJmLQJ3H2SU6Lc-31" value="" style="endArrow=classic;html=1;rounded=0;" edge="1" parent="1">
          <mxGeometry width="50" height="50" relative="1" as="geometry">
            <mxPoint x="422" y="694" as="sourcePoint" />
            <mxPoint x="416" y="693" as="targetPoint" />
          </mxGeometry>
        </mxCell>
        <mxCell id="dJhU3snJmLQJ3H2SU6Lc-32" value="\(T_m \)" style="text;html=1;align=center;verticalAlign=middle;resizable=0;points=[];autosize=1;strokeColor=none;fillColor=none;connectable=0;allowArrows=0;" vertex="1" parent="1">
          <mxGeometry x="398.5" y="670" width="60" height="26" as="geometry" />
        </mxCell>
        <mxCell id="dJhU3snJmLQJ3H2SU6Lc-33" value="" style="ellipse;whiteSpace=wrap;html=1;aspect=fixed;strokeWidth=6;fillColor=#99CCFF;" vertex="1" parent="1">
          <mxGeometry x="445" y="537" width="48" height="48" as="geometry" />
        </mxCell>
        <mxCell id="dJhU3snJmLQJ3H2SU6Lc-34" value="&lt;font style=&quot;font-size: 24px;&quot;&gt;\(\theta_g\)&lt;/font&gt;" style="text;html=1;align=center;verticalAlign=middle;resizable=0;points=[];autosize=1;strokeColor=none;fillColor=none;" vertex="1" parent="1">
          <mxGeometry x="419.5" y="591" width="134" height="41" as="geometry" />
        </mxCell>
        <mxCell id="dJhU3snJmLQJ3H2SU6Lc-36" value="" style="endArrow=none;dashed=1;html=1;rounded=0;entryX=0.292;entryY=0.972;entryDx=0;entryDy=0;entryPerimeter=0;" edge="1" parent="1" source="dJhU3snJmLQJ3H2SU6Lc-25" target="dJhU3snJmLQJ3H2SU6Lc-33">
          <mxGeometry width="50" height="50" relative="1" as="geometry">
            <mxPoint x="419.5" y="743" as="sourcePoint" />
            <mxPoint x="443" y="587" as="targetPoint" />
          </mxGeometry>
        </mxCell>
        <mxCell id="dJhU3snJmLQJ3H2SU6Lc-37" value="" style="endArrow=none;dashed=1;html=1;rounded=0;" edge="1" parent="1" source="dJhU3snJmLQJ3H2SU6Lc-25">
          <mxGeometry width="50" height="50" relative="1" as="geometry">
            <mxPoint x="419.5" y="744" as="sourcePoint" />
            <mxPoint x="609" y="627" as="targetPoint" />
          </mxGeometry>
        </mxCell>
        <mxCell id="dJhU3snJmLQJ3H2SU6Lc-38" value="" style="verticalLabelPosition=bottom;verticalAlign=top;html=1;shape=mxgraph.basic.arc;startAngle=0.16870001329196474;endAngle=0.25159149638245415;connectable=0;allowArrows=0;dashed=1;dashPattern=1 2;" vertex="1" parent="1">
          <mxGeometry x="279" y="613" width="257" height="260" as="geometry" />
        </mxCell>
        <mxCell id="dJhU3snJmLQJ3H2SU6Lc-35" value="" style="verticalLabelPosition=bottom;verticalAlign=top;html=1;shape=mxgraph.basic.arc;startAngle=0.044922663932729305;endAngle=0.25159149638245415;connectable=0;allowArrows=0;dashed=1;dashPattern=1 2;" vertex="1" parent="1">
          <mxGeometry x="279" y="607" width="266" height="266" as="geometry" />
        </mxCell>
      </root>
    </mxGraphModel>
  </diagram>
  <diagram id="S1Ks3cs2kMUBQt8gCsxA" name="Page-2">
    <mxGraphModel dx="1193" dy="843" grid="0" gridSize="10" guides="1" tooltips="1" connect="1" arrows="1" fold="1" page="1" pageScale="1" pageWidth="3300" pageHeight="2339" math="1" shadow="0">
      <root>
        <mxCell id="0" />
        <mxCell id="1" parent="0" />
        <mxCell id="UIGgzO0gLOjLBSHgn0PS-4" value="" style="group;rotation=-30;" vertex="1" connectable="0" parent="1">
          <mxGeometry x="544" y="412" width="169" height="135" as="geometry" />
        </mxCell>
        <mxCell id="UIGgzO0gLOjLBSHgn0PS-1" value="" style="ellipse;whiteSpace=wrap;html=1;aspect=fixed;strokeWidth=3;rotation=-30;" vertex="1" parent="UIGgzO0gLOjLBSHgn0PS-4">
          <mxGeometry x="6" y="22" width="80" height="80" as="geometry" />
        </mxCell>
        <mxCell id="UIGgzO0gLOjLBSHgn0PS-2" value="" style="verticalLabelPosition=bottom;verticalAlign=top;html=1;shape=mxgraph.basic.arc;startAngle=0.48099229607602517;endAngle=0.015862758715276787;strokeWidth=3;rotation=-30;" vertex="1" parent="UIGgzO0gLOjLBSHgn0PS-4">
          <mxGeometry x="115" y="-14" width="45" height="45" as="geometry" />
        </mxCell>
        <mxCell id="UIGgzO0gLOjLBSHgn0PS-3" style="rounded=0;orthogonalLoop=1;jettySize=auto;html=1;exitX=1;exitY=0.5;exitDx=0;exitDy=0;entryX=0;entryY=0.522;entryDx=0;entryDy=0;entryPerimeter=0;endArrow=none;endFill=0;strokeWidth=3;" edge="1" parent="UIGgzO0gLOjLBSHgn0PS-4" source="UIGgzO0gLOjLBSHgn0PS-1" target="UIGgzO0gLOjLBSHgn0PS-2">
          <mxGeometry relative="1" as="geometry" />
        </mxCell>
        <mxCell id="UIGgzO0gLOjLBSHgn0PS-8" value="" style="endArrow=none;dashed=1;html=1;rounded=0;" edge="1" parent="UIGgzO0gLOjLBSHgn0PS-4">
          <mxGeometry width="50" height="50" relative="1" as="geometry">
            <mxPoint x="46" y="61" as="sourcePoint" />
            <mxPoint x="157" y="59" as="targetPoint" />
          </mxGeometry>
        </mxCell>
        <mxCell id="UIGgzO0gLOjLBSHgn0PS-9" value="\(\psi\)" style="text;html=1;align=center;verticalAlign=middle;resizable=0;points=[];autosize=1;strokeColor=none;fillColor=none;" vertex="1" parent="UIGgzO0gLOjLBSHgn0PS-4">
          <mxGeometry x="77" y="34" width="51" height="26" as="geometry" />
        </mxCell>
        <mxCell id="UIGgzO0gLOjLBSHgn0PS-13" value="" style="verticalLabelPosition=bottom;verticalAlign=top;html=1;shape=mxgraph.basic.arc;startAngle=0.08738006488209792;endAngle=0.24834219596880786;" vertex="1" parent="UIGgzO0gLOjLBSHgn0PS-4">
          <mxGeometry x="-28.5" y="-14" width="149" height="149" as="geometry" />
        </mxCell>
        <mxCell id="UIGgzO0gLOjLBSHgn0PS-14" value="" style="endArrow=none;dashed=1;html=1;rounded=0;" edge="1" parent="UIGgzO0gLOjLBSHgn0PS-4" target="UIGgzO0gLOjLBSHgn0PS-10">
          <mxGeometry width="50" height="50" relative="1" as="geometry">
            <mxPoint x="47" y="61.5" as="sourcePoint" />
            <mxPoint x="158" y="59.5" as="targetPoint" />
          </mxGeometry>
        </mxCell>
        <mxCell id="UIGgzO0gLOjLBSHgn0PS-19" value="" style="endArrow=classic;html=1;rounded=0;" edge="1" parent="UIGgzO0gLOjLBSHgn0PS-4">
          <mxGeometry width="50" height="50" relative="1" as="geometry">
            <mxPoint x="18" y="-14" as="sourcePoint" />
            <mxPoint x="-7" y="34" as="targetPoint" />
          </mxGeometry>
        </mxCell>
        <mxCell id="UIGgzO0gLOjLBSHgn0PS-21" value="\(\psi_g\)" style="text;html=1;align=center;verticalAlign=middle;resizable=0;points=[];autosize=1;strokeColor=none;fillColor=none;" vertex="1" parent="UIGgzO0gLOjLBSHgn0PS-4">
          <mxGeometry x="70" y="-22" width="65" height="26" as="geometry" />
        </mxCell>
        <mxCell id="UIGgzO0gLOjLBSHgn0PS-5" value="" style="endArrow=classic;html=1;rounded=0;" edge="1" parent="1">
          <mxGeometry width="50" height="50" relative="1" as="geometry">
            <mxPoint x="468" y="565" as="sourcePoint" />
            <mxPoint x="468" y="337" as="targetPoint" />
          </mxGeometry>
        </mxCell>
        <mxCell id="UIGgzO0gLOjLBSHgn0PS-6" value="" style="endArrow=classic;html=1;rounded=0;" edge="1" parent="1">
          <mxGeometry width="50" height="50" relative="1" as="geometry">
            <mxPoint x="468" y="565" as="sourcePoint" />
            <mxPoint x="737" y="567" as="targetPoint" />
          </mxGeometry>
        </mxCell>
        <mxCell id="UIGgzO0gLOjLBSHgn0PS-7" value="\(\hat{y}_A\)" style="text;html=1;align=center;verticalAlign=middle;resizable=0;points=[];autosize=1;strokeColor=none;fillColor=none;" vertex="1" parent="1">
          <mxGeometry x="428" y="314" width="81" height="26" as="geometry" />
        </mxCell>
        <mxCell id="UIGgzO0gLOjLBSHgn0PS-10" value="" style="ellipse;whiteSpace=wrap;html=1;aspect=fixed;fillColor=#009900;" vertex="1" parent="1">
          <mxGeometry x="642" y="346" width="26" height="26" as="geometry" />
        </mxCell>
        <mxCell id="UIGgzO0gLOjLBSHgn0PS-11" value="goal" style="text;html=1;align=center;verticalAlign=middle;resizable=0;points=[];autosize=1;strokeColor=none;fillColor=none;" vertex="1" parent="1">
          <mxGeometry x="634.5" y="320" width="41" height="26" as="geometry" />
        </mxCell>
        <mxCell id="UIGgzO0gLOjLBSHgn0PS-12" value="" style="verticalLabelPosition=bottom;verticalAlign=top;html=1;shape=mxgraph.basic.arc;startAngle=0.16929276639145238;endAngle=0.2404621378820819;" vertex="1" parent="1">
          <mxGeometry x="539" y="424" width="100" height="100" as="geometry" />
        </mxCell>
        <mxCell id="UIGgzO0gLOjLBSHgn0PS-15" value="" style="endArrow=none;html=1;rounded=0;" edge="1" parent="1">
          <mxGeometry width="50" height="50" relative="1" as="geometry">
            <mxPoint x="589" y="474" as="sourcePoint" />
            <mxPoint x="513" y="436" as="targetPoint" />
          </mxGeometry>
        </mxCell>
        <mxCell id="UIGgzO0gLOjLBSHgn0PS-16" value="" style="endArrow=none;html=1;rounded=0;" edge="1" parent="1">
          <mxGeometry width="50" height="50" relative="1" as="geometry">
            <mxPoint x="653" y="360" as="sourcePoint" />
            <mxPoint x="578" y="321" as="targetPoint" />
          </mxGeometry>
        </mxCell>
        <mxCell id="UIGgzO0gLOjLBSHgn0PS-17" value="" style="endArrow=classic;html=1;rounded=0;" edge="1" parent="1">
          <mxGeometry width="50" height="50" relative="1" as="geometry">
            <mxPoint x="570" y="382" as="sourcePoint" />
            <mxPoint x="597" y="334" as="targetPoint" />
          </mxGeometry>
        </mxCell>
        <mxCell id="UIGgzO0gLOjLBSHgn0PS-20" value="\(d\)" style="text;html=1;align=center;verticalAlign=middle;resizable=0;points=[];autosize=1;strokeColor=none;fillColor=none;" vertex="1" parent="1">
          <mxGeometry x="544" y="376" width="39" height="26" as="geometry" />
        </mxCell>
        <mxCell id="UIGgzO0gLOjLBSHgn0PS-22" value="\(\hat{x}_A\)" style="text;html=1;align=center;verticalAlign=middle;resizable=0;points=[];autosize=1;strokeColor=none;fillColor=none;" vertex="1" parent="1">
          <mxGeometry x="717" y="552" width="81" height="26" as="geometry" />
        </mxCell>
      </root>
    </mxGraphModel>
  </diagram>
</mxfile>
